G04 #@! TF.GenerationSoftware,KiCad,Pcbnew,7.0.8-7.0.8~ubuntu23.04.1*
G04 #@! TF.CreationDate,2023-10-29T22:49:27+00:00*
G04 #@! TF.ProjectId,2332 ROM Tester,32333332-2052-44f4-9d20-546573746572,1.0*
G04 #@! TF.SameCoordinates,Original*
G04 #@! TF.FileFunction,Soldermask,Top*
G04 #@! TF.FilePolarity,Negative*
%FSLAX46Y46*%
G04 Gerber Fmt 4.6, Leading zero omitted, Abs format (unit mm)*
G04 Created by KiCad (PCBNEW 7.0.8-7.0.8~ubuntu23.04.1) date 2023-10-29 22:49:27*
%MOMM*%
%LPD*%
G01*
G04 APERTURE LIST*
G04 Aperture macros list*
%AMRoundRect*
0 Rectangle with rounded corners*
0 $1 Rounding radius*
0 $2 $3 $4 $5 $6 $7 $8 $9 X,Y pos of 4 corners*
0 Add a 4 corners polygon primitive as box body*
4,1,4,$2,$3,$4,$5,$6,$7,$8,$9,$2,$3,0*
0 Add four circle primitives for the rounded corners*
1,1,$1+$1,$2,$3*
1,1,$1+$1,$4,$5*
1,1,$1+$1,$6,$7*
1,1,$1+$1,$8,$9*
0 Add four rect primitives between the rounded corners*
20,1,$1+$1,$2,$3,$4,$5,0*
20,1,$1+$1,$4,$5,$6,$7,0*
20,1,$1+$1,$6,$7,$8,$9,0*
20,1,$1+$1,$8,$9,$2,$3,0*%
G04 Aperture macros list end*
%ADD10RoundRect,0.243750X0.243750X0.456250X-0.243750X0.456250X-0.243750X-0.456250X0.243750X-0.456250X0*%
%ADD11O,1.727200X1.727200*%
%ADD12C,1.727200*%
%ADD13C,1.530000*%
%ADD14C,2.000000*%
%ADD15RoundRect,0.243750X-0.456250X0.243750X-0.456250X-0.243750X0.456250X-0.243750X0.456250X0.243750X0*%
%ADD16RoundRect,0.250000X-0.450000X0.262500X-0.450000X-0.262500X0.450000X-0.262500X0.450000X0.262500X0*%
%ADD17R,1.600000X1.600000*%
%ADD18O,1.600000X1.600000*%
%ADD19RoundRect,0.250000X0.475000X-0.250000X0.475000X0.250000X-0.475000X0.250000X-0.475000X-0.250000X0*%
G04 APERTURE END LIST*
D10*
G04 #@! TO.C,D2*
X90918700Y-76980000D03*
X89043700Y-76980000D03*
G04 #@! TD*
D11*
G04 #@! TO.C,A1*
X107700000Y-96330000D03*
X83316000Y-48070000D03*
X80776000Y-48070000D03*
X95000000Y-96330000D03*
X92460000Y-96330000D03*
D12*
X158500000Y-91250000D03*
X155960000Y-91250000D03*
X105160000Y-96330000D03*
X102620000Y-96330000D03*
X88396000Y-48070000D03*
D11*
X158500000Y-88710000D03*
X155960000Y-88710000D03*
X158500000Y-86170000D03*
X155960000Y-86170000D03*
X158500000Y-83630000D03*
X155960000Y-83630000D03*
X158500000Y-81090000D03*
X155960000Y-81090000D03*
X158500000Y-78550000D03*
X155960000Y-78550000D03*
X158500000Y-76010000D03*
X155960000Y-76010000D03*
X158500000Y-73470000D03*
X155960000Y-73470000D03*
X158500000Y-70930000D03*
X155960000Y-70930000D03*
X158500000Y-68390000D03*
X155960000Y-68390000D03*
X158500000Y-65850000D03*
X155960000Y-65850000D03*
X158500000Y-63310000D03*
X155960000Y-63310000D03*
X158500000Y-60770000D03*
X155960000Y-60770000D03*
X158500000Y-58230000D03*
X155960000Y-58230000D03*
X158500000Y-55690000D03*
X155960000Y-55690000D03*
X158500000Y-53150000D03*
X155960000Y-53150000D03*
X158500000Y-50610000D03*
X155960000Y-50610000D03*
X148340000Y-48070000D03*
X145800000Y-48070000D03*
X143260000Y-48070000D03*
X140720000Y-48070000D03*
X138180000Y-48070000D03*
X135640000Y-48070000D03*
X133100000Y-48070000D03*
X130560000Y-48070000D03*
X90936000Y-48070000D03*
X93476000Y-48070000D03*
X96016000Y-48070000D03*
X98556000Y-48070000D03*
X101096000Y-48070000D03*
X103636000Y-48070000D03*
X107700000Y-48070000D03*
X110240000Y-48070000D03*
X112780000Y-48070000D03*
X115320000Y-48070000D03*
X117860000Y-48070000D03*
X120400000Y-48070000D03*
X122940000Y-48070000D03*
X125480000Y-48070000D03*
X85856000Y-48070000D03*
X153420000Y-96330000D03*
X150880000Y-96330000D03*
X148340000Y-96330000D03*
X145800000Y-96330000D03*
X143260000Y-96330000D03*
X140720000Y-96330000D03*
X138180000Y-96330000D03*
X135640000Y-96330000D03*
X130560000Y-96330000D03*
X128020000Y-96330000D03*
X125480000Y-96330000D03*
X122940000Y-96330000D03*
X120400000Y-96330000D03*
X117860000Y-96330000D03*
X115320000Y-96330000D03*
X112780000Y-96330000D03*
X158500000Y-48070000D03*
X155960000Y-48070000D03*
X100080000Y-96330000D03*
X97540000Y-96330000D03*
X89920000Y-96330000D03*
G04 #@! TD*
D13*
G04 #@! TO.C,U1*
X107980000Y-80890000D03*
X110520000Y-80890000D03*
X113060000Y-80890000D03*
X115600000Y-80890000D03*
X118140000Y-80890000D03*
X120680000Y-80890000D03*
X123220000Y-80890000D03*
X125760000Y-80890000D03*
X128300000Y-80890000D03*
X130840000Y-80890000D03*
X133380000Y-80890000D03*
X135920000Y-80890000D03*
X135920000Y-65650000D03*
X133380000Y-65650000D03*
X130840000Y-65650000D03*
X128300000Y-65650000D03*
X125760000Y-65650000D03*
X123220000Y-65650000D03*
X120680000Y-65650000D03*
X118140000Y-65650000D03*
X115600000Y-65650000D03*
X113060000Y-65650000D03*
X110520000Y-65650000D03*
X107980000Y-65650000D03*
G04 #@! TD*
D14*
G04 #@! TO.C,SW1*
X90496800Y-62138800D03*
X83996800Y-62138800D03*
X90496800Y-57638800D03*
X83996800Y-57638800D03*
G04 #@! TD*
D10*
G04 #@! TO.C,D1*
X90868700Y-72280000D03*
X88993700Y-72280000D03*
G04 #@! TD*
D15*
G04 #@! TO.C,F1*
X100076000Y-89006900D03*
X100076000Y-90881900D03*
G04 #@! TD*
D16*
G04 #@! TO.C,R2*
X83820000Y-85803100D03*
X83820000Y-87628100D03*
G04 #@! TD*
G04 #@! TO.C,R1*
X87528400Y-85803100D03*
X87528400Y-87628100D03*
G04 #@! TD*
D17*
G04 #@! TO.C,RN2*
X107810000Y-55900000D03*
D18*
X110350000Y-55900000D03*
X112890000Y-55900000D03*
X115430000Y-55900000D03*
X117970000Y-55900000D03*
X120510000Y-55900000D03*
X123050000Y-55900000D03*
X125590000Y-55900000D03*
X128130000Y-55900000D03*
G04 #@! TD*
D17*
G04 #@! TO.C,RN1*
X105470000Y-89900000D03*
D18*
X108010000Y-89900000D03*
X110550000Y-89900000D03*
X113090000Y-89900000D03*
X115630000Y-89900000D03*
X118170000Y-89900000D03*
X120710000Y-89900000D03*
X123250000Y-89900000D03*
X125790000Y-89900000D03*
G04 #@! TD*
D19*
G04 #@! TO.C,C1*
X100076000Y-58150800D03*
X100076000Y-56250800D03*
G04 #@! TD*
M02*
