G04 #@! TF.GenerationSoftware,KiCad,Pcbnew,7.0.8-7.0.8~ubuntu23.04.1*
G04 #@! TF.CreationDate,2023-10-29T22:49:28+00:00*
G04 #@! TF.ProjectId,2332 ROM Tester,32333332-2052-44f4-9d20-546573746572,1.0*
G04 #@! TF.SameCoordinates,Original*
G04 #@! TF.FileFunction,Soldermask,Bot*
G04 #@! TF.FilePolarity,Negative*
%FSLAX46Y46*%
G04 Gerber Fmt 4.6, Leading zero omitted, Abs format (unit mm)*
G04 Created by KiCad (PCBNEW 7.0.8-7.0.8~ubuntu23.04.1) date 2023-10-29 22:49:28*
%MOMM*%
%LPD*%
G01*
G04 APERTURE LIST*
%ADD10O,1.727200X1.727200*%
%ADD11C,1.727200*%
%ADD12C,1.530000*%
%ADD13C,2.000000*%
%ADD14R,1.600000X1.600000*%
%ADD15O,1.600000X1.600000*%
G04 APERTURE END LIST*
D10*
G04 #@! TO.C,A1*
X107700000Y-96330000D03*
X83316000Y-48070000D03*
X80776000Y-48070000D03*
X95000000Y-96330000D03*
X92460000Y-96330000D03*
D11*
X158500000Y-91250000D03*
X155960000Y-91250000D03*
X105160000Y-96330000D03*
X102620000Y-96330000D03*
X88396000Y-48070000D03*
D10*
X158500000Y-88710000D03*
X155960000Y-88710000D03*
X158500000Y-86170000D03*
X155960000Y-86170000D03*
X158500000Y-83630000D03*
X155960000Y-83630000D03*
X158500000Y-81090000D03*
X155960000Y-81090000D03*
X158500000Y-78550000D03*
X155960000Y-78550000D03*
X158500000Y-76010000D03*
X155960000Y-76010000D03*
X158500000Y-73470000D03*
X155960000Y-73470000D03*
X158500000Y-70930000D03*
X155960000Y-70930000D03*
X158500000Y-68390000D03*
X155960000Y-68390000D03*
X158500000Y-65850000D03*
X155960000Y-65850000D03*
X158500000Y-63310000D03*
X155960000Y-63310000D03*
X158500000Y-60770000D03*
X155960000Y-60770000D03*
X158500000Y-58230000D03*
X155960000Y-58230000D03*
X158500000Y-55690000D03*
X155960000Y-55690000D03*
X158500000Y-53150000D03*
X155960000Y-53150000D03*
X158500000Y-50610000D03*
X155960000Y-50610000D03*
X148340000Y-48070000D03*
X145800000Y-48070000D03*
X143260000Y-48070000D03*
X140720000Y-48070000D03*
X138180000Y-48070000D03*
X135640000Y-48070000D03*
X133100000Y-48070000D03*
X130560000Y-48070000D03*
X90936000Y-48070000D03*
X93476000Y-48070000D03*
X96016000Y-48070000D03*
X98556000Y-48070000D03*
X101096000Y-48070000D03*
X103636000Y-48070000D03*
X107700000Y-48070000D03*
X110240000Y-48070000D03*
X112780000Y-48070000D03*
X115320000Y-48070000D03*
X117860000Y-48070000D03*
X120400000Y-48070000D03*
X122940000Y-48070000D03*
X125480000Y-48070000D03*
X85856000Y-48070000D03*
X153420000Y-96330000D03*
X150880000Y-96330000D03*
X148340000Y-96330000D03*
X145800000Y-96330000D03*
X143260000Y-96330000D03*
X140720000Y-96330000D03*
X138180000Y-96330000D03*
X135640000Y-96330000D03*
X130560000Y-96330000D03*
X128020000Y-96330000D03*
X125480000Y-96330000D03*
X122940000Y-96330000D03*
X120400000Y-96330000D03*
X117860000Y-96330000D03*
X115320000Y-96330000D03*
X112780000Y-96330000D03*
X158500000Y-48070000D03*
X155960000Y-48070000D03*
X100080000Y-96330000D03*
X97540000Y-96330000D03*
X89920000Y-96330000D03*
G04 #@! TD*
D12*
G04 #@! TO.C,U1*
X107980000Y-80890000D03*
X110520000Y-80890000D03*
X113060000Y-80890000D03*
X115600000Y-80890000D03*
X118140000Y-80890000D03*
X120680000Y-80890000D03*
X123220000Y-80890000D03*
X125760000Y-80890000D03*
X128300000Y-80890000D03*
X130840000Y-80890000D03*
X133380000Y-80890000D03*
X135920000Y-80890000D03*
X135920000Y-65650000D03*
X133380000Y-65650000D03*
X130840000Y-65650000D03*
X128300000Y-65650000D03*
X125760000Y-65650000D03*
X123220000Y-65650000D03*
X120680000Y-65650000D03*
X118140000Y-65650000D03*
X115600000Y-65650000D03*
X113060000Y-65650000D03*
X110520000Y-65650000D03*
X107980000Y-65650000D03*
G04 #@! TD*
D13*
G04 #@! TO.C,SW1*
X90496800Y-62138800D03*
X83996800Y-62138800D03*
X90496800Y-57638800D03*
X83996800Y-57638800D03*
G04 #@! TD*
D14*
G04 #@! TO.C,RN2*
X107810000Y-55900000D03*
D15*
X110350000Y-55900000D03*
X112890000Y-55900000D03*
X115430000Y-55900000D03*
X117970000Y-55900000D03*
X120510000Y-55900000D03*
X123050000Y-55900000D03*
X125590000Y-55900000D03*
X128130000Y-55900000D03*
G04 #@! TD*
D14*
G04 #@! TO.C,RN1*
X105470000Y-89900000D03*
D15*
X108010000Y-89900000D03*
X110550000Y-89900000D03*
X113090000Y-89900000D03*
X115630000Y-89900000D03*
X118170000Y-89900000D03*
X120710000Y-89900000D03*
X123250000Y-89900000D03*
X125790000Y-89900000D03*
G04 #@! TD*
M02*
