G04 #@! TF.GenerationSoftware,KiCad,Pcbnew,7.0.8-7.0.8~ubuntu23.04.1*
G04 #@! TF.CreationDate,2023-10-29T22:49:27+00:00*
G04 #@! TF.ProjectId,2332 ROM Tester,32333332-2052-44f4-9d20-546573746572,1.0*
G04 #@! TF.SameCoordinates,Original*
G04 #@! TF.FileFunction,Legend,Bot*
G04 #@! TF.FilePolarity,Positive*
%FSLAX46Y46*%
G04 Gerber Fmt 4.6, Leading zero omitted, Abs format (unit mm)*
G04 Created by KiCad (PCBNEW 7.0.8-7.0.8~ubuntu23.04.1) date 2023-10-29 22:49:27*
%MOMM*%
%LPD*%
G01*
G04 APERTURE LIST*
%ADD10C,0.150000*%
G04 APERTURE END LIST*
D10*
X85667620Y-96796219D02*
X85667620Y-95796219D01*
X85667620Y-95796219D02*
X85286668Y-95796219D01*
X85286668Y-95796219D02*
X85191430Y-95843838D01*
X85191430Y-95843838D02*
X85143811Y-95891457D01*
X85143811Y-95891457D02*
X85096192Y-95986695D01*
X85096192Y-95986695D02*
X85096192Y-96129552D01*
X85096192Y-96129552D02*
X85143811Y-96224790D01*
X85143811Y-96224790D02*
X85191430Y-96272409D01*
X85191430Y-96272409D02*
X85286668Y-96320028D01*
X85286668Y-96320028D02*
X85667620Y-96320028D01*
X84096192Y-96700980D02*
X84143811Y-96748600D01*
X84143811Y-96748600D02*
X84286668Y-96796219D01*
X84286668Y-96796219D02*
X84381906Y-96796219D01*
X84381906Y-96796219D02*
X84524763Y-96748600D01*
X84524763Y-96748600D02*
X84620001Y-96653361D01*
X84620001Y-96653361D02*
X84667620Y-96558123D01*
X84667620Y-96558123D02*
X84715239Y-96367647D01*
X84715239Y-96367647D02*
X84715239Y-96224790D01*
X84715239Y-96224790D02*
X84667620Y-96034314D01*
X84667620Y-96034314D02*
X84620001Y-95939076D01*
X84620001Y-95939076D02*
X84524763Y-95843838D01*
X84524763Y-95843838D02*
X84381906Y-95796219D01*
X84381906Y-95796219D02*
X84286668Y-95796219D01*
X84286668Y-95796219D02*
X84143811Y-95843838D01*
X84143811Y-95843838D02*
X84096192Y-95891457D01*
X83334287Y-96272409D02*
X83191430Y-96320028D01*
X83191430Y-96320028D02*
X83143811Y-96367647D01*
X83143811Y-96367647D02*
X83096192Y-96462885D01*
X83096192Y-96462885D02*
X83096192Y-96605742D01*
X83096192Y-96605742D02*
X83143811Y-96700980D01*
X83143811Y-96700980D02*
X83191430Y-96748600D01*
X83191430Y-96748600D02*
X83286668Y-96796219D01*
X83286668Y-96796219D02*
X83667620Y-96796219D01*
X83667620Y-96796219D02*
X83667620Y-95796219D01*
X83667620Y-95796219D02*
X83334287Y-95796219D01*
X83334287Y-95796219D02*
X83239049Y-95843838D01*
X83239049Y-95843838D02*
X83191430Y-95891457D01*
X83191430Y-95891457D02*
X83143811Y-95986695D01*
X83143811Y-95986695D02*
X83143811Y-96081933D01*
X83143811Y-96081933D02*
X83191430Y-96177171D01*
X83191430Y-96177171D02*
X83239049Y-96224790D01*
X83239049Y-96224790D02*
X83334287Y-96272409D01*
X83334287Y-96272409D02*
X83667620Y-96272409D01*
X81381906Y-96796219D02*
X81953334Y-96796219D01*
X81667620Y-96796219D02*
X81667620Y-95796219D01*
X81667620Y-95796219D02*
X81762858Y-95939076D01*
X81762858Y-95939076D02*
X81858096Y-96034314D01*
X81858096Y-96034314D02*
X81953334Y-96081933D01*
X80953334Y-96700980D02*
X80905715Y-96748600D01*
X80905715Y-96748600D02*
X80953334Y-96796219D01*
X80953334Y-96796219D02*
X81000953Y-96748600D01*
X81000953Y-96748600D02*
X80953334Y-96700980D01*
X80953334Y-96700980D02*
X80953334Y-96796219D01*
X80286668Y-95796219D02*
X80191430Y-95796219D01*
X80191430Y-95796219D02*
X80096192Y-95843838D01*
X80096192Y-95843838D02*
X80048573Y-95891457D01*
X80048573Y-95891457D02*
X80000954Y-95986695D01*
X80000954Y-95986695D02*
X79953335Y-96177171D01*
X79953335Y-96177171D02*
X79953335Y-96415266D01*
X79953335Y-96415266D02*
X80000954Y-96605742D01*
X80000954Y-96605742D02*
X80048573Y-96700980D01*
X80048573Y-96700980D02*
X80096192Y-96748600D01*
X80096192Y-96748600D02*
X80191430Y-96796219D01*
X80191430Y-96796219D02*
X80286668Y-96796219D01*
X80286668Y-96796219D02*
X80381906Y-96748600D01*
X80381906Y-96748600D02*
X80429525Y-96700980D01*
X80429525Y-96700980D02*
X80477144Y-96605742D01*
X80477144Y-96605742D02*
X80524763Y-96415266D01*
X80524763Y-96415266D02*
X80524763Y-96177171D01*
X80524763Y-96177171D02*
X80477144Y-95986695D01*
X80477144Y-95986695D02*
X80429525Y-95891457D01*
X80429525Y-95891457D02*
X80381906Y-95843838D01*
X80381906Y-95843838D02*
X80286668Y-95796219D01*
X139879173Y-73849628D02*
X139879173Y-72349628D01*
X139236316Y-73849628D02*
X139236316Y-73063914D01*
X139236316Y-73063914D02*
X139307744Y-72921057D01*
X139307744Y-72921057D02*
X139450601Y-72849628D01*
X139450601Y-72849628D02*
X139664887Y-72849628D01*
X139664887Y-72849628D02*
X139807744Y-72921057D01*
X139807744Y-72921057D02*
X139879173Y-72992485D01*
X138736315Y-72849628D02*
X138164887Y-72849628D01*
X138522030Y-72349628D02*
X138522030Y-73635342D01*
X138522030Y-73635342D02*
X138450601Y-73778200D01*
X138450601Y-73778200D02*
X138307744Y-73849628D01*
X138307744Y-73849628D02*
X138164887Y-73849628D01*
X137879172Y-72849628D02*
X137307744Y-72849628D01*
X137664887Y-72349628D02*
X137664887Y-73635342D01*
X137664887Y-73635342D02*
X137593458Y-73778200D01*
X137593458Y-73778200D02*
X137450601Y-73849628D01*
X137450601Y-73849628D02*
X137307744Y-73849628D01*
X136807744Y-72849628D02*
X136807744Y-74349628D01*
X136807744Y-72921057D02*
X136664887Y-72849628D01*
X136664887Y-72849628D02*
X136379172Y-72849628D01*
X136379172Y-72849628D02*
X136236315Y-72921057D01*
X136236315Y-72921057D02*
X136164887Y-72992485D01*
X136164887Y-72992485D02*
X136093458Y-73135342D01*
X136093458Y-73135342D02*
X136093458Y-73563914D01*
X136093458Y-73563914D02*
X136164887Y-73706771D01*
X136164887Y-73706771D02*
X136236315Y-73778200D01*
X136236315Y-73778200D02*
X136379172Y-73849628D01*
X136379172Y-73849628D02*
X136664887Y-73849628D01*
X136664887Y-73849628D02*
X136807744Y-73778200D01*
X135522029Y-73778200D02*
X135379172Y-73849628D01*
X135379172Y-73849628D02*
X135093458Y-73849628D01*
X135093458Y-73849628D02*
X134950601Y-73778200D01*
X134950601Y-73778200D02*
X134879172Y-73635342D01*
X134879172Y-73635342D02*
X134879172Y-73563914D01*
X134879172Y-73563914D02*
X134950601Y-73421057D01*
X134950601Y-73421057D02*
X135093458Y-73349628D01*
X135093458Y-73349628D02*
X135307744Y-73349628D01*
X135307744Y-73349628D02*
X135450601Y-73278200D01*
X135450601Y-73278200D02*
X135522029Y-73135342D01*
X135522029Y-73135342D02*
X135522029Y-73063914D01*
X135522029Y-73063914D02*
X135450601Y-72921057D01*
X135450601Y-72921057D02*
X135307744Y-72849628D01*
X135307744Y-72849628D02*
X135093458Y-72849628D01*
X135093458Y-72849628D02*
X134950601Y-72921057D01*
X134236315Y-73706771D02*
X134164886Y-73778200D01*
X134164886Y-73778200D02*
X134236315Y-73849628D01*
X134236315Y-73849628D02*
X134307743Y-73778200D01*
X134307743Y-73778200D02*
X134236315Y-73706771D01*
X134236315Y-73706771D02*
X134236315Y-73849628D01*
X134236315Y-72921057D02*
X134164886Y-72992485D01*
X134164886Y-72992485D02*
X134236315Y-73063914D01*
X134236315Y-73063914D02*
X134307743Y-72992485D01*
X134307743Y-72992485D02*
X134236315Y-72921057D01*
X134236315Y-72921057D02*
X134236315Y-73063914D01*
X132450600Y-72278200D02*
X133736314Y-74206771D01*
X130879171Y-72278200D02*
X132164885Y-74206771D01*
X129736314Y-72849628D02*
X129736314Y-74063914D01*
X129736314Y-74063914D02*
X129807742Y-74206771D01*
X129807742Y-74206771D02*
X129879171Y-74278200D01*
X129879171Y-74278200D02*
X130022028Y-74349628D01*
X130022028Y-74349628D02*
X130236314Y-74349628D01*
X130236314Y-74349628D02*
X130379171Y-74278200D01*
X129736314Y-73778200D02*
X129879171Y-73849628D01*
X129879171Y-73849628D02*
X130164885Y-73849628D01*
X130164885Y-73849628D02*
X130307742Y-73778200D01*
X130307742Y-73778200D02*
X130379171Y-73706771D01*
X130379171Y-73706771D02*
X130450599Y-73563914D01*
X130450599Y-73563914D02*
X130450599Y-73135342D01*
X130450599Y-73135342D02*
X130379171Y-72992485D01*
X130379171Y-72992485D02*
X130307742Y-72921057D01*
X130307742Y-72921057D02*
X130164885Y-72849628D01*
X130164885Y-72849628D02*
X129879171Y-72849628D01*
X129879171Y-72849628D02*
X129736314Y-72921057D01*
X129022028Y-73849628D02*
X129022028Y-72849628D01*
X129022028Y-72349628D02*
X129093456Y-72421057D01*
X129093456Y-72421057D02*
X129022028Y-72492485D01*
X129022028Y-72492485D02*
X128950599Y-72421057D01*
X128950599Y-72421057D02*
X129022028Y-72349628D01*
X129022028Y-72349628D02*
X129022028Y-72492485D01*
X128522027Y-72849628D02*
X127950599Y-72849628D01*
X128307742Y-72349628D02*
X128307742Y-73635342D01*
X128307742Y-73635342D02*
X128236313Y-73778200D01*
X128236313Y-73778200D02*
X128093456Y-73849628D01*
X128093456Y-73849628D02*
X127950599Y-73849628D01*
X127450599Y-73849628D02*
X127450599Y-72349628D01*
X126807742Y-73849628D02*
X126807742Y-73063914D01*
X126807742Y-73063914D02*
X126879170Y-72921057D01*
X126879170Y-72921057D02*
X127022027Y-72849628D01*
X127022027Y-72849628D02*
X127236313Y-72849628D01*
X127236313Y-72849628D02*
X127379170Y-72921057D01*
X127379170Y-72921057D02*
X127450599Y-72992485D01*
X125450599Y-72849628D02*
X125450599Y-73849628D01*
X126093456Y-72849628D02*
X126093456Y-73635342D01*
X126093456Y-73635342D02*
X126022027Y-73778200D01*
X126022027Y-73778200D02*
X125879170Y-73849628D01*
X125879170Y-73849628D02*
X125664884Y-73849628D01*
X125664884Y-73849628D02*
X125522027Y-73778200D01*
X125522027Y-73778200D02*
X125450599Y-73706771D01*
X124736313Y-73849628D02*
X124736313Y-72349628D01*
X124736313Y-72921057D02*
X124593456Y-72849628D01*
X124593456Y-72849628D02*
X124307741Y-72849628D01*
X124307741Y-72849628D02*
X124164884Y-72921057D01*
X124164884Y-72921057D02*
X124093456Y-72992485D01*
X124093456Y-72992485D02*
X124022027Y-73135342D01*
X124022027Y-73135342D02*
X124022027Y-73563914D01*
X124022027Y-73563914D02*
X124093456Y-73706771D01*
X124093456Y-73706771D02*
X124164884Y-73778200D01*
X124164884Y-73778200D02*
X124307741Y-73849628D01*
X124307741Y-73849628D02*
X124593456Y-73849628D01*
X124593456Y-73849628D02*
X124736313Y-73778200D01*
X123379170Y-73706771D02*
X123307741Y-73778200D01*
X123307741Y-73778200D02*
X123379170Y-73849628D01*
X123379170Y-73849628D02*
X123450598Y-73778200D01*
X123450598Y-73778200D02*
X123379170Y-73706771D01*
X123379170Y-73706771D02*
X123379170Y-73849628D01*
X122022027Y-73778200D02*
X122164884Y-73849628D01*
X122164884Y-73849628D02*
X122450598Y-73849628D01*
X122450598Y-73849628D02*
X122593455Y-73778200D01*
X122593455Y-73778200D02*
X122664884Y-73706771D01*
X122664884Y-73706771D02*
X122736312Y-73563914D01*
X122736312Y-73563914D02*
X122736312Y-73135342D01*
X122736312Y-73135342D02*
X122664884Y-72992485D01*
X122664884Y-72992485D02*
X122593455Y-72921057D01*
X122593455Y-72921057D02*
X122450598Y-72849628D01*
X122450598Y-72849628D02*
X122164884Y-72849628D01*
X122164884Y-72849628D02*
X122022027Y-72921057D01*
X121164884Y-73849628D02*
X121307741Y-73778200D01*
X121307741Y-73778200D02*
X121379170Y-73706771D01*
X121379170Y-73706771D02*
X121450598Y-73563914D01*
X121450598Y-73563914D02*
X121450598Y-73135342D01*
X121450598Y-73135342D02*
X121379170Y-72992485D01*
X121379170Y-72992485D02*
X121307741Y-72921057D01*
X121307741Y-72921057D02*
X121164884Y-72849628D01*
X121164884Y-72849628D02*
X120950598Y-72849628D01*
X120950598Y-72849628D02*
X120807741Y-72921057D01*
X120807741Y-72921057D02*
X120736313Y-72992485D01*
X120736313Y-72992485D02*
X120664884Y-73135342D01*
X120664884Y-73135342D02*
X120664884Y-73563914D01*
X120664884Y-73563914D02*
X120736313Y-73706771D01*
X120736313Y-73706771D02*
X120807741Y-73778200D01*
X120807741Y-73778200D02*
X120950598Y-73849628D01*
X120950598Y-73849628D02*
X121164884Y-73849628D01*
X120022027Y-73849628D02*
X120022027Y-72849628D01*
X120022027Y-72992485D02*
X119950598Y-72921057D01*
X119950598Y-72921057D02*
X119807741Y-72849628D01*
X119807741Y-72849628D02*
X119593455Y-72849628D01*
X119593455Y-72849628D02*
X119450598Y-72921057D01*
X119450598Y-72921057D02*
X119379170Y-73063914D01*
X119379170Y-73063914D02*
X119379170Y-73849628D01*
X119379170Y-73063914D02*
X119307741Y-72921057D01*
X119307741Y-72921057D02*
X119164884Y-72849628D01*
X119164884Y-72849628D02*
X118950598Y-72849628D01*
X118950598Y-72849628D02*
X118807741Y-72921057D01*
X118807741Y-72921057D02*
X118736312Y-73063914D01*
X118736312Y-73063914D02*
X118736312Y-73849628D01*
X116950598Y-72278200D02*
X118236312Y-74206771D01*
X116450598Y-73849628D02*
X116450598Y-72349628D01*
X116450598Y-72349628D02*
X115950598Y-73421057D01*
X115950598Y-73421057D02*
X115450598Y-72349628D01*
X115450598Y-72349628D02*
X115450598Y-73849628D01*
X114879169Y-72849628D02*
X114522026Y-73849628D01*
X114164883Y-72849628D02*
X114522026Y-73849628D01*
X114522026Y-73849628D02*
X114664883Y-74206771D01*
X114664883Y-74206771D02*
X114736312Y-74278200D01*
X114736312Y-74278200D02*
X114879169Y-74349628D01*
X112736312Y-73849628D02*
X113236312Y-73135342D01*
X113593455Y-73849628D02*
X113593455Y-72349628D01*
X113593455Y-72349628D02*
X113022026Y-72349628D01*
X113022026Y-72349628D02*
X112879169Y-72421057D01*
X112879169Y-72421057D02*
X112807740Y-72492485D01*
X112807740Y-72492485D02*
X112736312Y-72635342D01*
X112736312Y-72635342D02*
X112736312Y-72849628D01*
X112736312Y-72849628D02*
X112807740Y-72992485D01*
X112807740Y-72992485D02*
X112879169Y-73063914D01*
X112879169Y-73063914D02*
X113022026Y-73135342D01*
X113022026Y-73135342D02*
X113593455Y-73135342D01*
X111522026Y-73778200D02*
X111664883Y-73849628D01*
X111664883Y-73849628D02*
X111950598Y-73849628D01*
X111950598Y-73849628D02*
X112093455Y-73778200D01*
X112093455Y-73778200D02*
X112164883Y-73635342D01*
X112164883Y-73635342D02*
X112164883Y-73063914D01*
X112164883Y-73063914D02*
X112093455Y-72921057D01*
X112093455Y-72921057D02*
X111950598Y-72849628D01*
X111950598Y-72849628D02*
X111664883Y-72849628D01*
X111664883Y-72849628D02*
X111522026Y-72921057D01*
X111522026Y-72921057D02*
X111450598Y-73063914D01*
X111450598Y-73063914D02*
X111450598Y-73206771D01*
X111450598Y-73206771D02*
X112164883Y-73349628D01*
X111022026Y-72849628D02*
X110450598Y-72849628D01*
X110807741Y-72349628D02*
X110807741Y-73635342D01*
X110807741Y-73635342D02*
X110736312Y-73778200D01*
X110736312Y-73778200D02*
X110593455Y-73849628D01*
X110593455Y-73849628D02*
X110450598Y-73849628D01*
X109950598Y-73849628D02*
X109950598Y-72849628D01*
X109950598Y-73135342D02*
X109879169Y-72992485D01*
X109879169Y-72992485D02*
X109807741Y-72921057D01*
X109807741Y-72921057D02*
X109664883Y-72849628D01*
X109664883Y-72849628D02*
X109522026Y-72849628D01*
X108807741Y-73849628D02*
X108950598Y-73778200D01*
X108950598Y-73778200D02*
X109022027Y-73706771D01*
X109022027Y-73706771D02*
X109093455Y-73563914D01*
X109093455Y-73563914D02*
X109093455Y-73135342D01*
X109093455Y-73135342D02*
X109022027Y-72992485D01*
X109022027Y-72992485D02*
X108950598Y-72921057D01*
X108950598Y-72921057D02*
X108807741Y-72849628D01*
X108807741Y-72849628D02*
X108593455Y-72849628D01*
X108593455Y-72849628D02*
X108450598Y-72921057D01*
X108450598Y-72921057D02*
X108379170Y-72992485D01*
X108379170Y-72992485D02*
X108307741Y-73135342D01*
X108307741Y-73135342D02*
X108307741Y-73563914D01*
X108307741Y-73563914D02*
X108379170Y-73706771D01*
X108379170Y-73706771D02*
X108450598Y-73778200D01*
X108450598Y-73778200D02*
X108593455Y-73849628D01*
X108593455Y-73849628D02*
X108807741Y-73849628D01*
X107736312Y-73778200D02*
X107522027Y-73849628D01*
X107522027Y-73849628D02*
X107164884Y-73849628D01*
X107164884Y-73849628D02*
X107022027Y-73778200D01*
X107022027Y-73778200D02*
X106950598Y-73706771D01*
X106950598Y-73706771D02*
X106879169Y-73563914D01*
X106879169Y-73563914D02*
X106879169Y-73421057D01*
X106879169Y-73421057D02*
X106950598Y-73278200D01*
X106950598Y-73278200D02*
X107022027Y-73206771D01*
X107022027Y-73206771D02*
X107164884Y-73135342D01*
X107164884Y-73135342D02*
X107450598Y-73063914D01*
X107450598Y-73063914D02*
X107593455Y-72992485D01*
X107593455Y-72992485D02*
X107664884Y-72921057D01*
X107664884Y-72921057D02*
X107736312Y-72778200D01*
X107736312Y-72778200D02*
X107736312Y-72635342D01*
X107736312Y-72635342D02*
X107664884Y-72492485D01*
X107664884Y-72492485D02*
X107593455Y-72421057D01*
X107593455Y-72421057D02*
X107450598Y-72349628D01*
X107450598Y-72349628D02*
X107093455Y-72349628D01*
X107093455Y-72349628D02*
X106879169Y-72421057D01*
X106450598Y-72849628D02*
X105879170Y-72849628D01*
X106236313Y-72349628D02*
X106236313Y-73635342D01*
X106236313Y-73635342D02*
X106164884Y-73778200D01*
X106164884Y-73778200D02*
X106022027Y-73849628D01*
X106022027Y-73849628D02*
X105879170Y-73849628D01*
X105164884Y-73849628D02*
X105307741Y-73778200D01*
X105307741Y-73778200D02*
X105379170Y-73706771D01*
X105379170Y-73706771D02*
X105450598Y-73563914D01*
X105450598Y-73563914D02*
X105450598Y-73135342D01*
X105450598Y-73135342D02*
X105379170Y-72992485D01*
X105379170Y-72992485D02*
X105307741Y-72921057D01*
X105307741Y-72921057D02*
X105164884Y-72849628D01*
X105164884Y-72849628D02*
X104950598Y-72849628D01*
X104950598Y-72849628D02*
X104807741Y-72921057D01*
X104807741Y-72921057D02*
X104736313Y-72992485D01*
X104736313Y-72992485D02*
X104664884Y-73135342D01*
X104664884Y-73135342D02*
X104664884Y-73563914D01*
X104664884Y-73563914D02*
X104736313Y-73706771D01*
X104736313Y-73706771D02*
X104807741Y-73778200D01*
X104807741Y-73778200D02*
X104950598Y-73849628D01*
X104950598Y-73849628D02*
X105164884Y-73849628D01*
X104022027Y-73849628D02*
X104022027Y-72849628D01*
X104022027Y-73135342D02*
X103950598Y-72992485D01*
X103950598Y-72992485D02*
X103879170Y-72921057D01*
X103879170Y-72921057D02*
X103736312Y-72849628D01*
X103736312Y-72849628D02*
X103593455Y-72849628D01*
X102522027Y-73778200D02*
X102664884Y-73849628D01*
X102664884Y-73849628D02*
X102950599Y-73849628D01*
X102950599Y-73849628D02*
X103093456Y-73778200D01*
X103093456Y-73778200D02*
X103164884Y-73635342D01*
X103164884Y-73635342D02*
X103164884Y-73063914D01*
X103164884Y-73063914D02*
X103093456Y-72921057D01*
X103093456Y-72921057D02*
X102950599Y-72849628D01*
X102950599Y-72849628D02*
X102664884Y-72849628D01*
X102664884Y-72849628D02*
X102522027Y-72921057D01*
X102522027Y-72921057D02*
X102450599Y-73063914D01*
X102450599Y-73063914D02*
X102450599Y-73206771D01*
X102450599Y-73206771D02*
X103164884Y-73349628D01*
X100736313Y-72278200D02*
X102022027Y-74206771D01*
X99379170Y-73849628D02*
X99879170Y-73135342D01*
X100236313Y-73849628D02*
X100236313Y-72349628D01*
X100236313Y-72349628D02*
X99664884Y-72349628D01*
X99664884Y-72349628D02*
X99522027Y-72421057D01*
X99522027Y-72421057D02*
X99450598Y-72492485D01*
X99450598Y-72492485D02*
X99379170Y-72635342D01*
X99379170Y-72635342D02*
X99379170Y-72849628D01*
X99379170Y-72849628D02*
X99450598Y-72992485D01*
X99450598Y-72992485D02*
X99522027Y-73063914D01*
X99522027Y-73063914D02*
X99664884Y-73135342D01*
X99664884Y-73135342D02*
X100236313Y-73135342D01*
X98164884Y-73778200D02*
X98307741Y-73849628D01*
X98307741Y-73849628D02*
X98593456Y-73849628D01*
X98593456Y-73849628D02*
X98736313Y-73778200D01*
X98736313Y-73778200D02*
X98807741Y-73635342D01*
X98807741Y-73635342D02*
X98807741Y-73063914D01*
X98807741Y-73063914D02*
X98736313Y-72921057D01*
X98736313Y-72921057D02*
X98593456Y-72849628D01*
X98593456Y-72849628D02*
X98307741Y-72849628D01*
X98307741Y-72849628D02*
X98164884Y-72921057D01*
X98164884Y-72921057D02*
X98093456Y-73063914D01*
X98093456Y-73063914D02*
X98093456Y-73206771D01*
X98093456Y-73206771D02*
X98807741Y-73349628D01*
X97664884Y-72849628D02*
X97093456Y-72849628D01*
X97450599Y-72349628D02*
X97450599Y-73635342D01*
X97450599Y-73635342D02*
X97379170Y-73778200D01*
X97379170Y-73778200D02*
X97236313Y-73849628D01*
X97236313Y-73849628D02*
X97093456Y-73849628D01*
X96593456Y-73849628D02*
X96593456Y-72849628D01*
X96593456Y-73135342D02*
X96522027Y-72992485D01*
X96522027Y-72992485D02*
X96450599Y-72921057D01*
X96450599Y-72921057D02*
X96307741Y-72849628D01*
X96307741Y-72849628D02*
X96164884Y-72849628D01*
X95450599Y-73849628D02*
X95593456Y-73778200D01*
X95593456Y-73778200D02*
X95664885Y-73706771D01*
X95664885Y-73706771D02*
X95736313Y-73563914D01*
X95736313Y-73563914D02*
X95736313Y-73135342D01*
X95736313Y-73135342D02*
X95664885Y-72992485D01*
X95664885Y-72992485D02*
X95593456Y-72921057D01*
X95593456Y-72921057D02*
X95450599Y-72849628D01*
X95450599Y-72849628D02*
X95236313Y-72849628D01*
X95236313Y-72849628D02*
X95093456Y-72921057D01*
X95093456Y-72921057D02*
X95022028Y-72992485D01*
X95022028Y-72992485D02*
X94950599Y-73135342D01*
X94950599Y-73135342D02*
X94950599Y-73563914D01*
X94950599Y-73563914D02*
X95022028Y-73706771D01*
X95022028Y-73706771D02*
X95093456Y-73778200D01*
X95093456Y-73778200D02*
X95236313Y-73849628D01*
X95236313Y-73849628D02*
X95450599Y-73849628D01*
X93450599Y-73849628D02*
X93950599Y-73135342D01*
X94307742Y-73849628D02*
X94307742Y-72349628D01*
X94307742Y-72349628D02*
X93736313Y-72349628D01*
X93736313Y-72349628D02*
X93593456Y-72421057D01*
X93593456Y-72421057D02*
X93522027Y-72492485D01*
X93522027Y-72492485D02*
X93450599Y-72635342D01*
X93450599Y-72635342D02*
X93450599Y-72849628D01*
X93450599Y-72849628D02*
X93522027Y-72992485D01*
X93522027Y-72992485D02*
X93593456Y-73063914D01*
X93593456Y-73063914D02*
X93736313Y-73135342D01*
X93736313Y-73135342D02*
X94307742Y-73135342D01*
X92593456Y-73849628D02*
X92736313Y-73778200D01*
X92736313Y-73778200D02*
X92807742Y-73706771D01*
X92807742Y-73706771D02*
X92879170Y-73563914D01*
X92879170Y-73563914D02*
X92879170Y-73135342D01*
X92879170Y-73135342D02*
X92807742Y-72992485D01*
X92807742Y-72992485D02*
X92736313Y-72921057D01*
X92736313Y-72921057D02*
X92593456Y-72849628D01*
X92593456Y-72849628D02*
X92379170Y-72849628D01*
X92379170Y-72849628D02*
X92236313Y-72921057D01*
X92236313Y-72921057D02*
X92164885Y-72992485D01*
X92164885Y-72992485D02*
X92093456Y-73135342D01*
X92093456Y-73135342D02*
X92093456Y-73563914D01*
X92093456Y-73563914D02*
X92164885Y-73706771D01*
X92164885Y-73706771D02*
X92236313Y-73778200D01*
X92236313Y-73778200D02*
X92379170Y-73849628D01*
X92379170Y-73849628D02*
X92593456Y-73849628D01*
X91450599Y-73849628D02*
X91450599Y-72849628D01*
X91450599Y-72992485D02*
X91379170Y-72921057D01*
X91379170Y-72921057D02*
X91236313Y-72849628D01*
X91236313Y-72849628D02*
X91022027Y-72849628D01*
X91022027Y-72849628D02*
X90879170Y-72921057D01*
X90879170Y-72921057D02*
X90807742Y-73063914D01*
X90807742Y-73063914D02*
X90807742Y-73849628D01*
X90807742Y-73063914D02*
X90736313Y-72921057D01*
X90736313Y-72921057D02*
X90593456Y-72849628D01*
X90593456Y-72849628D02*
X90379170Y-72849628D01*
X90379170Y-72849628D02*
X90236313Y-72921057D01*
X90236313Y-72921057D02*
X90164884Y-73063914D01*
X90164884Y-73063914D02*
X90164884Y-73849628D01*
X89664884Y-72349628D02*
X88807742Y-72349628D01*
X89236313Y-73849628D02*
X89236313Y-72349628D01*
X87736313Y-73778200D02*
X87879170Y-73849628D01*
X87879170Y-73849628D02*
X88164885Y-73849628D01*
X88164885Y-73849628D02*
X88307742Y-73778200D01*
X88307742Y-73778200D02*
X88379170Y-73635342D01*
X88379170Y-73635342D02*
X88379170Y-73063914D01*
X88379170Y-73063914D02*
X88307742Y-72921057D01*
X88307742Y-72921057D02*
X88164885Y-72849628D01*
X88164885Y-72849628D02*
X87879170Y-72849628D01*
X87879170Y-72849628D02*
X87736313Y-72921057D01*
X87736313Y-72921057D02*
X87664885Y-73063914D01*
X87664885Y-73063914D02*
X87664885Y-73206771D01*
X87664885Y-73206771D02*
X88379170Y-73349628D01*
X87093456Y-73778200D02*
X86950599Y-73849628D01*
X86950599Y-73849628D02*
X86664885Y-73849628D01*
X86664885Y-73849628D02*
X86522028Y-73778200D01*
X86522028Y-73778200D02*
X86450599Y-73635342D01*
X86450599Y-73635342D02*
X86450599Y-73563914D01*
X86450599Y-73563914D02*
X86522028Y-73421057D01*
X86522028Y-73421057D02*
X86664885Y-73349628D01*
X86664885Y-73349628D02*
X86879171Y-73349628D01*
X86879171Y-73349628D02*
X87022028Y-73278200D01*
X87022028Y-73278200D02*
X87093456Y-73135342D01*
X87093456Y-73135342D02*
X87093456Y-73063914D01*
X87093456Y-73063914D02*
X87022028Y-72921057D01*
X87022028Y-72921057D02*
X86879171Y-72849628D01*
X86879171Y-72849628D02*
X86664885Y-72849628D01*
X86664885Y-72849628D02*
X86522028Y-72921057D01*
X86022027Y-72849628D02*
X85450599Y-72849628D01*
X85807742Y-72349628D02*
X85807742Y-73635342D01*
X85807742Y-73635342D02*
X85736313Y-73778200D01*
X85736313Y-73778200D02*
X85593456Y-73849628D01*
X85593456Y-73849628D02*
X85450599Y-73849628D01*
X84379170Y-73778200D02*
X84522027Y-73849628D01*
X84522027Y-73849628D02*
X84807742Y-73849628D01*
X84807742Y-73849628D02*
X84950599Y-73778200D01*
X84950599Y-73778200D02*
X85022027Y-73635342D01*
X85022027Y-73635342D02*
X85022027Y-73063914D01*
X85022027Y-73063914D02*
X84950599Y-72921057D01*
X84950599Y-72921057D02*
X84807742Y-72849628D01*
X84807742Y-72849628D02*
X84522027Y-72849628D01*
X84522027Y-72849628D02*
X84379170Y-72921057D01*
X84379170Y-72921057D02*
X84307742Y-73063914D01*
X84307742Y-73063914D02*
X84307742Y-73206771D01*
X84307742Y-73206771D02*
X85022027Y-73349628D01*
X83664885Y-73849628D02*
X83664885Y-72849628D01*
X83664885Y-73135342D02*
X83593456Y-72992485D01*
X83593456Y-72992485D02*
X83522028Y-72921057D01*
X83522028Y-72921057D02*
X83379170Y-72849628D01*
X83379170Y-72849628D02*
X83236313Y-72849628D01*
X124464000Y-67225580D02*
X124511619Y-67273200D01*
X124511619Y-67273200D02*
X124464000Y-67320819D01*
X124464000Y-67320819D02*
X124416381Y-67273200D01*
X124416381Y-67273200D02*
X124464000Y-67225580D01*
X124464000Y-67225580D02*
X124464000Y-67320819D01*
M02*
