G04 #@! TF.GenerationSoftware,KiCad,Pcbnew,7.0.8-7.0.8~ubuntu23.04.1*
G04 #@! TF.CreationDate,2023-10-29T22:49:27+00:00*
G04 #@! TF.ProjectId,2332 ROM Tester,32333332-2052-44f4-9d20-546573746572,1.0*
G04 #@! TF.SameCoordinates,Original*
G04 #@! TF.FileFunction,Legend,Top*
G04 #@! TF.FilePolarity,Positive*
%FSLAX46Y46*%
G04 Gerber Fmt 4.6, Leading zero omitted, Abs format (unit mm)*
G04 Created by KiCad (PCBNEW 7.0.8-7.0.8~ubuntu23.04.1) date 2023-10-29 22:49:27*
%MOMM*%
%LPD*%
G01*
G04 APERTURE LIST*
%ADD10C,0.150000*%
%ADD11C,0.187500*%
%ADD12C,0.254000*%
%ADD13C,0.120000*%
G04 APERTURE END LIST*
D10*
X93421200Y-69850000D02*
X93421200Y-78740000D01*
X80721200Y-74295000D02*
X93421200Y-74295000D01*
X80578800Y-52958800D02*
X93786800Y-52958800D01*
X93786800Y-52958800D02*
X93786800Y-64896800D01*
X93786800Y-64896800D02*
X80578800Y-64896800D01*
X80578800Y-64896800D02*
X80578800Y-52958800D01*
X93421200Y-78740000D02*
X80721200Y-78740000D01*
X80721200Y-69850000D02*
X93421200Y-69850000D01*
X80721200Y-78740000D02*
X80721200Y-69850000D01*
D11*
X85234440Y-55445478D02*
X84734440Y-54731192D01*
X84377297Y-55445478D02*
X84377297Y-53945478D01*
X84377297Y-53945478D02*
X84948726Y-53945478D01*
X84948726Y-53945478D02*
X85091583Y-54016907D01*
X85091583Y-54016907D02*
X85163012Y-54088335D01*
X85163012Y-54088335D02*
X85234440Y-54231192D01*
X85234440Y-54231192D02*
X85234440Y-54445478D01*
X85234440Y-54445478D02*
X85163012Y-54588335D01*
X85163012Y-54588335D02*
X85091583Y-54659764D01*
X85091583Y-54659764D02*
X84948726Y-54731192D01*
X84948726Y-54731192D02*
X84377297Y-54731192D01*
X85877297Y-54659764D02*
X86377297Y-54659764D01*
X86591583Y-55445478D02*
X85877297Y-55445478D01*
X85877297Y-55445478D02*
X85877297Y-53945478D01*
X85877297Y-53945478D02*
X86591583Y-53945478D01*
X87163012Y-55374050D02*
X87377298Y-55445478D01*
X87377298Y-55445478D02*
X87734440Y-55445478D01*
X87734440Y-55445478D02*
X87877298Y-55374050D01*
X87877298Y-55374050D02*
X87948726Y-55302621D01*
X87948726Y-55302621D02*
X88020155Y-55159764D01*
X88020155Y-55159764D02*
X88020155Y-55016907D01*
X88020155Y-55016907D02*
X87948726Y-54874050D01*
X87948726Y-54874050D02*
X87877298Y-54802621D01*
X87877298Y-54802621D02*
X87734440Y-54731192D01*
X87734440Y-54731192D02*
X87448726Y-54659764D01*
X87448726Y-54659764D02*
X87305869Y-54588335D01*
X87305869Y-54588335D02*
X87234440Y-54516907D01*
X87234440Y-54516907D02*
X87163012Y-54374050D01*
X87163012Y-54374050D02*
X87163012Y-54231192D01*
X87163012Y-54231192D02*
X87234440Y-54088335D01*
X87234440Y-54088335D02*
X87305869Y-54016907D01*
X87305869Y-54016907D02*
X87448726Y-53945478D01*
X87448726Y-53945478D02*
X87805869Y-53945478D01*
X87805869Y-53945478D02*
X88020155Y-54016907D01*
X88663011Y-54659764D02*
X89163011Y-54659764D01*
X89377297Y-55445478D02*
X88663011Y-55445478D01*
X88663011Y-55445478D02*
X88663011Y-53945478D01*
X88663011Y-53945478D02*
X89377297Y-53945478D01*
X89805869Y-53945478D02*
X90663012Y-53945478D01*
X90234440Y-55445478D02*
X90234440Y-53945478D01*
X101259602Y-52729888D02*
X100592935Y-51777507D01*
X100116745Y-52729888D02*
X100116745Y-50729888D01*
X100116745Y-50729888D02*
X100878650Y-50729888D01*
X100878650Y-50729888D02*
X101069126Y-50825126D01*
X101069126Y-50825126D02*
X101164364Y-50920364D01*
X101164364Y-50920364D02*
X101259602Y-51110840D01*
X101259602Y-51110840D02*
X101259602Y-51396554D01*
X101259602Y-51396554D02*
X101164364Y-51587030D01*
X101164364Y-51587030D02*
X101069126Y-51682269D01*
X101069126Y-51682269D02*
X100878650Y-51777507D01*
X100878650Y-51777507D02*
X100116745Y-51777507D01*
X102878650Y-52634650D02*
X102688174Y-52729888D01*
X102688174Y-52729888D02*
X102307221Y-52729888D01*
X102307221Y-52729888D02*
X102116745Y-52634650D01*
X102116745Y-52634650D02*
X102021507Y-52444173D01*
X102021507Y-52444173D02*
X102021507Y-51682269D01*
X102021507Y-51682269D02*
X102116745Y-51491792D01*
X102116745Y-51491792D02*
X102307221Y-51396554D01*
X102307221Y-51396554D02*
X102688174Y-51396554D01*
X102688174Y-51396554D02*
X102878650Y-51491792D01*
X102878650Y-51491792D02*
X102973888Y-51682269D01*
X102973888Y-51682269D02*
X102973888Y-51872745D01*
X102973888Y-51872745D02*
X102021507Y-52063221D01*
X103545317Y-51396554D02*
X104307221Y-51396554D01*
X103831031Y-50729888D02*
X103831031Y-52444173D01*
X103831031Y-52444173D02*
X103926269Y-52634650D01*
X103926269Y-52634650D02*
X104116745Y-52729888D01*
X104116745Y-52729888D02*
X104307221Y-52729888D01*
X104973888Y-52729888D02*
X104973888Y-51396554D01*
X104973888Y-51777507D02*
X105069126Y-51587030D01*
X105069126Y-51587030D02*
X105164364Y-51491792D01*
X105164364Y-51491792D02*
X105354840Y-51396554D01*
X105354840Y-51396554D02*
X105545317Y-51396554D01*
X106497697Y-52729888D02*
X106307221Y-52634650D01*
X106307221Y-52634650D02*
X106211983Y-52539411D01*
X106211983Y-52539411D02*
X106116745Y-52348935D01*
X106116745Y-52348935D02*
X106116745Y-51777507D01*
X106116745Y-51777507D02*
X106211983Y-51587030D01*
X106211983Y-51587030D02*
X106307221Y-51491792D01*
X106307221Y-51491792D02*
X106497697Y-51396554D01*
X106497697Y-51396554D02*
X106783412Y-51396554D01*
X106783412Y-51396554D02*
X106973888Y-51491792D01*
X106973888Y-51491792D02*
X107069126Y-51587030D01*
X107069126Y-51587030D02*
X107164364Y-51777507D01*
X107164364Y-51777507D02*
X107164364Y-52348935D01*
X107164364Y-52348935D02*
X107069126Y-52539411D01*
X107069126Y-52539411D02*
X106973888Y-52634650D01*
X106973888Y-52634650D02*
X106783412Y-52729888D01*
X106783412Y-52729888D02*
X106497697Y-52729888D01*
X110688174Y-52729888D02*
X110021507Y-51777507D01*
X109545317Y-52729888D02*
X109545317Y-50729888D01*
X109545317Y-50729888D02*
X110307222Y-50729888D01*
X110307222Y-50729888D02*
X110497698Y-50825126D01*
X110497698Y-50825126D02*
X110592936Y-50920364D01*
X110592936Y-50920364D02*
X110688174Y-51110840D01*
X110688174Y-51110840D02*
X110688174Y-51396554D01*
X110688174Y-51396554D02*
X110592936Y-51587030D01*
X110592936Y-51587030D02*
X110497698Y-51682269D01*
X110497698Y-51682269D02*
X110307222Y-51777507D01*
X110307222Y-51777507D02*
X109545317Y-51777507D01*
X111926269Y-50729888D02*
X112307222Y-50729888D01*
X112307222Y-50729888D02*
X112497698Y-50825126D01*
X112497698Y-50825126D02*
X112688174Y-51015602D01*
X112688174Y-51015602D02*
X112783412Y-51396554D01*
X112783412Y-51396554D02*
X112783412Y-52063221D01*
X112783412Y-52063221D02*
X112688174Y-52444173D01*
X112688174Y-52444173D02*
X112497698Y-52634650D01*
X112497698Y-52634650D02*
X112307222Y-52729888D01*
X112307222Y-52729888D02*
X111926269Y-52729888D01*
X111926269Y-52729888D02*
X111735793Y-52634650D01*
X111735793Y-52634650D02*
X111545317Y-52444173D01*
X111545317Y-52444173D02*
X111450079Y-52063221D01*
X111450079Y-52063221D02*
X111450079Y-51396554D01*
X111450079Y-51396554D02*
X111545317Y-51015602D01*
X111545317Y-51015602D02*
X111735793Y-50825126D01*
X111735793Y-50825126D02*
X111926269Y-50729888D01*
X113640555Y-52729888D02*
X113640555Y-50729888D01*
X113640555Y-50729888D02*
X114307222Y-52158459D01*
X114307222Y-52158459D02*
X114973888Y-50729888D01*
X114973888Y-50729888D02*
X114973888Y-52729888D01*
X117164365Y-50729888D02*
X118307222Y-50729888D01*
X117735793Y-52729888D02*
X117735793Y-50729888D01*
X119735794Y-52634650D02*
X119545318Y-52729888D01*
X119545318Y-52729888D02*
X119164365Y-52729888D01*
X119164365Y-52729888D02*
X118973889Y-52634650D01*
X118973889Y-52634650D02*
X118878651Y-52444173D01*
X118878651Y-52444173D02*
X118878651Y-51682269D01*
X118878651Y-51682269D02*
X118973889Y-51491792D01*
X118973889Y-51491792D02*
X119164365Y-51396554D01*
X119164365Y-51396554D02*
X119545318Y-51396554D01*
X119545318Y-51396554D02*
X119735794Y-51491792D01*
X119735794Y-51491792D02*
X119831032Y-51682269D01*
X119831032Y-51682269D02*
X119831032Y-51872745D01*
X119831032Y-51872745D02*
X118878651Y-52063221D01*
X120592937Y-52634650D02*
X120783413Y-52729888D01*
X120783413Y-52729888D02*
X121164365Y-52729888D01*
X121164365Y-52729888D02*
X121354842Y-52634650D01*
X121354842Y-52634650D02*
X121450080Y-52444173D01*
X121450080Y-52444173D02*
X121450080Y-52348935D01*
X121450080Y-52348935D02*
X121354842Y-52158459D01*
X121354842Y-52158459D02*
X121164365Y-52063221D01*
X121164365Y-52063221D02*
X120878651Y-52063221D01*
X120878651Y-52063221D02*
X120688175Y-51967983D01*
X120688175Y-51967983D02*
X120592937Y-51777507D01*
X120592937Y-51777507D02*
X120592937Y-51682269D01*
X120592937Y-51682269D02*
X120688175Y-51491792D01*
X120688175Y-51491792D02*
X120878651Y-51396554D01*
X120878651Y-51396554D02*
X121164365Y-51396554D01*
X121164365Y-51396554D02*
X121354842Y-51491792D01*
X122021509Y-51396554D02*
X122783413Y-51396554D01*
X122307223Y-50729888D02*
X122307223Y-52444173D01*
X122307223Y-52444173D02*
X122402461Y-52634650D01*
X122402461Y-52634650D02*
X122592937Y-52729888D01*
X122592937Y-52729888D02*
X122783413Y-52729888D01*
X124211985Y-52634650D02*
X124021509Y-52729888D01*
X124021509Y-52729888D02*
X123640556Y-52729888D01*
X123640556Y-52729888D02*
X123450080Y-52634650D01*
X123450080Y-52634650D02*
X123354842Y-52444173D01*
X123354842Y-52444173D02*
X123354842Y-51682269D01*
X123354842Y-51682269D02*
X123450080Y-51491792D01*
X123450080Y-51491792D02*
X123640556Y-51396554D01*
X123640556Y-51396554D02*
X124021509Y-51396554D01*
X124021509Y-51396554D02*
X124211985Y-51491792D01*
X124211985Y-51491792D02*
X124307223Y-51682269D01*
X124307223Y-51682269D02*
X124307223Y-51872745D01*
X124307223Y-51872745D02*
X123354842Y-52063221D01*
X125164366Y-52729888D02*
X125164366Y-51396554D01*
X125164366Y-51777507D02*
X125259604Y-51587030D01*
X125259604Y-51587030D02*
X125354842Y-51491792D01*
X125354842Y-51491792D02*
X125545318Y-51396554D01*
X125545318Y-51396554D02*
X125735795Y-51396554D01*
X127831033Y-52634650D02*
X128116747Y-52729888D01*
X128116747Y-52729888D02*
X128592938Y-52729888D01*
X128592938Y-52729888D02*
X128783414Y-52634650D01*
X128783414Y-52634650D02*
X128878652Y-52539411D01*
X128878652Y-52539411D02*
X128973890Y-52348935D01*
X128973890Y-52348935D02*
X128973890Y-52158459D01*
X128973890Y-52158459D02*
X128878652Y-51967983D01*
X128878652Y-51967983D02*
X128783414Y-51872745D01*
X128783414Y-51872745D02*
X128592938Y-51777507D01*
X128592938Y-51777507D02*
X128211985Y-51682269D01*
X128211985Y-51682269D02*
X128021509Y-51587030D01*
X128021509Y-51587030D02*
X127926271Y-51491792D01*
X127926271Y-51491792D02*
X127831033Y-51301316D01*
X127831033Y-51301316D02*
X127831033Y-51110840D01*
X127831033Y-51110840D02*
X127926271Y-50920364D01*
X127926271Y-50920364D02*
X128021509Y-50825126D01*
X128021509Y-50825126D02*
X128211985Y-50729888D01*
X128211985Y-50729888D02*
X128688176Y-50729888D01*
X128688176Y-50729888D02*
X128973890Y-50825126D01*
X129831033Y-52729888D02*
X129831033Y-50729888D01*
X130688176Y-52729888D02*
X130688176Y-51682269D01*
X130688176Y-51682269D02*
X130592938Y-51491792D01*
X130592938Y-51491792D02*
X130402462Y-51396554D01*
X130402462Y-51396554D02*
X130116747Y-51396554D01*
X130116747Y-51396554D02*
X129926271Y-51491792D01*
X129926271Y-51491792D02*
X129831033Y-51587030D01*
X131640557Y-52729888D02*
X131640557Y-51396554D01*
X131640557Y-50729888D02*
X131545319Y-50825126D01*
X131545319Y-50825126D02*
X131640557Y-50920364D01*
X131640557Y-50920364D02*
X131735795Y-50825126D01*
X131735795Y-50825126D02*
X131640557Y-50729888D01*
X131640557Y-50729888D02*
X131640557Y-50920364D01*
X133354843Y-52634650D02*
X133164367Y-52729888D01*
X133164367Y-52729888D02*
X132783414Y-52729888D01*
X132783414Y-52729888D02*
X132592938Y-52634650D01*
X132592938Y-52634650D02*
X132497700Y-52444173D01*
X132497700Y-52444173D02*
X132497700Y-51682269D01*
X132497700Y-51682269D02*
X132592938Y-51491792D01*
X132592938Y-51491792D02*
X132783414Y-51396554D01*
X132783414Y-51396554D02*
X133164367Y-51396554D01*
X133164367Y-51396554D02*
X133354843Y-51491792D01*
X133354843Y-51491792D02*
X133450081Y-51682269D01*
X133450081Y-51682269D02*
X133450081Y-51872745D01*
X133450081Y-51872745D02*
X132497700Y-52063221D01*
X134592938Y-52729888D02*
X134402462Y-52634650D01*
X134402462Y-52634650D02*
X134307224Y-52444173D01*
X134307224Y-52444173D02*
X134307224Y-50729888D01*
X136211986Y-52729888D02*
X136211986Y-50729888D01*
X136211986Y-52634650D02*
X136021510Y-52729888D01*
X136021510Y-52729888D02*
X135640557Y-52729888D01*
X135640557Y-52729888D02*
X135450081Y-52634650D01*
X135450081Y-52634650D02*
X135354843Y-52539411D01*
X135354843Y-52539411D02*
X135259605Y-52348935D01*
X135259605Y-52348935D02*
X135259605Y-51777507D01*
X135259605Y-51777507D02*
X135354843Y-51587030D01*
X135354843Y-51587030D02*
X135450081Y-51491792D01*
X135450081Y-51491792D02*
X135640557Y-51396554D01*
X135640557Y-51396554D02*
X136021510Y-51396554D01*
X136021510Y-51396554D02*
X136211986Y-51491792D01*
X82616097Y-76846564D02*
X82116097Y-76846564D01*
X82116097Y-77632278D02*
X82116097Y-76132278D01*
X82116097Y-76132278D02*
X82830383Y-76132278D01*
X83330383Y-77203707D02*
X84044669Y-77203707D01*
X83187526Y-77632278D02*
X83687526Y-76132278D01*
X83687526Y-76132278D02*
X84187526Y-77632278D01*
X84687525Y-77632278D02*
X84687525Y-76132278D01*
X86116097Y-77632278D02*
X85401811Y-77632278D01*
X85401811Y-77632278D02*
X85401811Y-76132278D01*
D10*
X106032493Y-72529819D02*
X106032493Y-73244104D01*
X106032493Y-73244104D02*
X105984874Y-73386961D01*
X105984874Y-73386961D02*
X105889636Y-73482200D01*
X105889636Y-73482200D02*
X105746779Y-73529819D01*
X105746779Y-73529819D02*
X105651541Y-73529819D01*
X106984874Y-73529819D02*
X106508684Y-73529819D01*
X106508684Y-73529819D02*
X106508684Y-72529819D01*
X107889636Y-73434580D02*
X107842017Y-73482200D01*
X107842017Y-73482200D02*
X107699160Y-73529819D01*
X107699160Y-73529819D02*
X107603922Y-73529819D01*
X107603922Y-73529819D02*
X107461065Y-73482200D01*
X107461065Y-73482200D02*
X107365827Y-73386961D01*
X107365827Y-73386961D02*
X107318208Y-73291723D01*
X107318208Y-73291723D02*
X107270589Y-73101247D01*
X107270589Y-73101247D02*
X107270589Y-72958390D01*
X107270589Y-72958390D02*
X107318208Y-72767914D01*
X107318208Y-72767914D02*
X107365827Y-72672676D01*
X107365827Y-72672676D02*
X107461065Y-72577438D01*
X107461065Y-72577438D02*
X107603922Y-72529819D01*
X107603922Y-72529819D02*
X107699160Y-72529819D01*
X107699160Y-72529819D02*
X107842017Y-72577438D01*
X107842017Y-72577438D02*
X107889636Y-72625057D01*
X108603922Y-72529819D02*
X108603922Y-73244104D01*
X108603922Y-73244104D02*
X108556303Y-73386961D01*
X108556303Y-73386961D02*
X108461065Y-73482200D01*
X108461065Y-73482200D02*
X108318208Y-73529819D01*
X108318208Y-73529819D02*
X108222970Y-73529819D01*
X109556303Y-73529819D02*
X109080113Y-73529819D01*
X109080113Y-73529819D02*
X109080113Y-72529819D01*
X110461065Y-73434580D02*
X110413446Y-73482200D01*
X110413446Y-73482200D02*
X110270589Y-73529819D01*
X110270589Y-73529819D02*
X110175351Y-73529819D01*
X110175351Y-73529819D02*
X110032494Y-73482200D01*
X110032494Y-73482200D02*
X109937256Y-73386961D01*
X109937256Y-73386961D02*
X109889637Y-73291723D01*
X109889637Y-73291723D02*
X109842018Y-73101247D01*
X109842018Y-73101247D02*
X109842018Y-72958390D01*
X109842018Y-72958390D02*
X109889637Y-72767914D01*
X109889637Y-72767914D02*
X109937256Y-72672676D01*
X109937256Y-72672676D02*
X110032494Y-72577438D01*
X110032494Y-72577438D02*
X110175351Y-72529819D01*
X110175351Y-72529819D02*
X110270589Y-72529819D01*
X110270589Y-72529819D02*
X110413446Y-72577438D01*
X110413446Y-72577438D02*
X110461065Y-72625057D01*
X111175351Y-72529819D02*
X111175351Y-73244104D01*
X111175351Y-73244104D02*
X111127732Y-73386961D01*
X111127732Y-73386961D02*
X111032494Y-73482200D01*
X111032494Y-73482200D02*
X110889637Y-73529819D01*
X110889637Y-73529819D02*
X110794399Y-73529819D01*
X112127732Y-73529819D02*
X111651542Y-73529819D01*
X111651542Y-73529819D02*
X111651542Y-72529819D01*
X113032494Y-73434580D02*
X112984875Y-73482200D01*
X112984875Y-73482200D02*
X112842018Y-73529819D01*
X112842018Y-73529819D02*
X112746780Y-73529819D01*
X112746780Y-73529819D02*
X112603923Y-73482200D01*
X112603923Y-73482200D02*
X112508685Y-73386961D01*
X112508685Y-73386961D02*
X112461066Y-73291723D01*
X112461066Y-73291723D02*
X112413447Y-73101247D01*
X112413447Y-73101247D02*
X112413447Y-72958390D01*
X112413447Y-72958390D02*
X112461066Y-72767914D01*
X112461066Y-72767914D02*
X112508685Y-72672676D01*
X112508685Y-72672676D02*
X112603923Y-72577438D01*
X112603923Y-72577438D02*
X112746780Y-72529819D01*
X112746780Y-72529819D02*
X112842018Y-72529819D01*
X112842018Y-72529819D02*
X112984875Y-72577438D01*
X112984875Y-72577438D02*
X113032494Y-72625057D01*
X113746780Y-72529819D02*
X113746780Y-73244104D01*
X113746780Y-73244104D02*
X113699161Y-73386961D01*
X113699161Y-73386961D02*
X113603923Y-73482200D01*
X113603923Y-73482200D02*
X113461066Y-73529819D01*
X113461066Y-73529819D02*
X113365828Y-73529819D01*
X114699161Y-73529819D02*
X114222971Y-73529819D01*
X114222971Y-73529819D02*
X114222971Y-72529819D01*
X115603923Y-73434580D02*
X115556304Y-73482200D01*
X115556304Y-73482200D02*
X115413447Y-73529819D01*
X115413447Y-73529819D02*
X115318209Y-73529819D01*
X115318209Y-73529819D02*
X115175352Y-73482200D01*
X115175352Y-73482200D02*
X115080114Y-73386961D01*
X115080114Y-73386961D02*
X115032495Y-73291723D01*
X115032495Y-73291723D02*
X114984876Y-73101247D01*
X114984876Y-73101247D02*
X114984876Y-72958390D01*
X114984876Y-72958390D02*
X115032495Y-72767914D01*
X115032495Y-72767914D02*
X115080114Y-72672676D01*
X115080114Y-72672676D02*
X115175352Y-72577438D01*
X115175352Y-72577438D02*
X115318209Y-72529819D01*
X115318209Y-72529819D02*
X115413447Y-72529819D01*
X115413447Y-72529819D02*
X115556304Y-72577438D01*
X115556304Y-72577438D02*
X115603923Y-72625057D01*
D11*
X102199545Y-94233488D02*
X102199545Y-92900154D01*
X102199545Y-93090630D02*
X102294783Y-92995392D01*
X102294783Y-92995392D02*
X102485259Y-92900154D01*
X102485259Y-92900154D02*
X102770974Y-92900154D01*
X102770974Y-92900154D02*
X102961450Y-92995392D01*
X102961450Y-92995392D02*
X103056688Y-93185869D01*
X103056688Y-93185869D02*
X103056688Y-94233488D01*
X103056688Y-93185869D02*
X103151926Y-92995392D01*
X103151926Y-92995392D02*
X103342402Y-92900154D01*
X103342402Y-92900154D02*
X103628116Y-92900154D01*
X103628116Y-92900154D02*
X103818593Y-92995392D01*
X103818593Y-92995392D02*
X103913831Y-93185869D01*
X103913831Y-93185869D02*
X103913831Y-94233488D01*
X104675736Y-92900154D02*
X105151926Y-94233488D01*
X105628117Y-92900154D02*
X105151926Y-94233488D01*
X105151926Y-94233488D02*
X104961450Y-94709678D01*
X104961450Y-94709678D02*
X104866212Y-94804916D01*
X104866212Y-94804916D02*
X104675736Y-94900154D01*
X106390022Y-94233488D02*
X106390022Y-92900154D01*
X106390022Y-93281107D02*
X106485260Y-93090630D01*
X106485260Y-93090630D02*
X106580498Y-92995392D01*
X106580498Y-92995392D02*
X106770974Y-92900154D01*
X106770974Y-92900154D02*
X106961451Y-92900154D01*
X108390022Y-94138250D02*
X108199546Y-94233488D01*
X108199546Y-94233488D02*
X107818593Y-94233488D01*
X107818593Y-94233488D02*
X107628117Y-94138250D01*
X107628117Y-94138250D02*
X107532879Y-93947773D01*
X107532879Y-93947773D02*
X107532879Y-93185869D01*
X107532879Y-93185869D02*
X107628117Y-92995392D01*
X107628117Y-92995392D02*
X107818593Y-92900154D01*
X107818593Y-92900154D02*
X108199546Y-92900154D01*
X108199546Y-92900154D02*
X108390022Y-92995392D01*
X108390022Y-92995392D02*
X108485260Y-93185869D01*
X108485260Y-93185869D02*
X108485260Y-93376345D01*
X108485260Y-93376345D02*
X107532879Y-93566821D01*
X109056689Y-92900154D02*
X109818593Y-92900154D01*
X109342403Y-92233488D02*
X109342403Y-93947773D01*
X109342403Y-93947773D02*
X109437641Y-94138250D01*
X109437641Y-94138250D02*
X109628117Y-94233488D01*
X109628117Y-94233488D02*
X109818593Y-94233488D01*
X110485260Y-94233488D02*
X110485260Y-92900154D01*
X110485260Y-93281107D02*
X110580498Y-93090630D01*
X110580498Y-93090630D02*
X110675736Y-92995392D01*
X110675736Y-92995392D02*
X110866212Y-92900154D01*
X110866212Y-92900154D02*
X111056689Y-92900154D01*
X112009069Y-94233488D02*
X111818593Y-94138250D01*
X111818593Y-94138250D02*
X111723355Y-94043011D01*
X111723355Y-94043011D02*
X111628117Y-93852535D01*
X111628117Y-93852535D02*
X111628117Y-93281107D01*
X111628117Y-93281107D02*
X111723355Y-93090630D01*
X111723355Y-93090630D02*
X111818593Y-92995392D01*
X111818593Y-92995392D02*
X112009069Y-92900154D01*
X112009069Y-92900154D02*
X112294784Y-92900154D01*
X112294784Y-92900154D02*
X112485260Y-92995392D01*
X112485260Y-92995392D02*
X112580498Y-93090630D01*
X112580498Y-93090630D02*
X112675736Y-93281107D01*
X112675736Y-93281107D02*
X112675736Y-93852535D01*
X112675736Y-93852535D02*
X112580498Y-94043011D01*
X112580498Y-94043011D02*
X112485260Y-94138250D01*
X112485260Y-94138250D02*
X112294784Y-94233488D01*
X112294784Y-94233488D02*
X112009069Y-94233488D01*
X113437641Y-94138250D02*
X113628117Y-94233488D01*
X113628117Y-94233488D02*
X114009069Y-94233488D01*
X114009069Y-94233488D02*
X114199546Y-94138250D01*
X114199546Y-94138250D02*
X114294784Y-93947773D01*
X114294784Y-93947773D02*
X114294784Y-93852535D01*
X114294784Y-93852535D02*
X114199546Y-93662059D01*
X114199546Y-93662059D02*
X114009069Y-93566821D01*
X114009069Y-93566821D02*
X113723355Y-93566821D01*
X113723355Y-93566821D02*
X113532879Y-93471583D01*
X113532879Y-93471583D02*
X113437641Y-93281107D01*
X113437641Y-93281107D02*
X113437641Y-93185869D01*
X113437641Y-93185869D02*
X113532879Y-92995392D01*
X113532879Y-92995392D02*
X113723355Y-92900154D01*
X113723355Y-92900154D02*
X114009069Y-92900154D01*
X114009069Y-92900154D02*
X114199546Y-92995392D01*
X114866213Y-92900154D02*
X115628117Y-92900154D01*
X115151927Y-92233488D02*
X115151927Y-93947773D01*
X115151927Y-93947773D02*
X115247165Y-94138250D01*
X115247165Y-94138250D02*
X115437641Y-94233488D01*
X115437641Y-94233488D02*
X115628117Y-94233488D01*
X116580498Y-94233488D02*
X116390022Y-94138250D01*
X116390022Y-94138250D02*
X116294784Y-94043011D01*
X116294784Y-94043011D02*
X116199546Y-93852535D01*
X116199546Y-93852535D02*
X116199546Y-93281107D01*
X116199546Y-93281107D02*
X116294784Y-93090630D01*
X116294784Y-93090630D02*
X116390022Y-92995392D01*
X116390022Y-92995392D02*
X116580498Y-92900154D01*
X116580498Y-92900154D02*
X116866213Y-92900154D01*
X116866213Y-92900154D02*
X117056689Y-92995392D01*
X117056689Y-92995392D02*
X117151927Y-93090630D01*
X117151927Y-93090630D02*
X117247165Y-93281107D01*
X117247165Y-93281107D02*
X117247165Y-93852535D01*
X117247165Y-93852535D02*
X117151927Y-94043011D01*
X117151927Y-94043011D02*
X117056689Y-94138250D01*
X117056689Y-94138250D02*
X116866213Y-94233488D01*
X116866213Y-94233488D02*
X116580498Y-94233488D01*
X118104308Y-94233488D02*
X118104308Y-92900154D01*
X118104308Y-93281107D02*
X118199546Y-93090630D01*
X118199546Y-93090630D02*
X118294784Y-92995392D01*
X118294784Y-92995392D02*
X118485260Y-92900154D01*
X118485260Y-92900154D02*
X118675737Y-92900154D01*
X120104308Y-94138250D02*
X119913832Y-94233488D01*
X119913832Y-94233488D02*
X119532879Y-94233488D01*
X119532879Y-94233488D02*
X119342403Y-94138250D01*
X119342403Y-94138250D02*
X119247165Y-93947773D01*
X119247165Y-93947773D02*
X119247165Y-93185869D01*
X119247165Y-93185869D02*
X119342403Y-92995392D01*
X119342403Y-92995392D02*
X119532879Y-92900154D01*
X119532879Y-92900154D02*
X119913832Y-92900154D01*
X119913832Y-92900154D02*
X120104308Y-92995392D01*
X120104308Y-92995392D02*
X120199546Y-93185869D01*
X120199546Y-93185869D02*
X120199546Y-93376345D01*
X120199546Y-93376345D02*
X119247165Y-93566821D01*
X121056689Y-94043011D02*
X121151927Y-94138250D01*
X121151927Y-94138250D02*
X121056689Y-94233488D01*
X121056689Y-94233488D02*
X120961451Y-94138250D01*
X120961451Y-94138250D02*
X121056689Y-94043011D01*
X121056689Y-94043011D02*
X121056689Y-94233488D01*
X122866213Y-94138250D02*
X122675737Y-94233488D01*
X122675737Y-94233488D02*
X122294784Y-94233488D01*
X122294784Y-94233488D02*
X122104308Y-94138250D01*
X122104308Y-94138250D02*
X122009070Y-94043011D01*
X122009070Y-94043011D02*
X121913832Y-93852535D01*
X121913832Y-93852535D02*
X121913832Y-93281107D01*
X121913832Y-93281107D02*
X122009070Y-93090630D01*
X122009070Y-93090630D02*
X122104308Y-92995392D01*
X122104308Y-92995392D02*
X122294784Y-92900154D01*
X122294784Y-92900154D02*
X122675737Y-92900154D01*
X122675737Y-92900154D02*
X122866213Y-92995392D01*
X124009070Y-94233488D02*
X123818594Y-94138250D01*
X123818594Y-94138250D02*
X123723356Y-94043011D01*
X123723356Y-94043011D02*
X123628118Y-93852535D01*
X123628118Y-93852535D02*
X123628118Y-93281107D01*
X123628118Y-93281107D02*
X123723356Y-93090630D01*
X123723356Y-93090630D02*
X123818594Y-92995392D01*
X123818594Y-92995392D02*
X124009070Y-92900154D01*
X124009070Y-92900154D02*
X124294785Y-92900154D01*
X124294785Y-92900154D02*
X124485261Y-92995392D01*
X124485261Y-92995392D02*
X124580499Y-93090630D01*
X124580499Y-93090630D02*
X124675737Y-93281107D01*
X124675737Y-93281107D02*
X124675737Y-93852535D01*
X124675737Y-93852535D02*
X124580499Y-94043011D01*
X124580499Y-94043011D02*
X124485261Y-94138250D01*
X124485261Y-94138250D02*
X124294785Y-94233488D01*
X124294785Y-94233488D02*
X124009070Y-94233488D01*
X125532880Y-94043011D02*
X125628118Y-94138250D01*
X125628118Y-94138250D02*
X125532880Y-94233488D01*
X125532880Y-94233488D02*
X125437642Y-94138250D01*
X125437642Y-94138250D02*
X125532880Y-94043011D01*
X125532880Y-94043011D02*
X125532880Y-94233488D01*
X127342404Y-92900154D02*
X127342404Y-94233488D01*
X126485261Y-92900154D02*
X126485261Y-93947773D01*
X126485261Y-93947773D02*
X126580499Y-94138250D01*
X126580499Y-94138250D02*
X126770975Y-94233488D01*
X126770975Y-94233488D02*
X127056690Y-94233488D01*
X127056690Y-94233488D02*
X127247166Y-94138250D01*
X127247166Y-94138250D02*
X127342404Y-94043011D01*
X128294785Y-94233488D02*
X128294785Y-92233488D01*
X128485261Y-93471583D02*
X129056690Y-94233488D01*
X129056690Y-92900154D02*
X128294785Y-93662059D01*
X82065297Y-73009478D02*
X82065297Y-71509478D01*
X82065297Y-71509478D02*
X82636726Y-71509478D01*
X82636726Y-71509478D02*
X82779583Y-71580907D01*
X82779583Y-71580907D02*
X82851012Y-71652335D01*
X82851012Y-71652335D02*
X82922440Y-71795192D01*
X82922440Y-71795192D02*
X82922440Y-72009478D01*
X82922440Y-72009478D02*
X82851012Y-72152335D01*
X82851012Y-72152335D02*
X82779583Y-72223764D01*
X82779583Y-72223764D02*
X82636726Y-72295192D01*
X82636726Y-72295192D02*
X82065297Y-72295192D01*
X83493869Y-72580907D02*
X84208155Y-72580907D01*
X83351012Y-73009478D02*
X83851012Y-71509478D01*
X83851012Y-71509478D02*
X84351012Y-73009478D01*
X84779583Y-72938050D02*
X84993869Y-73009478D01*
X84993869Y-73009478D02*
X85351011Y-73009478D01*
X85351011Y-73009478D02*
X85493869Y-72938050D01*
X85493869Y-72938050D02*
X85565297Y-72866621D01*
X85565297Y-72866621D02*
X85636726Y-72723764D01*
X85636726Y-72723764D02*
X85636726Y-72580907D01*
X85636726Y-72580907D02*
X85565297Y-72438050D01*
X85565297Y-72438050D02*
X85493869Y-72366621D01*
X85493869Y-72366621D02*
X85351011Y-72295192D01*
X85351011Y-72295192D02*
X85065297Y-72223764D01*
X85065297Y-72223764D02*
X84922440Y-72152335D01*
X84922440Y-72152335D02*
X84851011Y-72080907D01*
X84851011Y-72080907D02*
X84779583Y-71938050D01*
X84779583Y-71938050D02*
X84779583Y-71795192D01*
X84779583Y-71795192D02*
X84851011Y-71652335D01*
X84851011Y-71652335D02*
X84922440Y-71580907D01*
X84922440Y-71580907D02*
X85065297Y-71509478D01*
X85065297Y-71509478D02*
X85422440Y-71509478D01*
X85422440Y-71509478D02*
X85636726Y-71580907D01*
X86208154Y-72938050D02*
X86422440Y-73009478D01*
X86422440Y-73009478D02*
X86779582Y-73009478D01*
X86779582Y-73009478D02*
X86922440Y-72938050D01*
X86922440Y-72938050D02*
X86993868Y-72866621D01*
X86993868Y-72866621D02*
X87065297Y-72723764D01*
X87065297Y-72723764D02*
X87065297Y-72580907D01*
X87065297Y-72580907D02*
X86993868Y-72438050D01*
X86993868Y-72438050D02*
X86922440Y-72366621D01*
X86922440Y-72366621D02*
X86779582Y-72295192D01*
X86779582Y-72295192D02*
X86493868Y-72223764D01*
X86493868Y-72223764D02*
X86351011Y-72152335D01*
X86351011Y-72152335D02*
X86279582Y-72080907D01*
X86279582Y-72080907D02*
X86208154Y-71938050D01*
X86208154Y-71938050D02*
X86208154Y-71795192D01*
X86208154Y-71795192D02*
X86279582Y-71652335D01*
X86279582Y-71652335D02*
X86351011Y-71580907D01*
X86351011Y-71580907D02*
X86493868Y-71509478D01*
X86493868Y-71509478D02*
X86851011Y-71509478D01*
X86851011Y-71509478D02*
X87065297Y-71580907D01*
D10*
X124464000Y-67225580D02*
X124511619Y-67273200D01*
X124511619Y-67273200D02*
X124464000Y-67320819D01*
X124464000Y-67320819D02*
X124416381Y-67273200D01*
X124416381Y-67273200D02*
X124464000Y-67225580D01*
X124464000Y-67225580D02*
X124464000Y-67320819D01*
D12*
X120982380Y-72574318D02*
X120982380Y-73602413D01*
X120982380Y-73602413D02*
X121042857Y-73723365D01*
X121042857Y-73723365D02*
X121103333Y-73783842D01*
X121103333Y-73783842D02*
X121224285Y-73844318D01*
X121224285Y-73844318D02*
X121466190Y-73844318D01*
X121466190Y-73844318D02*
X121587142Y-73783842D01*
X121587142Y-73783842D02*
X121647619Y-73723365D01*
X121647619Y-73723365D02*
X121708095Y-73602413D01*
X121708095Y-73602413D02*
X121708095Y-72574318D01*
X122978095Y-73844318D02*
X122252380Y-73844318D01*
X122615237Y-73844318D02*
X122615237Y-72574318D01*
X122615237Y-72574318D02*
X122494285Y-72755746D01*
X122494285Y-72755746D02*
X122373333Y-72876699D01*
X122373333Y-72876699D02*
X122252380Y-72937175D01*
D10*
X97609066Y-89847009D02*
X97275733Y-89847009D01*
X97275733Y-90370819D02*
X97275733Y-89370819D01*
X97275733Y-89370819D02*
X97751923Y-89370819D01*
X98656685Y-90370819D02*
X98085257Y-90370819D01*
X98370971Y-90370819D02*
X98370971Y-89370819D01*
X98370971Y-89370819D02*
X98275733Y-89513676D01*
X98275733Y-89513676D02*
X98180495Y-89608914D01*
X98180495Y-89608914D02*
X98085257Y-89656533D01*
X83653333Y-84630419D02*
X83320000Y-84154228D01*
X83081905Y-84630419D02*
X83081905Y-83630419D01*
X83081905Y-83630419D02*
X83462857Y-83630419D01*
X83462857Y-83630419D02*
X83558095Y-83678038D01*
X83558095Y-83678038D02*
X83605714Y-83725657D01*
X83605714Y-83725657D02*
X83653333Y-83820895D01*
X83653333Y-83820895D02*
X83653333Y-83963752D01*
X83653333Y-83963752D02*
X83605714Y-84058990D01*
X83605714Y-84058990D02*
X83558095Y-84106609D01*
X83558095Y-84106609D02*
X83462857Y-84154228D01*
X83462857Y-84154228D02*
X83081905Y-84154228D01*
X84034286Y-83725657D02*
X84081905Y-83678038D01*
X84081905Y-83678038D02*
X84177143Y-83630419D01*
X84177143Y-83630419D02*
X84415238Y-83630419D01*
X84415238Y-83630419D02*
X84510476Y-83678038D01*
X84510476Y-83678038D02*
X84558095Y-83725657D01*
X84558095Y-83725657D02*
X84605714Y-83820895D01*
X84605714Y-83820895D02*
X84605714Y-83916133D01*
X84605714Y-83916133D02*
X84558095Y-84058990D01*
X84558095Y-84058990D02*
X83986667Y-84630419D01*
X83986667Y-84630419D02*
X84605714Y-84630419D01*
X87361733Y-84732019D02*
X87028400Y-84255828D01*
X86790305Y-84732019D02*
X86790305Y-83732019D01*
X86790305Y-83732019D02*
X87171257Y-83732019D01*
X87171257Y-83732019D02*
X87266495Y-83779638D01*
X87266495Y-83779638D02*
X87314114Y-83827257D01*
X87314114Y-83827257D02*
X87361733Y-83922495D01*
X87361733Y-83922495D02*
X87361733Y-84065352D01*
X87361733Y-84065352D02*
X87314114Y-84160590D01*
X87314114Y-84160590D02*
X87266495Y-84208209D01*
X87266495Y-84208209D02*
X87171257Y-84255828D01*
X87171257Y-84255828D02*
X86790305Y-84255828D01*
X88314114Y-84732019D02*
X87742686Y-84732019D01*
X88028400Y-84732019D02*
X88028400Y-83732019D01*
X88028400Y-83732019D02*
X87933162Y-83874876D01*
X87933162Y-83874876D02*
X87837924Y-83970114D01*
X87837924Y-83970114D02*
X87742686Y-84017733D01*
X118689523Y-58874819D02*
X118356190Y-58398628D01*
X118118095Y-58874819D02*
X118118095Y-57874819D01*
X118118095Y-57874819D02*
X118499047Y-57874819D01*
X118499047Y-57874819D02*
X118594285Y-57922438D01*
X118594285Y-57922438D02*
X118641904Y-57970057D01*
X118641904Y-57970057D02*
X118689523Y-58065295D01*
X118689523Y-58065295D02*
X118689523Y-58208152D01*
X118689523Y-58208152D02*
X118641904Y-58303390D01*
X118641904Y-58303390D02*
X118594285Y-58351009D01*
X118594285Y-58351009D02*
X118499047Y-58398628D01*
X118499047Y-58398628D02*
X118118095Y-58398628D01*
X119118095Y-58874819D02*
X119118095Y-57874819D01*
X119118095Y-57874819D02*
X119689523Y-58874819D01*
X119689523Y-58874819D02*
X119689523Y-57874819D01*
X120118095Y-57970057D02*
X120165714Y-57922438D01*
X120165714Y-57922438D02*
X120260952Y-57874819D01*
X120260952Y-57874819D02*
X120499047Y-57874819D01*
X120499047Y-57874819D02*
X120594285Y-57922438D01*
X120594285Y-57922438D02*
X120641904Y-57970057D01*
X120641904Y-57970057D02*
X120689523Y-58065295D01*
X120689523Y-58065295D02*
X120689523Y-58160533D01*
X120689523Y-58160533D02*
X120641904Y-58303390D01*
X120641904Y-58303390D02*
X120070476Y-58874819D01*
X120070476Y-58874819D02*
X120689523Y-58874819D01*
X114879523Y-87830819D02*
X114546190Y-87354628D01*
X114308095Y-87830819D02*
X114308095Y-86830819D01*
X114308095Y-86830819D02*
X114689047Y-86830819D01*
X114689047Y-86830819D02*
X114784285Y-86878438D01*
X114784285Y-86878438D02*
X114831904Y-86926057D01*
X114831904Y-86926057D02*
X114879523Y-87021295D01*
X114879523Y-87021295D02*
X114879523Y-87164152D01*
X114879523Y-87164152D02*
X114831904Y-87259390D01*
X114831904Y-87259390D02*
X114784285Y-87307009D01*
X114784285Y-87307009D02*
X114689047Y-87354628D01*
X114689047Y-87354628D02*
X114308095Y-87354628D01*
X115308095Y-87830819D02*
X115308095Y-86830819D01*
X115308095Y-86830819D02*
X115879523Y-87830819D01*
X115879523Y-87830819D02*
X115879523Y-86830819D01*
X116879523Y-87830819D02*
X116308095Y-87830819D01*
X116593809Y-87830819D02*
X116593809Y-86830819D01*
X116593809Y-86830819D02*
X116498571Y-86973676D01*
X116498571Y-86973676D02*
X116403333Y-87068914D01*
X116403333Y-87068914D02*
X116308095Y-87116533D01*
X97775733Y-57560380D02*
X97728114Y-57608000D01*
X97728114Y-57608000D02*
X97585257Y-57655619D01*
X97585257Y-57655619D02*
X97490019Y-57655619D01*
X97490019Y-57655619D02*
X97347162Y-57608000D01*
X97347162Y-57608000D02*
X97251924Y-57512761D01*
X97251924Y-57512761D02*
X97204305Y-57417523D01*
X97204305Y-57417523D02*
X97156686Y-57227047D01*
X97156686Y-57227047D02*
X97156686Y-57084190D01*
X97156686Y-57084190D02*
X97204305Y-56893714D01*
X97204305Y-56893714D02*
X97251924Y-56798476D01*
X97251924Y-56798476D02*
X97347162Y-56703238D01*
X97347162Y-56703238D02*
X97490019Y-56655619D01*
X97490019Y-56655619D02*
X97585257Y-56655619D01*
X97585257Y-56655619D02*
X97728114Y-56703238D01*
X97728114Y-56703238D02*
X97775733Y-56750857D01*
X98728114Y-57655619D02*
X98156686Y-57655619D01*
X98442400Y-57655619D02*
X98442400Y-56655619D01*
X98442400Y-56655619D02*
X98347162Y-56798476D01*
X98347162Y-56798476D02*
X98251924Y-56893714D01*
X98251924Y-56893714D02*
X98156686Y-56941333D01*
D13*
G04 #@! TO.C,D2*
X91666200Y-77940000D02*
X91666200Y-76020000D01*
X91666200Y-76020000D02*
X88981200Y-76020000D01*
X88981200Y-77940000D02*
X91666200Y-77940000D01*
G04 #@! TO.C,SW1*
X90746800Y-60638800D02*
X90746800Y-59138800D01*
X89496800Y-56638800D02*
X84996800Y-56638800D01*
X84996800Y-63138800D02*
X89496800Y-63138800D01*
X83746800Y-59138800D02*
X83746800Y-60638800D01*
G04 #@! TO.C,D1*
X91616200Y-73240000D02*
X91616200Y-71320000D01*
X91616200Y-71320000D02*
X88931200Y-71320000D01*
X88931200Y-73240000D02*
X91616200Y-73240000D01*
G04 #@! TO.C,F1*
X100786000Y-89685822D02*
X100786000Y-90202978D01*
X99366000Y-89685822D02*
X99366000Y-90202978D01*
G04 #@! TO.C,R2*
X84555000Y-86488536D02*
X84555000Y-86942664D01*
X83085000Y-86488536D02*
X83085000Y-86942664D01*
G04 #@! TO.C,R1*
X88263400Y-86488536D02*
X88263400Y-86942664D01*
X86793400Y-86488536D02*
X86793400Y-86942664D01*
G04 #@! TO.C,RN2*
X106370000Y-54500000D02*
X106370000Y-57300000D01*
X106370000Y-57300000D02*
X129570000Y-57300000D01*
X109080000Y-54500000D02*
X109080000Y-57300000D01*
X129570000Y-54500000D02*
X106370000Y-54500000D01*
X129570000Y-57300000D02*
X129570000Y-54500000D01*
G04 #@! TO.C,RN1*
X104030000Y-88500000D02*
X104030000Y-91300000D01*
X104030000Y-91300000D02*
X127230000Y-91300000D01*
X106740000Y-88500000D02*
X106740000Y-91300000D01*
X127230000Y-88500000D02*
X104030000Y-88500000D01*
X127230000Y-91300000D02*
X127230000Y-88500000D01*
G04 #@! TO.C,C1*
X99341000Y-57462052D02*
X99341000Y-56939548D01*
X100811000Y-57462052D02*
X100811000Y-56939548D01*
G04 #@! TD*
M02*
