G04 #@! TF.GenerationSoftware,KiCad,Pcbnew,7.0.8-7.0.8~ubuntu23.04.1*
G04 #@! TF.CreationDate,2023-10-29T22:49:27+00:00*
G04 #@! TF.ProjectId,2332 ROM Tester,32333332-2052-44f4-9d20-546573746572,1.0*
G04 #@! TF.SameCoordinates,Original*
G04 #@! TF.FileFunction,Copper,L2,Bot*
G04 #@! TF.FilePolarity,Positive*
%FSLAX46Y46*%
G04 Gerber Fmt 4.6, Leading zero omitted, Abs format (unit mm)*
G04 Created by KiCad (PCBNEW 7.0.8-7.0.8~ubuntu23.04.1) date 2023-10-29 22:49:27*
%MOMM*%
%LPD*%
G01*
G04 APERTURE LIST*
G04 #@! TA.AperFunction,ComponentPad*
%ADD10O,1.727200X1.727200*%
G04 #@! TD*
G04 #@! TA.AperFunction,ComponentPad*
%ADD11C,1.727200*%
G04 #@! TD*
G04 #@! TA.AperFunction,ComponentPad*
%ADD12C,1.530000*%
G04 #@! TD*
G04 #@! TA.AperFunction,ComponentPad*
%ADD13C,2.000000*%
G04 #@! TD*
G04 #@! TA.AperFunction,ComponentPad*
%ADD14R,1.600000X1.600000*%
G04 #@! TD*
G04 #@! TA.AperFunction,ComponentPad*
%ADD15O,1.600000X1.600000*%
G04 #@! TD*
G04 #@! TA.AperFunction,Conductor*
%ADD16C,0.500000*%
G04 #@! TD*
G04 #@! TA.AperFunction,Conductor*
%ADD17C,0.600000*%
G04 #@! TD*
G04 #@! TA.AperFunction,Conductor*
%ADD18C,0.350000*%
G04 #@! TD*
G04 APERTURE END LIST*
D10*
G04 #@! TO.P,A1,VIN,VIN*
G04 #@! TO.N,unconnected-(A1-PadVIN)*
X107700000Y-96330000D03*
G04 #@! TO.P,A1,SDA,SDA*
G04 #@! TO.N,unconnected-(A1-PadSDA)*
X83316000Y-48070000D03*
G04 #@! TO.P,A1,SCL,SCL*
G04 #@! TO.N,unconnected-(A1-PadSCL)*
X80776000Y-48070000D03*
G04 #@! TO.P,A1,RST1,RESET*
G04 #@! TO.N,Net-(A1-RESET)*
X95000000Y-96330000D03*
G04 #@! TO.P,A1,IORF,IOREF*
G04 #@! TO.N,unconnected-(A1-IOREF-PadIORF)*
X92460000Y-96330000D03*
D11*
G04 #@! TO.P,A1,GND6,GND*
G04 #@! TO.N,GND*
X158500000Y-91250000D03*
G04 #@! TO.P,A1,GND5,GND*
X155960000Y-91250000D03*
G04 #@! TO.P,A1,GND3,GND*
X105160000Y-96330000D03*
G04 #@! TO.P,A1,GND2,GND*
X102620000Y-96330000D03*
G04 #@! TO.P,A1,GND1,GND*
X88396000Y-48070000D03*
D10*
G04 #@! TO.P,A1,D53,D53_CS*
G04 #@! TO.N,unconnected-(A1-D53_CS-PadD53)*
X158500000Y-88710000D03*
G04 #@! TO.P,A1,D52,D52_SCK*
G04 #@! TO.N,unconnected-(A1-D52_SCK-PadD52)*
X155960000Y-88710000D03*
G04 #@! TO.P,A1,D51,D51_MOSI*
G04 #@! TO.N,unconnected-(A1-D51_MOSI-PadD51)*
X158500000Y-86170000D03*
G04 #@! TO.P,A1,D50,D50_MISO*
G04 #@! TO.N,unconnected-(A1-D50_MISO-PadD50)*
X155960000Y-86170000D03*
G04 #@! TO.P,A1,D49,D49*
G04 #@! TO.N,unconnected-(A1-PadD49)*
X158500000Y-83630000D03*
G04 #@! TO.P,A1,D48,D48*
G04 #@! TO.N,unconnected-(A1-PadD48)*
X155960000Y-83630000D03*
G04 #@! TO.P,A1,D47,D47*
G04 #@! TO.N,unconnected-(A1-PadD47)*
X158500000Y-81090000D03*
G04 #@! TO.P,A1,D46,D46*
G04 #@! TO.N,unconnected-(A1-PadD46)*
X155960000Y-81090000D03*
G04 #@! TO.P,A1,D45,D45*
G04 #@! TO.N,/D2*
X158500000Y-78550000D03*
G04 #@! TO.P,A1,D44,D44*
G04 #@! TO.N,/D1*
X155960000Y-78550000D03*
G04 #@! TO.P,A1,D43,D43*
G04 #@! TO.N,/D0*
X158500000Y-76010000D03*
G04 #@! TO.P,A1,D42,D42*
G04 #@! TO.N,/A0*
X155960000Y-76010000D03*
G04 #@! TO.P,A1,D41,D41*
G04 #@! TO.N,/A1*
X158500000Y-73470000D03*
G04 #@! TO.P,A1,D40,D40*
G04 #@! TO.N,/A2*
X155960000Y-73470000D03*
G04 #@! TO.P,A1,D39,D39*
G04 #@! TO.N,/A3*
X158500000Y-70930000D03*
G04 #@! TO.P,A1,D38,D38*
G04 #@! TO.N,/A4*
X155960000Y-70930000D03*
G04 #@! TO.P,A1,D37,D37*
G04 #@! TO.N,/A5*
X158500000Y-68390000D03*
G04 #@! TO.P,A1,D36,D36*
G04 #@! TO.N,/A6*
X155960000Y-68390000D03*
G04 #@! TO.P,A1,D35,D35*
G04 #@! TO.N,/D3*
X158500000Y-65850000D03*
G04 #@! TO.P,A1,D34,D34*
G04 #@! TO.N,/D4*
X155960000Y-65850000D03*
G04 #@! TO.P,A1,D33,D33*
G04 #@! TO.N,/D5*
X158500000Y-63310000D03*
G04 #@! TO.P,A1,D32,D32*
G04 #@! TO.N,/D6*
X155960000Y-63310000D03*
G04 #@! TO.P,A1,D31,D31*
G04 #@! TO.N,/D7*
X158500000Y-60770000D03*
G04 #@! TO.P,A1,D30,D30*
G04 #@! TO.N,/A11*
X155960000Y-60770000D03*
G04 #@! TO.P,A1,D29,D29*
G04 #@! TO.N,/A10*
X158500000Y-58230000D03*
G04 #@! TO.P,A1,D28,D28*
G04 #@! TO.N,/A9*
X155960000Y-58230000D03*
G04 #@! TO.P,A1,D27,D27*
G04 #@! TO.N,unconnected-(A1-PadD27)*
X158500000Y-55690000D03*
G04 #@! TO.P,A1,D26,D26*
G04 #@! TO.N,unconnected-(A1-PadD26)*
X155960000Y-55690000D03*
G04 #@! TO.P,A1,D25,D25*
G04 #@! TO.N,unconnected-(A1-PadD25)*
X158500000Y-53150000D03*
G04 #@! TO.P,A1,D24,D24*
G04 #@! TO.N,/A8*
X155960000Y-53150000D03*
G04 #@! TO.P,A1,D23,D23*
G04 #@! TO.N,unconnected-(A1-PadD23)*
X158500000Y-50610000D03*
G04 #@! TO.P,A1,D22,D22*
G04 #@! TO.N,unconnected-(A1-PadD22)*
X155960000Y-50610000D03*
G04 #@! TO.P,A1,D21,D21/SCL*
G04 #@! TO.N,unconnected-(A1-D21{slash}SCL-PadD21)*
X148340000Y-48070000D03*
G04 #@! TO.P,A1,D20,D20/SDA*
G04 #@! TO.N,unconnected-(A1-D20{slash}SDA-PadD20)*
X145800000Y-48070000D03*
G04 #@! TO.P,A1,D19,D19/RX1*
G04 #@! TO.N,unconnected-(A1-D19{slash}RX1-PadD19)*
X143260000Y-48070000D03*
G04 #@! TO.P,A1,D18,D18/TX1*
G04 #@! TO.N,unconnected-(A1-D18{slash}TX1-PadD18)*
X140720000Y-48070000D03*
G04 #@! TO.P,A1,D17,D17/RX2*
G04 #@! TO.N,unconnected-(A1-D17{slash}RX2-PadD17)*
X138180000Y-48070000D03*
G04 #@! TO.P,A1,D16,D16/TX2*
G04 #@! TO.N,unconnected-(A1-D16{slash}TX2-PadD16)*
X135640000Y-48070000D03*
G04 #@! TO.P,A1,D15,D15/RX3*
G04 #@! TO.N,unconnected-(A1-D15{slash}RX3-PadD15)*
X133100000Y-48070000D03*
G04 #@! TO.P,A1,D14,D14/TX3*
G04 #@! TO.N,unconnected-(A1-D14{slash}TX3-PadD14)*
X130560000Y-48070000D03*
G04 #@! TO.P,A1,D13,D13*
G04 #@! TO.N,/CE2*
X90936000Y-48070000D03*
G04 #@! TO.P,A1,D12,D12*
G04 #@! TO.N,/CE1*
X93476000Y-48070000D03*
G04 #@! TO.P,A1,D11,D11*
G04 #@! TO.N,unconnected-(A1-PadD11)*
X96016000Y-48070000D03*
G04 #@! TO.P,A1,D10,D10*
G04 #@! TO.N,unconnected-(A1-PadD10)*
X98556000Y-48070000D03*
G04 #@! TO.P,A1,D9,D9*
G04 #@! TO.N,unconnected-(A1-PadD9)*
X101096000Y-48070000D03*
G04 #@! TO.P,A1,D8,D8*
G04 #@! TO.N,unconnected-(A1-PadD8)*
X103636000Y-48070000D03*
G04 #@! TO.P,A1,D7,D7*
G04 #@! TO.N,unconnected-(A1-PadD7)*
X107700000Y-48070000D03*
G04 #@! TO.P,A1,D6,D6*
G04 #@! TO.N,unconnected-(A1-PadD6)*
X110240000Y-48070000D03*
G04 #@! TO.P,A1,D5,D5*
G04 #@! TO.N,unconnected-(A1-PadD5)*
X112780000Y-48070000D03*
G04 #@! TO.P,A1,D4,D4*
G04 #@! TO.N,unconnected-(A1-PadD4)*
X115320000Y-48070000D03*
G04 #@! TO.P,A1,D3,D3_INT1*
G04 #@! TO.N,unconnected-(A1-D3_INT1-PadD3)*
X117860000Y-48070000D03*
G04 #@! TO.P,A1,D2,D2_INT0*
G04 #@! TO.N,unconnected-(A1-D2_INT0-PadD2)*
X120400000Y-48070000D03*
G04 #@! TO.P,A1,D1,D1/TX0*
G04 #@! TO.N,unconnected-(A1-D1{slash}TX0-PadD1)*
X122940000Y-48070000D03*
G04 #@! TO.P,A1,D0,D0/RX0*
G04 #@! TO.N,unconnected-(A1-D0{slash}RX0-PadD0)*
X125480000Y-48070000D03*
G04 #@! TO.P,A1,AREF,AREF*
G04 #@! TO.N,unconnected-(A1-PadAREF)*
X85856000Y-48070000D03*
G04 #@! TO.P,A1,A15,A15*
G04 #@! TO.N,unconnected-(A1-PadA15)*
X153420000Y-96330000D03*
G04 #@! TO.P,A1,A14,A14*
G04 #@! TO.N,unconnected-(A1-PadA14)*
X150880000Y-96330000D03*
G04 #@! TO.P,A1,A13,A13*
G04 #@! TO.N,unconnected-(A1-PadA13)*
X148340000Y-96330000D03*
G04 #@! TO.P,A1,A12,A12*
G04 #@! TO.N,unconnected-(A1-PadA12)*
X145800000Y-96330000D03*
G04 #@! TO.P,A1,A11,A11*
G04 #@! TO.N,unconnected-(A1-PadA11)*
X143260000Y-96330000D03*
G04 #@! TO.P,A1,A10,A10*
G04 #@! TO.N,unconnected-(A1-PadA10)*
X140720000Y-96330000D03*
G04 #@! TO.P,A1,A9,A9*
G04 #@! TO.N,unconnected-(A1-PadA9)*
X138180000Y-96330000D03*
G04 #@! TO.P,A1,A8,A8*
G04 #@! TO.N,unconnected-(A1-PadA8)*
X135640000Y-96330000D03*
G04 #@! TO.P,A1,A7,A7*
G04 #@! TO.N,unconnected-(A1-PadA7)*
X130560000Y-96330000D03*
G04 #@! TO.P,A1,A6,A6*
G04 #@! TO.N,unconnected-(A1-PadA6)*
X128020000Y-96330000D03*
G04 #@! TO.P,A1,A5,A5*
G04 #@! TO.N,unconnected-(A1-PadA5)*
X125480000Y-96330000D03*
G04 #@! TO.P,A1,A4,A4*
G04 #@! TO.N,unconnected-(A1-PadA4)*
X122940000Y-96330000D03*
G04 #@! TO.P,A1,A3,A3*
G04 #@! TO.N,unconnected-(A1-PadA3)*
X120400000Y-96330000D03*
G04 #@! TO.P,A1,A2,A2*
G04 #@! TO.N,/A7*
X117860000Y-96330000D03*
G04 #@! TO.P,A1,A1,A1*
G04 #@! TO.N,Net-(A1-PadA1)*
X115320000Y-96330000D03*
G04 #@! TO.P,A1,A0,A0*
G04 #@! TO.N,Net-(A1-PadA0)*
X112780000Y-96330000D03*
G04 #@! TO.P,A1,5V4,5V*
G04 #@! TO.N,unconnected-(A1-5V-Pad5V4)*
X158500000Y-48070000D03*
G04 #@! TO.P,A1,5V3,5V*
G04 #@! TO.N,unconnected-(A1-5V-Pad5V3)*
X155960000Y-48070000D03*
G04 #@! TO.P,A1,5V1,5V*
G04 #@! TO.N,Net-(A1-5V-Pad5V1)*
X100080000Y-96330000D03*
G04 #@! TO.P,A1,3V3,3.3V*
G04 #@! TO.N,unconnected-(A1-3.3V-Pad3V3)*
X97540000Y-96330000D03*
G04 #@! TO.P,A1,*
G04 #@! TO.N,*
X89920000Y-96330000D03*
G04 #@! TD*
D12*
G04 #@! TO.P,U1,1,A7*
G04 #@! TO.N,/A7*
X107980000Y-80890000D03*
G04 #@! TO.P,U1,2,A6*
G04 #@! TO.N,/A6*
X110520000Y-80890000D03*
G04 #@! TO.P,U1,3,A5*
G04 #@! TO.N,/A5*
X113060000Y-80890000D03*
G04 #@! TO.P,U1,4,A4*
G04 #@! TO.N,/A4*
X115600000Y-80890000D03*
G04 #@! TO.P,U1,5,A3*
G04 #@! TO.N,/A3*
X118140000Y-80890000D03*
G04 #@! TO.P,U1,6,A2*
G04 #@! TO.N,/A2*
X120680000Y-80890000D03*
G04 #@! TO.P,U1,7,A1*
G04 #@! TO.N,/A1*
X123220000Y-80890000D03*
G04 #@! TO.P,U1,8,A0*
G04 #@! TO.N,/A0*
X125760000Y-80890000D03*
G04 #@! TO.P,U1,9,D0*
G04 #@! TO.N,/D0*
X128300000Y-80890000D03*
G04 #@! TO.P,U1,10,D1*
G04 #@! TO.N,/D1*
X130840000Y-80890000D03*
G04 #@! TO.P,U1,11,D2*
G04 #@! TO.N,/D2*
X133380000Y-80890000D03*
G04 #@! TO.P,U1,12,VSS*
G04 #@! TO.N,GND*
X135920000Y-80890000D03*
G04 #@! TO.P,U1,13,D3*
G04 #@! TO.N,/D3*
X135920000Y-65650000D03*
G04 #@! TO.P,U1,14,D4*
G04 #@! TO.N,/D4*
X133380000Y-65650000D03*
G04 #@! TO.P,U1,15,D5*
G04 #@! TO.N,/D5*
X130840000Y-65650000D03*
G04 #@! TO.P,U1,16,D6*
G04 #@! TO.N,/D6*
X128300000Y-65650000D03*
G04 #@! TO.P,U1,17,D7*
G04 #@! TO.N,/D7*
X125760000Y-65650000D03*
G04 #@! TO.P,U1,18,A11*
G04 #@! TO.N,/A11*
X123220000Y-65650000D03*
G04 #@! TO.P,U1,19,A10*
G04 #@! TO.N,/A10*
X120680000Y-65650000D03*
G04 #@! TO.P,U1,20,~{CE1}*
G04 #@! TO.N,/CE1*
X118140000Y-65650000D03*
G04 #@! TO.P,U1,21,CE2*
G04 #@! TO.N,/CE2*
X115600000Y-65650000D03*
G04 #@! TO.P,U1,22,A9*
G04 #@! TO.N,/A9*
X113060000Y-65650000D03*
G04 #@! TO.P,U1,23,A8*
G04 #@! TO.N,/A8*
X110520000Y-65650000D03*
G04 #@! TO.P,U1,24,VCC*
G04 #@! TO.N,VCC*
X107980000Y-65650000D03*
G04 #@! TD*
D13*
G04 #@! TO.P,SW1,2,B*
G04 #@! TO.N,Net-(A1-RESET)*
X90496800Y-62138800D03*
X83996800Y-62138800D03*
G04 #@! TO.P,SW1,1,A*
G04 #@! TO.N,GND*
X90496800Y-57638800D03*
X83996800Y-57638800D03*
G04 #@! TD*
D14*
G04 #@! TO.P,RN2,1,common*
G04 #@! TO.N,GND*
X107810000Y-55900000D03*
D15*
G04 #@! TO.P,RN2,2,R1*
G04 #@! TO.N,/A8*
X110350000Y-55900000D03*
G04 #@! TO.P,RN2,3,R2*
G04 #@! TO.N,/A9*
X112890000Y-55900000D03*
G04 #@! TO.P,RN2,4,R3*
G04 #@! TO.N,/CE2*
X115430000Y-55900000D03*
G04 #@! TO.P,RN2,5,R4*
G04 #@! TO.N,/CE1*
X117970000Y-55900000D03*
G04 #@! TO.P,RN2,6,R5*
G04 #@! TO.N,/A10*
X120510000Y-55900000D03*
G04 #@! TO.P,RN2,7,R6*
G04 #@! TO.N,/A11*
X123050000Y-55900000D03*
G04 #@! TO.P,RN2,8,R7*
G04 #@! TO.N,unconnected-(RN2-R7-Pad8)*
X125590000Y-55900000D03*
G04 #@! TO.P,RN2,9,R8*
G04 #@! TO.N,unconnected-(RN2-R8-Pad9)*
X128130000Y-55900000D03*
G04 #@! TD*
D14*
G04 #@! TO.P,RN1,1,common*
G04 #@! TO.N,GND*
X105470000Y-89900000D03*
D15*
G04 #@! TO.P,RN1,2,R1*
G04 #@! TO.N,/A7*
X108010000Y-89900000D03*
G04 #@! TO.P,RN1,3,R2*
G04 #@! TO.N,/A6*
X110550000Y-89900000D03*
G04 #@! TO.P,RN1,4,R3*
G04 #@! TO.N,/A5*
X113090000Y-89900000D03*
G04 #@! TO.P,RN1,5,R4*
G04 #@! TO.N,/A4*
X115630000Y-89900000D03*
G04 #@! TO.P,RN1,6,R5*
G04 #@! TO.N,/A3*
X118170000Y-89900000D03*
G04 #@! TO.P,RN1,7,R6*
G04 #@! TO.N,/A2*
X120710000Y-89900000D03*
G04 #@! TO.P,RN1,8,R7*
G04 #@! TO.N,/A1*
X123250000Y-89900000D03*
G04 #@! TO.P,RN1,9,R8*
G04 #@! TO.N,/A0*
X125790000Y-89900000D03*
G04 #@! TD*
D16*
G04 #@! TO.N,GND*
X105470000Y-89900000D02*
X95950000Y-89900000D01*
X95950000Y-89900000D02*
X80670400Y-74620400D01*
X80670400Y-74620400D02*
X80670400Y-60965200D01*
X80670400Y-60965200D02*
X83996800Y-57638800D01*
X105410000Y-53500000D02*
X90322400Y-53500000D01*
X90322400Y-53500000D02*
X88592000Y-53500000D01*
D17*
X90496800Y-57638800D02*
X90496800Y-53674400D01*
X90496800Y-53674400D02*
X90322400Y-53500000D01*
D16*
X88592000Y-53500000D02*
X88396000Y-53304000D01*
D18*
G04 #@! TO.N,/CE1*
X117970000Y-55900000D02*
X117970000Y-65480000D01*
X117970000Y-65480000D02*
X118140000Y-65650000D01*
G04 #@! TO.N,/CE2*
X115600000Y-65650000D02*
X115600000Y-56070000D01*
X115600000Y-56070000D02*
X115430000Y-55900000D01*
G04 #@! TO.N,/A8*
X110520000Y-65650000D02*
X110520000Y-56070000D01*
X155960000Y-53150000D02*
X113100000Y-53150000D01*
X113100000Y-53150000D02*
X112970000Y-53280000D01*
X110350000Y-55900000D02*
X112970000Y-53280000D01*
X110520000Y-56070000D02*
X110350000Y-55900000D01*
G04 #@! TO.N,/A9*
X113060000Y-65650000D02*
X113060000Y-56070000D01*
X113060000Y-56070000D02*
X112890000Y-55900000D01*
G04 #@! TO.N,/A10*
X120680000Y-56070000D02*
X120510000Y-55900000D01*
X120680000Y-65650000D02*
X120680000Y-56070000D01*
G04 #@! TO.N,/A11*
X123050000Y-55900000D02*
X123050000Y-65480000D01*
X123050000Y-65480000D02*
X123220000Y-65650000D01*
D16*
G04 #@! TO.N,GND*
X105470000Y-92100000D02*
X134000000Y-92100000D01*
X105470000Y-92100000D02*
X105470000Y-96020000D01*
X85061200Y-57791200D02*
X90811200Y-57791200D01*
X107810000Y-55900000D02*
X105410000Y-53500000D01*
X135920000Y-80890000D02*
X135920000Y-89750000D01*
X135920000Y-89750000D02*
X135920000Y-90180000D01*
X155960000Y-91250000D02*
X137420000Y-91250000D01*
X105470000Y-89900000D02*
X105470000Y-92100000D01*
X102620000Y-96330000D02*
X105160000Y-96330000D01*
X137420000Y-91250000D02*
X135920000Y-89750000D01*
X105470000Y-96020000D02*
X105160000Y-96330000D01*
X158500000Y-91250000D02*
X155960000Y-91250000D01*
X88396000Y-48070000D02*
X88396000Y-53304000D01*
X135920000Y-90180000D02*
X134000000Y-92100000D01*
D18*
G04 #@! TO.N,Net-(A1-RESET)*
X83996800Y-62138800D02*
X90496800Y-62138800D01*
G04 #@! TD*
G04 #@! TA.AperFunction,Conductor*
G04 #@! TO.N,GND*
G36*
X157311905Y-89393753D02*
G01*
X157333804Y-89419025D01*
X157419844Y-89550719D01*
X157419849Y-89550724D01*
X157419850Y-89550727D01*
X157532700Y-89673313D01*
X157572954Y-89717040D01*
X157751351Y-89855893D01*
X157751353Y-89855894D01*
X157751360Y-89855899D01*
X157779689Y-89871229D01*
X157829280Y-89920447D01*
X157844390Y-89988664D01*
X157820220Y-90054220D01*
X157779694Y-90089337D01*
X157751628Y-90104526D01*
X157751617Y-90104533D01*
X157727140Y-90123584D01*
X157727140Y-90123586D01*
X158360401Y-90756847D01*
X158355408Y-90757565D01*
X158222530Y-90818248D01*
X158112131Y-90913910D01*
X158033155Y-91036799D01*
X158010477Y-91114031D01*
X157375109Y-90478663D01*
X157333808Y-90541881D01*
X157280662Y-90587238D01*
X157211431Y-90596662D01*
X157148095Y-90567161D01*
X157126190Y-90541881D01*
X157084888Y-90478664D01*
X156449521Y-91114030D01*
X156426845Y-91036799D01*
X156347869Y-90913910D01*
X156237470Y-90818248D01*
X156104592Y-90757565D01*
X156099599Y-90756847D01*
X156732859Y-90123587D01*
X156732858Y-90123585D01*
X156708378Y-90104531D01*
X156708373Y-90104527D01*
X156680308Y-90089340D01*
X156630717Y-90040121D01*
X156615609Y-89971905D01*
X156639779Y-89906349D01*
X156680306Y-89871231D01*
X156708649Y-89855893D01*
X156887046Y-89717040D01*
X157040156Y-89550719D01*
X157126193Y-89419028D01*
X157179338Y-89373675D01*
X157248569Y-89364251D01*
X157311905Y-89393753D01*
G37*
G04 #@! TD.AperFunction*
G04 #@! TA.AperFunction,Conductor*
G36*
X160033961Y-44414686D02*
G01*
X160034056Y-44414714D01*
X160083750Y-44414714D01*
X160087804Y-44414847D01*
X160120383Y-44416981D01*
X160169442Y-44420196D01*
X160351249Y-44433198D01*
X160358886Y-44434227D01*
X160475239Y-44457370D01*
X160619474Y-44488747D01*
X160626163Y-44490604D01*
X160745215Y-44531016D01*
X160877535Y-44580369D01*
X160883270Y-44582844D01*
X160998739Y-44639787D01*
X161049054Y-44667261D01*
X161120697Y-44706381D01*
X161125431Y-44709247D01*
X161232462Y-44780763D01*
X161235121Y-44782644D01*
X161344442Y-44864481D01*
X161348138Y-44867478D01*
X161397385Y-44910666D01*
X161445292Y-44952679D01*
X161448253Y-44955453D01*
X161544545Y-45051745D01*
X161547316Y-45054703D01*
X161598896Y-45113519D01*
X161632512Y-45151850D01*
X161635523Y-45155563D01*
X161717344Y-45264864D01*
X161719253Y-45267561D01*
X161790751Y-45374567D01*
X161793617Y-45379300D01*
X161860213Y-45501261D01*
X161917147Y-45616714D01*
X161919633Y-45622472D01*
X161968983Y-45754785D01*
X162009386Y-45873808D01*
X162011261Y-45880564D01*
X162042637Y-46024803D01*
X162065768Y-46141092D01*
X162066803Y-46148773D01*
X162079804Y-46330578D01*
X162085153Y-46412179D01*
X162085286Y-46416236D01*
X162085286Y-98033763D01*
X162085153Y-98037820D01*
X162079804Y-98119421D01*
X162066803Y-98301225D01*
X162065768Y-98308906D01*
X162042637Y-98425196D01*
X162011261Y-98569434D01*
X162009386Y-98576190D01*
X161968985Y-98695210D01*
X161919633Y-98827527D01*
X161917147Y-98833284D01*
X161860213Y-98948738D01*
X161793617Y-99070698D01*
X161790751Y-99075432D01*
X161719253Y-99182437D01*
X161717335Y-99185147D01*
X161635533Y-99294422D01*
X161632512Y-99298148D01*
X161547319Y-99395292D01*
X161544545Y-99398253D01*
X161448253Y-99494545D01*
X161445292Y-99497319D01*
X161348148Y-99582512D01*
X161344422Y-99585533D01*
X161235147Y-99667335D01*
X161232437Y-99669253D01*
X161125432Y-99740751D01*
X161120698Y-99743617D01*
X160998738Y-99810213D01*
X160883284Y-99867147D01*
X160877527Y-99869633D01*
X160745210Y-99918985D01*
X160626190Y-99959386D01*
X160619434Y-99961261D01*
X160475196Y-99992637D01*
X160358906Y-100015768D01*
X160351225Y-100016803D01*
X160169421Y-100029804D01*
X160107662Y-100033852D01*
X160087810Y-100035153D01*
X160083763Y-100035286D01*
X79800641Y-100035286D01*
X79796593Y-100035153D01*
X79775625Y-100033779D01*
X79714982Y-100029804D01*
X79533183Y-100016803D01*
X79525504Y-100015769D01*
X79409219Y-99992640D01*
X79393219Y-99989160D01*
X79264968Y-99961260D01*
X79258213Y-99959385D01*
X79139220Y-99918995D01*
X79006855Y-99869625D01*
X79001096Y-99867138D01*
X78885699Y-99810231D01*
X78763689Y-99743609D01*
X78758955Y-99740743D01*
X78652003Y-99669281D01*
X78649293Y-99667363D01*
X78539949Y-99585509D01*
X78536232Y-99582496D01*
X78439141Y-99497350D01*
X78436185Y-99494581D01*
X78339820Y-99398216D01*
X78337054Y-99395263D01*
X78251914Y-99298179D01*
X78248894Y-99294454D01*
X78248870Y-99294422D01*
X78167009Y-99185069D01*
X78165125Y-99182406D01*
X78093657Y-99075446D01*
X78090801Y-99070727D01*
X78090785Y-99070698D01*
X78024153Y-98948669D01*
X77967265Y-98833310D01*
X77964779Y-98827552D01*
X77964770Y-98827527D01*
X77915386Y-98695125D01*
X77875014Y-98576190D01*
X77873152Y-98569482D01*
X77841730Y-98425035D01*
X77818633Y-98308916D01*
X77817604Y-98301282D01*
X77804555Y-98118823D01*
X77800952Y-98063841D01*
X77799251Y-98037865D01*
X77799118Y-98033810D01*
X77799118Y-96330006D01*
X88551225Y-96330006D01*
X88569892Y-96555289D01*
X88625388Y-96774439D01*
X88716198Y-96981466D01*
X88839842Y-97170716D01*
X88839850Y-97170727D01*
X88992950Y-97337036D01*
X88992954Y-97337040D01*
X89171351Y-97475893D01*
X89370169Y-97583488D01*
X89370172Y-97583489D01*
X89583982Y-97656890D01*
X89583984Y-97656890D01*
X89583986Y-97656891D01*
X89806967Y-97694100D01*
X89806968Y-97694100D01*
X90033032Y-97694100D01*
X90033033Y-97694100D01*
X90256014Y-97656891D01*
X90469831Y-97583488D01*
X90668649Y-97475893D01*
X90847046Y-97337040D01*
X91000156Y-97170719D01*
X91086193Y-97039028D01*
X91139338Y-96993675D01*
X91208569Y-96984251D01*
X91271905Y-97013753D01*
X91293804Y-97039025D01*
X91379844Y-97170719D01*
X91379849Y-97170724D01*
X91379850Y-97170727D01*
X91532950Y-97337036D01*
X91532954Y-97337040D01*
X91711351Y-97475893D01*
X91910169Y-97583488D01*
X91910172Y-97583489D01*
X92123982Y-97656890D01*
X92123984Y-97656890D01*
X92123986Y-97656891D01*
X92346967Y-97694100D01*
X92346968Y-97694100D01*
X92573032Y-97694100D01*
X92573033Y-97694100D01*
X92796014Y-97656891D01*
X93009831Y-97583488D01*
X93208649Y-97475893D01*
X93387046Y-97337040D01*
X93540156Y-97170719D01*
X93626193Y-97039028D01*
X93679338Y-96993675D01*
X93748569Y-96984251D01*
X93811905Y-97013753D01*
X93833804Y-97039025D01*
X93919844Y-97170719D01*
X93919849Y-97170724D01*
X93919850Y-97170727D01*
X94072950Y-97337036D01*
X94072954Y-97337040D01*
X94251351Y-97475893D01*
X94450169Y-97583488D01*
X94450172Y-97583489D01*
X94663982Y-97656890D01*
X94663984Y-97656890D01*
X94663986Y-97656891D01*
X94886967Y-97694100D01*
X94886968Y-97694100D01*
X95113032Y-97694100D01*
X95113033Y-97694100D01*
X95336014Y-97656891D01*
X95549831Y-97583488D01*
X95748649Y-97475893D01*
X95927046Y-97337040D01*
X96080156Y-97170719D01*
X96166193Y-97039028D01*
X96219338Y-96993675D01*
X96288569Y-96984251D01*
X96351905Y-97013753D01*
X96373804Y-97039025D01*
X96459844Y-97170719D01*
X96459849Y-97170724D01*
X96459850Y-97170727D01*
X96612950Y-97337036D01*
X96612954Y-97337040D01*
X96791351Y-97475893D01*
X96990169Y-97583488D01*
X96990172Y-97583489D01*
X97203982Y-97656890D01*
X97203984Y-97656890D01*
X97203986Y-97656891D01*
X97426967Y-97694100D01*
X97426968Y-97694100D01*
X97653032Y-97694100D01*
X97653033Y-97694100D01*
X97876014Y-97656891D01*
X98089831Y-97583488D01*
X98288649Y-97475893D01*
X98467046Y-97337040D01*
X98620156Y-97170719D01*
X98706193Y-97039028D01*
X98759338Y-96993675D01*
X98828569Y-96984251D01*
X98891905Y-97013753D01*
X98913804Y-97039025D01*
X98999844Y-97170719D01*
X98999849Y-97170724D01*
X98999850Y-97170727D01*
X99152950Y-97337036D01*
X99152954Y-97337040D01*
X99331351Y-97475893D01*
X99530169Y-97583488D01*
X99530172Y-97583489D01*
X99743982Y-97656890D01*
X99743984Y-97656890D01*
X99743986Y-97656891D01*
X99966967Y-97694100D01*
X99966968Y-97694100D01*
X100193032Y-97694100D01*
X100193033Y-97694100D01*
X100416014Y-97656891D01*
X100629831Y-97583488D01*
X100828649Y-97475893D01*
X101007046Y-97337040D01*
X101160156Y-97170719D01*
X101246491Y-97038572D01*
X101299635Y-96993218D01*
X101368867Y-96983794D01*
X101432203Y-97013296D01*
X101454107Y-97038575D01*
X101495109Y-97101334D01*
X102130477Y-96465967D01*
X102153155Y-96543201D01*
X102232131Y-96666090D01*
X102342530Y-96761752D01*
X102475408Y-96822435D01*
X102480399Y-96823152D01*
X101847139Y-97456412D01*
X101847140Y-97456413D01*
X101871622Y-97475468D01*
X101871632Y-97475475D01*
X102070360Y-97583022D01*
X102070375Y-97583029D01*
X102284106Y-97656403D01*
X102507010Y-97693600D01*
X102732990Y-97693600D01*
X102955893Y-97656403D01*
X103169624Y-97583029D01*
X103169639Y-97583022D01*
X103368366Y-97475476D01*
X103368378Y-97475468D01*
X103392859Y-97456413D01*
X103392859Y-97456412D01*
X102759600Y-96823152D01*
X102764592Y-96822435D01*
X102897470Y-96761752D01*
X103007869Y-96666090D01*
X103086845Y-96543201D01*
X103109522Y-96465969D01*
X103744888Y-97101334D01*
X103786191Y-97038117D01*
X103839337Y-96992760D01*
X103908569Y-96983336D01*
X103971904Y-97012838D01*
X103993809Y-97038117D01*
X104035110Y-97101334D01*
X104670477Y-96465968D01*
X104693155Y-96543201D01*
X104772131Y-96666090D01*
X104882530Y-96761752D01*
X105015408Y-96822435D01*
X105020399Y-96823152D01*
X104387139Y-97456412D01*
X104387140Y-97456413D01*
X104411622Y-97475468D01*
X104411632Y-97475475D01*
X104610360Y-97583022D01*
X104610375Y-97583029D01*
X104824106Y-97656403D01*
X105047010Y-97693600D01*
X105272990Y-97693600D01*
X105495893Y-97656403D01*
X105709624Y-97583029D01*
X105709639Y-97583022D01*
X105908366Y-97475476D01*
X105908378Y-97475468D01*
X105932859Y-97456413D01*
X105932859Y-97456412D01*
X105299600Y-96823152D01*
X105304592Y-96822435D01*
X105437470Y-96761752D01*
X105547869Y-96666090D01*
X105626845Y-96543201D01*
X105649522Y-96465969D01*
X106284889Y-97101335D01*
X106325892Y-97038575D01*
X106379038Y-96993218D01*
X106448270Y-96983794D01*
X106511606Y-97013296D01*
X106533509Y-97038574D01*
X106619842Y-97170716D01*
X106619850Y-97170727D01*
X106772950Y-97337036D01*
X106772954Y-97337040D01*
X106951351Y-97475893D01*
X107150169Y-97583488D01*
X107150172Y-97583489D01*
X107363982Y-97656890D01*
X107363984Y-97656890D01*
X107363986Y-97656891D01*
X107586967Y-97694100D01*
X107586968Y-97694100D01*
X107813032Y-97694100D01*
X107813033Y-97694100D01*
X108036014Y-97656891D01*
X108249831Y-97583488D01*
X108448649Y-97475893D01*
X108627046Y-97337040D01*
X108780156Y-97170719D01*
X108903802Y-96981465D01*
X108994611Y-96774441D01*
X109050107Y-96555293D01*
X109068775Y-96330006D01*
X111411225Y-96330006D01*
X111429892Y-96555289D01*
X111485388Y-96774439D01*
X111576198Y-96981466D01*
X111699842Y-97170716D01*
X111699850Y-97170727D01*
X111852950Y-97337036D01*
X111852954Y-97337040D01*
X112031351Y-97475893D01*
X112230169Y-97583488D01*
X112230172Y-97583489D01*
X112443982Y-97656890D01*
X112443984Y-97656890D01*
X112443986Y-97656891D01*
X112666967Y-97694100D01*
X112666968Y-97694100D01*
X112893032Y-97694100D01*
X112893033Y-97694100D01*
X113116014Y-97656891D01*
X113329831Y-97583488D01*
X113528649Y-97475893D01*
X113707046Y-97337040D01*
X113860156Y-97170719D01*
X113946193Y-97039028D01*
X113999338Y-96993675D01*
X114068569Y-96984251D01*
X114131905Y-97013753D01*
X114153804Y-97039025D01*
X114239844Y-97170719D01*
X114239849Y-97170724D01*
X114239850Y-97170727D01*
X114392950Y-97337036D01*
X114392954Y-97337040D01*
X114571351Y-97475893D01*
X114770169Y-97583488D01*
X114770172Y-97583489D01*
X114983982Y-97656890D01*
X114983984Y-97656890D01*
X114983986Y-97656891D01*
X115206967Y-97694100D01*
X115206968Y-97694100D01*
X115433032Y-97694100D01*
X115433033Y-97694100D01*
X115656014Y-97656891D01*
X115869831Y-97583488D01*
X116068649Y-97475893D01*
X116247046Y-97337040D01*
X116400156Y-97170719D01*
X116486193Y-97039028D01*
X116539338Y-96993675D01*
X116608569Y-96984251D01*
X116671905Y-97013753D01*
X116693804Y-97039025D01*
X116779844Y-97170719D01*
X116779849Y-97170724D01*
X116779850Y-97170727D01*
X116932950Y-97337036D01*
X116932954Y-97337040D01*
X117111351Y-97475893D01*
X117310169Y-97583488D01*
X117310172Y-97583489D01*
X117523982Y-97656890D01*
X117523984Y-97656890D01*
X117523986Y-97656891D01*
X117746967Y-97694100D01*
X117746968Y-97694100D01*
X117973032Y-97694100D01*
X117973033Y-97694100D01*
X118196014Y-97656891D01*
X118409831Y-97583488D01*
X118608649Y-97475893D01*
X118787046Y-97337040D01*
X118940156Y-97170719D01*
X119026193Y-97039028D01*
X119079338Y-96993675D01*
X119148569Y-96984251D01*
X119211905Y-97013753D01*
X119233804Y-97039025D01*
X119319844Y-97170719D01*
X119319849Y-97170724D01*
X119319850Y-97170727D01*
X119472950Y-97337036D01*
X119472954Y-97337040D01*
X119651351Y-97475893D01*
X119850169Y-97583488D01*
X119850172Y-97583489D01*
X120063982Y-97656890D01*
X120063984Y-97656890D01*
X120063986Y-97656891D01*
X120286967Y-97694100D01*
X120286968Y-97694100D01*
X120513032Y-97694100D01*
X120513033Y-97694100D01*
X120736014Y-97656891D01*
X120949831Y-97583488D01*
X121148649Y-97475893D01*
X121327046Y-97337040D01*
X121480156Y-97170719D01*
X121566193Y-97039028D01*
X121619338Y-96993675D01*
X121688569Y-96984251D01*
X121751905Y-97013753D01*
X121773804Y-97039025D01*
X121859844Y-97170719D01*
X121859849Y-97170724D01*
X121859850Y-97170727D01*
X122012950Y-97337036D01*
X122012954Y-97337040D01*
X122191351Y-97475893D01*
X122390169Y-97583488D01*
X122390172Y-97583489D01*
X122603982Y-97656890D01*
X122603984Y-97656890D01*
X122603986Y-97656891D01*
X122826967Y-97694100D01*
X122826968Y-97694100D01*
X123053032Y-97694100D01*
X123053033Y-97694100D01*
X123276014Y-97656891D01*
X123489831Y-97583488D01*
X123688649Y-97475893D01*
X123867046Y-97337040D01*
X124020156Y-97170719D01*
X124106193Y-97039028D01*
X124159338Y-96993675D01*
X124228569Y-96984251D01*
X124291905Y-97013753D01*
X124313804Y-97039025D01*
X124399844Y-97170719D01*
X124399849Y-97170724D01*
X124399850Y-97170727D01*
X124552950Y-97337036D01*
X124552954Y-97337040D01*
X124731351Y-97475893D01*
X124930169Y-97583488D01*
X124930172Y-97583489D01*
X125143982Y-97656890D01*
X125143984Y-97656890D01*
X125143986Y-97656891D01*
X125366967Y-97694100D01*
X125366968Y-97694100D01*
X125593032Y-97694100D01*
X125593033Y-97694100D01*
X125816014Y-97656891D01*
X126029831Y-97583488D01*
X126228649Y-97475893D01*
X126407046Y-97337040D01*
X126560156Y-97170719D01*
X126646193Y-97039028D01*
X126699338Y-96993675D01*
X126768569Y-96984251D01*
X126831905Y-97013753D01*
X126853804Y-97039025D01*
X126939844Y-97170719D01*
X126939849Y-97170724D01*
X126939850Y-97170727D01*
X127092950Y-97337036D01*
X127092954Y-97337040D01*
X127271351Y-97475893D01*
X127470169Y-97583488D01*
X127470172Y-97583489D01*
X127683982Y-97656890D01*
X127683984Y-97656890D01*
X127683986Y-97656891D01*
X127906967Y-97694100D01*
X127906968Y-97694100D01*
X128133032Y-97694100D01*
X128133033Y-97694100D01*
X128356014Y-97656891D01*
X128569831Y-97583488D01*
X128768649Y-97475893D01*
X128947046Y-97337040D01*
X129100156Y-97170719D01*
X129186193Y-97039028D01*
X129239338Y-96993675D01*
X129308569Y-96984251D01*
X129371905Y-97013753D01*
X129393804Y-97039025D01*
X129479844Y-97170719D01*
X129479849Y-97170724D01*
X129479850Y-97170727D01*
X129632950Y-97337036D01*
X129632954Y-97337040D01*
X129811351Y-97475893D01*
X130010169Y-97583488D01*
X130010172Y-97583489D01*
X130223982Y-97656890D01*
X130223984Y-97656890D01*
X130223986Y-97656891D01*
X130446967Y-97694100D01*
X130446968Y-97694100D01*
X130673032Y-97694100D01*
X130673033Y-97694100D01*
X130896014Y-97656891D01*
X131109831Y-97583488D01*
X131308649Y-97475893D01*
X131487046Y-97337040D01*
X131640156Y-97170719D01*
X131763802Y-96981465D01*
X131854611Y-96774441D01*
X131910107Y-96555293D01*
X131928775Y-96330006D01*
X134271225Y-96330006D01*
X134289892Y-96555289D01*
X134345388Y-96774439D01*
X134436198Y-96981466D01*
X134559842Y-97170716D01*
X134559850Y-97170727D01*
X134712950Y-97337036D01*
X134712954Y-97337040D01*
X134891351Y-97475893D01*
X135090169Y-97583488D01*
X135090172Y-97583489D01*
X135303982Y-97656890D01*
X135303984Y-97656890D01*
X135303986Y-97656891D01*
X135526967Y-97694100D01*
X135526968Y-97694100D01*
X135753032Y-97694100D01*
X135753033Y-97694100D01*
X135976014Y-97656891D01*
X136189831Y-97583488D01*
X136388649Y-97475893D01*
X136567046Y-97337040D01*
X136720156Y-97170719D01*
X136806193Y-97039028D01*
X136859338Y-96993675D01*
X136928569Y-96984251D01*
X136991905Y-97013753D01*
X137013804Y-97039025D01*
X137099844Y-97170719D01*
X137099849Y-97170724D01*
X137099850Y-97170727D01*
X137252950Y-97337036D01*
X137252954Y-97337040D01*
X137431351Y-97475893D01*
X137630169Y-97583488D01*
X137630172Y-97583489D01*
X137843982Y-97656890D01*
X137843984Y-97656890D01*
X137843986Y-97656891D01*
X138066967Y-97694100D01*
X138066968Y-97694100D01*
X138293032Y-97694100D01*
X138293033Y-97694100D01*
X138516014Y-97656891D01*
X138729831Y-97583488D01*
X138928649Y-97475893D01*
X139107046Y-97337040D01*
X139260156Y-97170719D01*
X139346193Y-97039028D01*
X139399338Y-96993675D01*
X139468569Y-96984251D01*
X139531905Y-97013753D01*
X139553804Y-97039025D01*
X139639844Y-97170719D01*
X139639849Y-97170724D01*
X139639850Y-97170727D01*
X139792950Y-97337036D01*
X139792954Y-97337040D01*
X139971351Y-97475893D01*
X140170169Y-97583488D01*
X140170172Y-97583489D01*
X140383982Y-97656890D01*
X140383984Y-97656890D01*
X140383986Y-97656891D01*
X140606967Y-97694100D01*
X140606968Y-97694100D01*
X140833032Y-97694100D01*
X140833033Y-97694100D01*
X141056014Y-97656891D01*
X141269831Y-97583488D01*
X141468649Y-97475893D01*
X141647046Y-97337040D01*
X141800156Y-97170719D01*
X141886193Y-97039028D01*
X141939338Y-96993675D01*
X142008569Y-96984251D01*
X142071905Y-97013753D01*
X142093804Y-97039025D01*
X142179844Y-97170719D01*
X142179849Y-97170724D01*
X142179850Y-97170727D01*
X142332950Y-97337036D01*
X142332954Y-97337040D01*
X142511351Y-97475893D01*
X142710169Y-97583488D01*
X142710172Y-97583489D01*
X142923982Y-97656890D01*
X142923984Y-97656890D01*
X142923986Y-97656891D01*
X143146967Y-97694100D01*
X143146968Y-97694100D01*
X143373032Y-97694100D01*
X143373033Y-97694100D01*
X143596014Y-97656891D01*
X143809831Y-97583488D01*
X144008649Y-97475893D01*
X144187046Y-97337040D01*
X144340156Y-97170719D01*
X144426193Y-97039028D01*
X144479338Y-96993675D01*
X144548569Y-96984251D01*
X144611905Y-97013753D01*
X144633804Y-97039025D01*
X144719844Y-97170719D01*
X144719849Y-97170724D01*
X144719850Y-97170727D01*
X144872950Y-97337036D01*
X144872954Y-97337040D01*
X145051351Y-97475893D01*
X145250169Y-97583488D01*
X145250172Y-97583489D01*
X145463982Y-97656890D01*
X145463984Y-97656890D01*
X145463986Y-97656891D01*
X145686967Y-97694100D01*
X145686968Y-97694100D01*
X145913032Y-97694100D01*
X145913033Y-97694100D01*
X146136014Y-97656891D01*
X146349831Y-97583488D01*
X146548649Y-97475893D01*
X146727046Y-97337040D01*
X146880156Y-97170719D01*
X146966193Y-97039028D01*
X147019338Y-96993675D01*
X147088569Y-96984251D01*
X147151905Y-97013753D01*
X147173804Y-97039025D01*
X147259844Y-97170719D01*
X147259849Y-97170724D01*
X147259850Y-97170727D01*
X147412950Y-97337036D01*
X147412954Y-97337040D01*
X147591351Y-97475893D01*
X147790169Y-97583488D01*
X147790172Y-97583489D01*
X148003982Y-97656890D01*
X148003984Y-97656890D01*
X148003986Y-97656891D01*
X148226967Y-97694100D01*
X148226968Y-97694100D01*
X148453032Y-97694100D01*
X148453033Y-97694100D01*
X148676014Y-97656891D01*
X148889831Y-97583488D01*
X149088649Y-97475893D01*
X149267046Y-97337040D01*
X149420156Y-97170719D01*
X149506193Y-97039028D01*
X149559338Y-96993675D01*
X149628569Y-96984251D01*
X149691905Y-97013753D01*
X149713804Y-97039025D01*
X149799844Y-97170719D01*
X149799849Y-97170724D01*
X149799850Y-97170727D01*
X149952950Y-97337036D01*
X149952954Y-97337040D01*
X150131351Y-97475893D01*
X150330169Y-97583488D01*
X150330172Y-97583489D01*
X150543982Y-97656890D01*
X150543984Y-97656890D01*
X150543986Y-97656891D01*
X150766967Y-97694100D01*
X150766968Y-97694100D01*
X150993032Y-97694100D01*
X150993033Y-97694100D01*
X151216014Y-97656891D01*
X151429831Y-97583488D01*
X151628649Y-97475893D01*
X151807046Y-97337040D01*
X151960156Y-97170719D01*
X152046193Y-97039028D01*
X152099338Y-96993675D01*
X152168569Y-96984251D01*
X152231905Y-97013753D01*
X152253804Y-97039025D01*
X152339844Y-97170719D01*
X152339849Y-97170724D01*
X152339850Y-97170727D01*
X152492950Y-97337036D01*
X152492954Y-97337040D01*
X152671351Y-97475893D01*
X152870169Y-97583488D01*
X152870172Y-97583489D01*
X153083982Y-97656890D01*
X153083984Y-97656890D01*
X153083986Y-97656891D01*
X153306967Y-97694100D01*
X153306968Y-97694100D01*
X153533032Y-97694100D01*
X153533033Y-97694100D01*
X153756014Y-97656891D01*
X153969831Y-97583488D01*
X154168649Y-97475893D01*
X154347046Y-97337040D01*
X154500156Y-97170719D01*
X154623802Y-96981465D01*
X154714611Y-96774441D01*
X154770107Y-96555293D01*
X154788775Y-96330000D01*
X154788775Y-96329993D01*
X154770107Y-96104710D01*
X154770107Y-96104707D01*
X154714611Y-95885559D01*
X154623802Y-95678535D01*
X154622578Y-95676662D01*
X154500157Y-95489283D01*
X154500149Y-95489272D01*
X154347049Y-95322963D01*
X154347048Y-95322962D01*
X154347046Y-95322960D01*
X154168649Y-95184107D01*
X154142390Y-95169896D01*
X153969832Y-95076512D01*
X153969827Y-95076510D01*
X153756017Y-95003109D01*
X153588778Y-94975202D01*
X153533033Y-94965900D01*
X153306967Y-94965900D01*
X153262370Y-94973341D01*
X153083982Y-95003109D01*
X152870172Y-95076510D01*
X152870167Y-95076512D01*
X152671352Y-95184106D01*
X152492955Y-95322959D01*
X152492950Y-95322963D01*
X152339850Y-95489272D01*
X152339842Y-95489283D01*
X152253808Y-95620968D01*
X152200662Y-95666325D01*
X152131430Y-95675748D01*
X152068095Y-95646246D01*
X152046192Y-95620968D01*
X151960157Y-95489283D01*
X151960149Y-95489272D01*
X151807049Y-95322963D01*
X151807048Y-95322962D01*
X151807046Y-95322960D01*
X151628649Y-95184107D01*
X151602390Y-95169896D01*
X151429832Y-95076512D01*
X151429827Y-95076510D01*
X151216017Y-95003109D01*
X151048778Y-94975202D01*
X150993033Y-94965900D01*
X150766967Y-94965900D01*
X150722370Y-94973341D01*
X150543982Y-95003109D01*
X150330172Y-95076510D01*
X150330167Y-95076512D01*
X150131352Y-95184106D01*
X149952955Y-95322959D01*
X149952950Y-95322963D01*
X149799850Y-95489272D01*
X149799842Y-95489283D01*
X149713808Y-95620968D01*
X149660662Y-95666325D01*
X149591430Y-95675748D01*
X149528095Y-95646246D01*
X149506192Y-95620968D01*
X149420157Y-95489283D01*
X149420149Y-95489272D01*
X149267049Y-95322963D01*
X149267048Y-95322962D01*
X149267046Y-95322960D01*
X149088649Y-95184107D01*
X149062390Y-95169896D01*
X148889832Y-95076512D01*
X148889827Y-95076510D01*
X148676017Y-95003109D01*
X148508778Y-94975202D01*
X148453033Y-94965900D01*
X148226967Y-94965900D01*
X148182370Y-94973341D01*
X148003982Y-95003109D01*
X147790172Y-95076510D01*
X147790167Y-95076512D01*
X147591352Y-95184106D01*
X147412955Y-95322959D01*
X147412950Y-95322963D01*
X147259850Y-95489272D01*
X147259842Y-95489283D01*
X147173808Y-95620968D01*
X147120662Y-95666325D01*
X147051430Y-95675748D01*
X146988095Y-95646246D01*
X146966192Y-95620968D01*
X146880157Y-95489283D01*
X146880149Y-95489272D01*
X146727049Y-95322963D01*
X146727048Y-95322962D01*
X146727046Y-95322960D01*
X146548649Y-95184107D01*
X146522390Y-95169896D01*
X146349832Y-95076512D01*
X146349827Y-95076510D01*
X146136017Y-95003109D01*
X145968778Y-94975202D01*
X145913033Y-94965900D01*
X145686967Y-94965900D01*
X145642370Y-94973341D01*
X145463982Y-95003109D01*
X145250172Y-95076510D01*
X145250167Y-95076512D01*
X145051352Y-95184106D01*
X144872955Y-95322959D01*
X144872950Y-95322963D01*
X144719850Y-95489272D01*
X144719842Y-95489283D01*
X144633808Y-95620968D01*
X144580662Y-95666325D01*
X144511430Y-95675748D01*
X144448095Y-95646246D01*
X144426192Y-95620968D01*
X144340157Y-95489283D01*
X144340149Y-95489272D01*
X144187049Y-95322963D01*
X144187048Y-95322962D01*
X144187046Y-95322960D01*
X144008649Y-95184107D01*
X143982390Y-95169896D01*
X143809832Y-95076512D01*
X143809827Y-95076510D01*
X143596017Y-95003109D01*
X143428778Y-94975202D01*
X143373033Y-94965900D01*
X143146967Y-94965900D01*
X143102370Y-94973341D01*
X142923982Y-95003109D01*
X142710172Y-95076510D01*
X142710167Y-95076512D01*
X142511352Y-95184106D01*
X142332955Y-95322959D01*
X142332950Y-95322963D01*
X142179850Y-95489272D01*
X142179842Y-95489283D01*
X142093808Y-95620968D01*
X142040662Y-95666325D01*
X141971430Y-95675748D01*
X141908095Y-95646246D01*
X141886192Y-95620968D01*
X141800157Y-95489283D01*
X141800149Y-95489272D01*
X141647049Y-95322963D01*
X141647048Y-95322962D01*
X141647046Y-95322960D01*
X141468649Y-95184107D01*
X141442390Y-95169896D01*
X141269832Y-95076512D01*
X141269827Y-95076510D01*
X141056017Y-95003109D01*
X140888778Y-94975202D01*
X140833033Y-94965900D01*
X140606967Y-94965900D01*
X140562370Y-94973341D01*
X140383982Y-95003109D01*
X140170172Y-95076510D01*
X140170167Y-95076512D01*
X139971352Y-95184106D01*
X139792955Y-95322959D01*
X139792950Y-95322963D01*
X139639850Y-95489272D01*
X139639842Y-95489283D01*
X139553808Y-95620968D01*
X139500662Y-95666325D01*
X139431430Y-95675748D01*
X139368095Y-95646246D01*
X139346192Y-95620968D01*
X139260157Y-95489283D01*
X139260149Y-95489272D01*
X139107049Y-95322963D01*
X139107048Y-95322962D01*
X139107046Y-95322960D01*
X138928649Y-95184107D01*
X138902390Y-95169896D01*
X138729832Y-95076512D01*
X138729827Y-95076510D01*
X138516017Y-95003109D01*
X138348778Y-94975202D01*
X138293033Y-94965900D01*
X138066967Y-94965900D01*
X138022370Y-94973341D01*
X137843982Y-95003109D01*
X137630172Y-95076510D01*
X137630167Y-95076512D01*
X137431352Y-95184106D01*
X137252955Y-95322959D01*
X137252950Y-95322963D01*
X137099850Y-95489272D01*
X137099842Y-95489283D01*
X137013808Y-95620968D01*
X136960662Y-95666325D01*
X136891430Y-95675748D01*
X136828095Y-95646246D01*
X136806192Y-95620968D01*
X136720157Y-95489283D01*
X136720149Y-95489272D01*
X136567049Y-95322963D01*
X136567048Y-95322962D01*
X136567046Y-95322960D01*
X136388649Y-95184107D01*
X136362390Y-95169896D01*
X136189832Y-95076512D01*
X136189827Y-95076510D01*
X135976017Y-95003109D01*
X135808778Y-94975202D01*
X135753033Y-94965900D01*
X135526967Y-94965900D01*
X135482370Y-94973341D01*
X135303982Y-95003109D01*
X135090172Y-95076510D01*
X135090167Y-95076512D01*
X134891352Y-95184106D01*
X134712955Y-95322959D01*
X134712950Y-95322963D01*
X134559850Y-95489272D01*
X134559842Y-95489283D01*
X134436198Y-95678533D01*
X134345388Y-95885560D01*
X134289892Y-96104710D01*
X134271225Y-96329993D01*
X134271225Y-96330006D01*
X131928775Y-96330006D01*
X131928775Y-96330000D01*
X131928775Y-96329993D01*
X131910107Y-96104710D01*
X131910107Y-96104707D01*
X131854611Y-95885559D01*
X131763802Y-95678535D01*
X131762578Y-95676662D01*
X131640157Y-95489283D01*
X131640149Y-95489272D01*
X131487049Y-95322963D01*
X131487048Y-95322962D01*
X131487046Y-95322960D01*
X131308649Y-95184107D01*
X131282390Y-95169896D01*
X131109832Y-95076512D01*
X131109827Y-95076510D01*
X130896017Y-95003109D01*
X130728778Y-94975202D01*
X130673033Y-94965900D01*
X130446967Y-94965900D01*
X130402370Y-94973341D01*
X130223982Y-95003109D01*
X130010172Y-95076510D01*
X130010167Y-95076512D01*
X129811352Y-95184106D01*
X129632955Y-95322959D01*
X129632950Y-95322963D01*
X129479850Y-95489272D01*
X129479842Y-95489283D01*
X129393808Y-95620968D01*
X129340662Y-95666325D01*
X129271430Y-95675748D01*
X129208095Y-95646246D01*
X129186192Y-95620968D01*
X129100157Y-95489283D01*
X129100149Y-95489272D01*
X128947049Y-95322963D01*
X128947048Y-95322962D01*
X128947046Y-95322960D01*
X128768649Y-95184107D01*
X128742390Y-95169896D01*
X128569832Y-95076512D01*
X128569827Y-95076510D01*
X128356017Y-95003109D01*
X128188778Y-94975202D01*
X128133033Y-94965900D01*
X127906967Y-94965900D01*
X127862370Y-94973341D01*
X127683982Y-95003109D01*
X127470172Y-95076510D01*
X127470167Y-95076512D01*
X127271352Y-95184106D01*
X127092955Y-95322959D01*
X127092950Y-95322963D01*
X126939850Y-95489272D01*
X126939842Y-95489283D01*
X126853808Y-95620968D01*
X126800662Y-95666325D01*
X126731430Y-95675748D01*
X126668095Y-95646246D01*
X126646192Y-95620968D01*
X126560157Y-95489283D01*
X126560149Y-95489272D01*
X126407049Y-95322963D01*
X126407048Y-95322962D01*
X126407046Y-95322960D01*
X126228649Y-95184107D01*
X126202390Y-95169896D01*
X126029832Y-95076512D01*
X126029827Y-95076510D01*
X125816017Y-95003109D01*
X125648778Y-94975202D01*
X125593033Y-94965900D01*
X125366967Y-94965900D01*
X125322370Y-94973341D01*
X125143982Y-95003109D01*
X124930172Y-95076510D01*
X124930167Y-95076512D01*
X124731352Y-95184106D01*
X124552955Y-95322959D01*
X124552950Y-95322963D01*
X124399850Y-95489272D01*
X124399842Y-95489283D01*
X124313808Y-95620968D01*
X124260662Y-95666325D01*
X124191430Y-95675748D01*
X124128095Y-95646246D01*
X124106192Y-95620968D01*
X124020157Y-95489283D01*
X124020149Y-95489272D01*
X123867049Y-95322963D01*
X123867048Y-95322962D01*
X123867046Y-95322960D01*
X123688649Y-95184107D01*
X123662390Y-95169896D01*
X123489832Y-95076512D01*
X123489827Y-95076510D01*
X123276017Y-95003109D01*
X123108778Y-94975202D01*
X123053033Y-94965900D01*
X122826967Y-94965900D01*
X122782370Y-94973341D01*
X122603982Y-95003109D01*
X122390172Y-95076510D01*
X122390167Y-95076512D01*
X122191352Y-95184106D01*
X122012955Y-95322959D01*
X122012950Y-95322963D01*
X121859850Y-95489272D01*
X121859842Y-95489283D01*
X121773808Y-95620968D01*
X121720662Y-95666325D01*
X121651430Y-95675748D01*
X121588095Y-95646246D01*
X121566192Y-95620968D01*
X121480157Y-95489283D01*
X121480149Y-95489272D01*
X121327049Y-95322963D01*
X121327048Y-95322962D01*
X121327046Y-95322960D01*
X121148649Y-95184107D01*
X121122390Y-95169896D01*
X120949832Y-95076512D01*
X120949827Y-95076510D01*
X120736017Y-95003109D01*
X120568778Y-94975202D01*
X120513033Y-94965900D01*
X120286967Y-94965900D01*
X120242370Y-94973341D01*
X120063982Y-95003109D01*
X119850172Y-95076510D01*
X119850167Y-95076512D01*
X119651352Y-95184106D01*
X119472955Y-95322959D01*
X119472950Y-95322963D01*
X119319850Y-95489272D01*
X119319842Y-95489283D01*
X119233808Y-95620968D01*
X119180662Y-95666325D01*
X119111430Y-95675748D01*
X119048095Y-95646246D01*
X119026192Y-95620968D01*
X118940157Y-95489283D01*
X118940149Y-95489272D01*
X118787049Y-95322963D01*
X118787048Y-95322962D01*
X118787046Y-95322960D01*
X118608649Y-95184107D01*
X118582390Y-95169896D01*
X118409832Y-95076512D01*
X118409827Y-95076510D01*
X118196017Y-95003109D01*
X118028778Y-94975202D01*
X117973033Y-94965900D01*
X117746967Y-94965900D01*
X117702370Y-94973341D01*
X117523982Y-95003109D01*
X117310172Y-95076510D01*
X117310167Y-95076512D01*
X117111352Y-95184106D01*
X116932955Y-95322959D01*
X116932950Y-95322963D01*
X116779850Y-95489272D01*
X116779842Y-95489283D01*
X116693808Y-95620968D01*
X116640662Y-95666325D01*
X116571430Y-95675748D01*
X116508095Y-95646246D01*
X116486192Y-95620968D01*
X116400157Y-95489283D01*
X116400149Y-95489272D01*
X116247049Y-95322963D01*
X116247048Y-95322962D01*
X116247046Y-95322960D01*
X116068649Y-95184107D01*
X116042390Y-95169896D01*
X115869832Y-95076512D01*
X115869827Y-95076510D01*
X115656017Y-95003109D01*
X115488778Y-94975202D01*
X115433033Y-94965900D01*
X115206967Y-94965900D01*
X115162370Y-94973341D01*
X114983982Y-95003109D01*
X114770172Y-95076510D01*
X114770167Y-95076512D01*
X114571352Y-95184106D01*
X114392955Y-95322959D01*
X114392950Y-95322963D01*
X114239850Y-95489272D01*
X114239842Y-95489283D01*
X114153808Y-95620968D01*
X114100662Y-95666325D01*
X114031430Y-95675748D01*
X113968095Y-95646246D01*
X113946192Y-95620968D01*
X113860157Y-95489283D01*
X113860149Y-95489272D01*
X113707049Y-95322963D01*
X113707048Y-95322962D01*
X113707046Y-95322960D01*
X113528649Y-95184107D01*
X113502390Y-95169896D01*
X113329832Y-95076512D01*
X113329827Y-95076510D01*
X113116017Y-95003109D01*
X112948778Y-94975202D01*
X112893033Y-94965900D01*
X112666967Y-94965900D01*
X112622370Y-94973341D01*
X112443982Y-95003109D01*
X112230172Y-95076510D01*
X112230167Y-95076512D01*
X112031352Y-95184106D01*
X111852955Y-95322959D01*
X111852950Y-95322963D01*
X111699850Y-95489272D01*
X111699842Y-95489283D01*
X111576198Y-95678533D01*
X111485388Y-95885560D01*
X111429892Y-96104710D01*
X111411225Y-96329993D01*
X111411225Y-96330006D01*
X109068775Y-96330006D01*
X109068775Y-96330000D01*
X109068775Y-96329993D01*
X109050107Y-96104710D01*
X109050107Y-96104707D01*
X108994611Y-95885559D01*
X108903802Y-95678535D01*
X108902578Y-95676662D01*
X108780157Y-95489283D01*
X108780149Y-95489272D01*
X108627049Y-95322963D01*
X108627048Y-95322962D01*
X108627046Y-95322960D01*
X108448649Y-95184107D01*
X108422390Y-95169896D01*
X108249832Y-95076512D01*
X108249827Y-95076510D01*
X108036017Y-95003109D01*
X107868778Y-94975202D01*
X107813033Y-94965900D01*
X107586967Y-94965900D01*
X107542370Y-94973341D01*
X107363982Y-95003109D01*
X107150172Y-95076510D01*
X107150167Y-95076512D01*
X106951352Y-95184106D01*
X106772955Y-95322959D01*
X106772950Y-95322963D01*
X106619850Y-95489272D01*
X106619842Y-95489283D01*
X106533509Y-95621425D01*
X106480363Y-95666782D01*
X106411131Y-95676205D01*
X106347796Y-95646702D01*
X106325892Y-95621424D01*
X106284888Y-95558663D01*
X105649521Y-96194029D01*
X105626845Y-96116799D01*
X105547869Y-95993910D01*
X105437470Y-95898248D01*
X105304592Y-95837565D01*
X105299599Y-95836847D01*
X105932859Y-95203587D01*
X105932858Y-95203585D01*
X105908378Y-95184531D01*
X105908368Y-95184524D01*
X105709639Y-95076977D01*
X105709624Y-95076970D01*
X105495893Y-95003596D01*
X105272990Y-94966400D01*
X105047010Y-94966400D01*
X104824106Y-95003596D01*
X104610375Y-95076970D01*
X104610369Y-95076972D01*
X104411623Y-95184529D01*
X104411617Y-95184533D01*
X104387140Y-95203584D01*
X104387140Y-95203586D01*
X105020401Y-95836847D01*
X105015408Y-95837565D01*
X104882530Y-95898248D01*
X104772131Y-95993910D01*
X104693155Y-96116799D01*
X104670477Y-96194031D01*
X104035109Y-95558663D01*
X103993808Y-95621881D01*
X103940662Y-95667238D01*
X103871431Y-95676662D01*
X103808095Y-95647161D01*
X103786190Y-95621881D01*
X103744888Y-95558664D01*
X103109521Y-96194030D01*
X103086845Y-96116799D01*
X103007869Y-95993910D01*
X102897470Y-95898248D01*
X102764592Y-95837565D01*
X102759599Y-95836847D01*
X103392859Y-95203587D01*
X103392858Y-95203585D01*
X103368378Y-95184531D01*
X103368368Y-95184524D01*
X103169639Y-95076977D01*
X103169624Y-95076970D01*
X102955893Y-95003596D01*
X102732990Y-94966400D01*
X102507010Y-94966400D01*
X102284106Y-95003596D01*
X102070375Y-95076970D01*
X102070369Y-95076972D01*
X101871623Y-95184529D01*
X101871617Y-95184533D01*
X101847140Y-95203584D01*
X101847140Y-95203586D01*
X102480401Y-95836847D01*
X102475408Y-95837565D01*
X102342530Y-95898248D01*
X102232131Y-95993910D01*
X102153155Y-96116799D01*
X102130477Y-96194031D01*
X101495109Y-95558663D01*
X101454107Y-95621424D01*
X101400961Y-95666781D01*
X101331730Y-95676205D01*
X101268394Y-95646704D01*
X101246493Y-95621430D01*
X101160156Y-95489281D01*
X101160149Y-95489274D01*
X101160149Y-95489272D01*
X101007049Y-95322963D01*
X101007048Y-95322962D01*
X101007046Y-95322960D01*
X100828649Y-95184107D01*
X100802390Y-95169896D01*
X100629832Y-95076512D01*
X100629827Y-95076510D01*
X100416017Y-95003109D01*
X100248778Y-94975202D01*
X100193033Y-94965900D01*
X99966967Y-94965900D01*
X99922370Y-94973341D01*
X99743982Y-95003109D01*
X99530172Y-95076510D01*
X99530167Y-95076512D01*
X99331352Y-95184106D01*
X99152955Y-95322959D01*
X99152950Y-95322963D01*
X98999850Y-95489272D01*
X98999842Y-95489283D01*
X98913808Y-95620968D01*
X98860662Y-95666325D01*
X98791430Y-95675748D01*
X98728095Y-95646246D01*
X98706192Y-95620968D01*
X98620157Y-95489283D01*
X98620149Y-95489272D01*
X98467049Y-95322963D01*
X98467048Y-95322962D01*
X98467046Y-95322960D01*
X98288649Y-95184107D01*
X98262390Y-95169896D01*
X98089832Y-95076512D01*
X98089827Y-95076510D01*
X97876017Y-95003109D01*
X97708778Y-94975202D01*
X97653033Y-94965900D01*
X97426967Y-94965900D01*
X97382370Y-94973341D01*
X97203982Y-95003109D01*
X96990172Y-95076510D01*
X96990167Y-95076512D01*
X96791352Y-95184106D01*
X96612955Y-95322959D01*
X96612950Y-95322963D01*
X96459850Y-95489272D01*
X96459842Y-95489283D01*
X96373808Y-95620968D01*
X96320662Y-95666325D01*
X96251430Y-95675748D01*
X96188095Y-95646246D01*
X96166192Y-95620968D01*
X96080157Y-95489283D01*
X96080149Y-95489272D01*
X95927049Y-95322963D01*
X95927048Y-95322962D01*
X95927046Y-95322960D01*
X95748649Y-95184107D01*
X95722390Y-95169896D01*
X95549832Y-95076512D01*
X95549827Y-95076510D01*
X95336017Y-95003109D01*
X95168778Y-94975202D01*
X95113033Y-94965900D01*
X94886967Y-94965900D01*
X94842370Y-94973341D01*
X94663982Y-95003109D01*
X94450172Y-95076510D01*
X94450167Y-95076512D01*
X94251352Y-95184106D01*
X94072955Y-95322959D01*
X94072950Y-95322963D01*
X93919850Y-95489272D01*
X93919842Y-95489283D01*
X93833808Y-95620968D01*
X93780662Y-95666325D01*
X93711430Y-95675748D01*
X93648095Y-95646246D01*
X93626192Y-95620968D01*
X93540157Y-95489283D01*
X93540149Y-95489272D01*
X93387049Y-95322963D01*
X93387048Y-95322962D01*
X93387046Y-95322960D01*
X93208649Y-95184107D01*
X93182390Y-95169896D01*
X93009832Y-95076512D01*
X93009827Y-95076510D01*
X92796017Y-95003109D01*
X92628778Y-94975202D01*
X92573033Y-94965900D01*
X92346967Y-94965900D01*
X92302370Y-94973341D01*
X92123982Y-95003109D01*
X91910172Y-95076510D01*
X91910167Y-95076512D01*
X91711352Y-95184106D01*
X91532955Y-95322959D01*
X91532950Y-95322963D01*
X91379850Y-95489272D01*
X91379842Y-95489283D01*
X91293808Y-95620968D01*
X91240662Y-95666325D01*
X91171430Y-95675748D01*
X91108095Y-95646246D01*
X91086192Y-95620968D01*
X91000157Y-95489283D01*
X91000149Y-95489272D01*
X90847049Y-95322963D01*
X90847048Y-95322962D01*
X90847046Y-95322960D01*
X90668649Y-95184107D01*
X90642390Y-95169896D01*
X90469832Y-95076512D01*
X90469827Y-95076510D01*
X90256017Y-95003109D01*
X90088778Y-94975202D01*
X90033033Y-94965900D01*
X89806967Y-94965900D01*
X89762370Y-94973341D01*
X89583982Y-95003109D01*
X89370172Y-95076510D01*
X89370167Y-95076512D01*
X89171352Y-95184106D01*
X88992955Y-95322959D01*
X88992950Y-95322963D01*
X88839850Y-95489272D01*
X88839842Y-95489283D01*
X88716198Y-95678533D01*
X88625388Y-95885560D01*
X88569892Y-96104710D01*
X88551225Y-96329993D01*
X88551225Y-96330006D01*
X77799118Y-96330006D01*
X77799118Y-90747844D01*
X104170000Y-90747844D01*
X104176401Y-90807372D01*
X104176403Y-90807379D01*
X104226645Y-90942086D01*
X104226649Y-90942093D01*
X104312809Y-91057187D01*
X104312812Y-91057190D01*
X104427906Y-91143350D01*
X104427913Y-91143354D01*
X104562620Y-91193596D01*
X104562627Y-91193598D01*
X104622155Y-91199999D01*
X104622172Y-91200000D01*
X105220000Y-91200000D01*
X105220000Y-90215686D01*
X105231955Y-90227641D01*
X105344852Y-90285165D01*
X105438519Y-90300000D01*
X105501481Y-90300000D01*
X105595148Y-90285165D01*
X105708045Y-90227641D01*
X105720000Y-90215686D01*
X105720000Y-91200000D01*
X106317828Y-91200000D01*
X106317844Y-91199999D01*
X106377372Y-91193598D01*
X106377379Y-91193596D01*
X106512086Y-91143354D01*
X106512093Y-91143350D01*
X106627187Y-91057190D01*
X106627190Y-91057187D01*
X106713350Y-90942093D01*
X106713354Y-90942086D01*
X106763596Y-90807380D01*
X106767424Y-90771781D01*
X106794162Y-90707230D01*
X106851555Y-90667382D01*
X106921380Y-90664888D01*
X106981469Y-90700540D01*
X106992289Y-90713912D01*
X107009956Y-90739143D01*
X107170858Y-90900045D01*
X107170861Y-90900047D01*
X107357266Y-91030568D01*
X107563504Y-91126739D01*
X107783308Y-91185635D01*
X107945230Y-91199801D01*
X108009998Y-91205468D01*
X108010000Y-91205468D01*
X108010002Y-91205468D01*
X108072511Y-91199999D01*
X108236692Y-91185635D01*
X108456496Y-91126739D01*
X108662734Y-91030568D01*
X108849139Y-90900047D01*
X109010047Y-90739139D01*
X109140568Y-90552734D01*
X109167618Y-90494724D01*
X109213790Y-90442285D01*
X109280983Y-90423133D01*
X109347865Y-90443348D01*
X109392382Y-90494725D01*
X109419429Y-90552728D01*
X109419432Y-90552734D01*
X109549954Y-90739141D01*
X109710858Y-90900045D01*
X109710861Y-90900047D01*
X109897266Y-91030568D01*
X110103504Y-91126739D01*
X110323308Y-91185635D01*
X110485230Y-91199801D01*
X110549998Y-91205468D01*
X110550000Y-91205468D01*
X110550002Y-91205468D01*
X110612511Y-91199999D01*
X110776692Y-91185635D01*
X110996496Y-91126739D01*
X111202734Y-91030568D01*
X111389139Y-90900047D01*
X111550047Y-90739139D01*
X111680568Y-90552734D01*
X111707618Y-90494724D01*
X111753790Y-90442285D01*
X111820983Y-90423133D01*
X111887865Y-90443348D01*
X111932382Y-90494725D01*
X111959429Y-90552728D01*
X111959432Y-90552734D01*
X112089954Y-90739141D01*
X112250858Y-90900045D01*
X112250861Y-90900047D01*
X112437266Y-91030568D01*
X112643504Y-91126739D01*
X112863308Y-91185635D01*
X113025230Y-91199801D01*
X113089998Y-91205468D01*
X113090000Y-91205468D01*
X113090002Y-91205468D01*
X113152511Y-91199999D01*
X113316692Y-91185635D01*
X113536496Y-91126739D01*
X113742734Y-91030568D01*
X113929139Y-90900047D01*
X114090047Y-90739139D01*
X114220568Y-90552734D01*
X114247618Y-90494724D01*
X114293790Y-90442285D01*
X114360983Y-90423133D01*
X114427865Y-90443348D01*
X114472382Y-90494725D01*
X114499429Y-90552728D01*
X114499432Y-90552734D01*
X114629954Y-90739141D01*
X114790858Y-90900045D01*
X114790861Y-90900047D01*
X114977266Y-91030568D01*
X115183504Y-91126739D01*
X115403308Y-91185635D01*
X115565230Y-91199801D01*
X115629998Y-91205468D01*
X115630000Y-91205468D01*
X115630002Y-91205468D01*
X115692511Y-91199999D01*
X115856692Y-91185635D01*
X116076496Y-91126739D01*
X116282734Y-91030568D01*
X116469139Y-90900047D01*
X116630047Y-90739139D01*
X116760568Y-90552734D01*
X116787618Y-90494724D01*
X116833790Y-90442285D01*
X116900983Y-90423133D01*
X116967865Y-90443348D01*
X117012382Y-90494725D01*
X117039429Y-90552728D01*
X117039432Y-90552734D01*
X117169954Y-90739141D01*
X117330858Y-90900045D01*
X117330861Y-90900047D01*
X117517266Y-91030568D01*
X117723504Y-91126739D01*
X117943308Y-91185635D01*
X118105230Y-91199801D01*
X118169998Y-91205468D01*
X118170000Y-91205468D01*
X118170002Y-91205468D01*
X118232511Y-91199999D01*
X118396692Y-91185635D01*
X118616496Y-91126739D01*
X118822734Y-91030568D01*
X119009139Y-90900047D01*
X119170047Y-90739139D01*
X119300568Y-90552734D01*
X119327618Y-90494724D01*
X119373790Y-90442285D01*
X119440983Y-90423133D01*
X119507865Y-90443348D01*
X119552382Y-90494725D01*
X119579429Y-90552728D01*
X119579432Y-90552734D01*
X119709954Y-90739141D01*
X119870858Y-90900045D01*
X119870861Y-90900047D01*
X120057266Y-91030568D01*
X120263504Y-91126739D01*
X120483308Y-91185635D01*
X120645230Y-91199801D01*
X120709998Y-91205468D01*
X120710000Y-91205468D01*
X120710002Y-91205468D01*
X120772511Y-91199999D01*
X120936692Y-91185635D01*
X121156496Y-91126739D01*
X121362734Y-91030568D01*
X121549139Y-90900047D01*
X121710047Y-90739139D01*
X121840568Y-90552734D01*
X121867618Y-90494724D01*
X121913790Y-90442285D01*
X121980983Y-90423133D01*
X122047865Y-90443348D01*
X122092382Y-90494725D01*
X122119429Y-90552728D01*
X122119432Y-90552734D01*
X122249954Y-90739141D01*
X122410858Y-90900045D01*
X122410861Y-90900047D01*
X122597266Y-91030568D01*
X122803504Y-91126739D01*
X123023308Y-91185635D01*
X123185230Y-91199801D01*
X123249998Y-91205468D01*
X123250000Y-91205468D01*
X123250002Y-91205468D01*
X123312511Y-91199999D01*
X123476692Y-91185635D01*
X123696496Y-91126739D01*
X123902734Y-91030568D01*
X124089139Y-90900047D01*
X124250047Y-90739139D01*
X124380568Y-90552734D01*
X124407618Y-90494724D01*
X124453790Y-90442285D01*
X124520983Y-90423133D01*
X124587865Y-90443348D01*
X124632382Y-90494725D01*
X124659429Y-90552728D01*
X124659432Y-90552734D01*
X124789954Y-90739141D01*
X124950858Y-90900045D01*
X124950861Y-90900047D01*
X125137266Y-91030568D01*
X125343504Y-91126739D01*
X125563308Y-91185635D01*
X125725230Y-91199801D01*
X125789998Y-91205468D01*
X125790000Y-91205468D01*
X125790002Y-91205468D01*
X125852511Y-91199999D01*
X126016692Y-91185635D01*
X126236496Y-91126739D01*
X126442734Y-91030568D01*
X126629139Y-90900047D01*
X126790047Y-90739139D01*
X126920568Y-90552734D01*
X127016739Y-90346496D01*
X127075635Y-90126692D01*
X127095468Y-89900000D01*
X127075635Y-89673308D01*
X127016739Y-89453504D01*
X126920568Y-89247266D01*
X126790047Y-89060861D01*
X126790045Y-89060858D01*
X126629141Y-88899954D01*
X126442734Y-88769432D01*
X126442732Y-88769431D01*
X126236497Y-88673261D01*
X126236488Y-88673258D01*
X126016697Y-88614366D01*
X126016693Y-88614365D01*
X126016692Y-88614365D01*
X126016691Y-88614364D01*
X126016686Y-88614364D01*
X125790002Y-88594532D01*
X125789998Y-88594532D01*
X125563313Y-88614364D01*
X125563302Y-88614366D01*
X125343511Y-88673258D01*
X125343502Y-88673261D01*
X125137267Y-88769431D01*
X125137265Y-88769432D01*
X124950858Y-88899954D01*
X124789954Y-89060858D01*
X124659432Y-89247265D01*
X124659431Y-89247267D01*
X124632382Y-89305275D01*
X124586209Y-89357714D01*
X124519016Y-89376866D01*
X124452135Y-89356650D01*
X124407618Y-89305275D01*
X124380568Y-89247267D01*
X124380567Y-89247265D01*
X124250045Y-89060858D01*
X124089141Y-88899954D01*
X123902734Y-88769432D01*
X123902732Y-88769431D01*
X123696497Y-88673261D01*
X123696488Y-88673258D01*
X123476697Y-88614366D01*
X123476693Y-88614365D01*
X123476692Y-88614365D01*
X123476691Y-88614364D01*
X123476686Y-88614364D01*
X123250002Y-88594532D01*
X123249998Y-88594532D01*
X123023313Y-88614364D01*
X123023302Y-88614366D01*
X122803511Y-88673258D01*
X122803502Y-88673261D01*
X122597267Y-88769431D01*
X122597265Y-88769432D01*
X122410858Y-88899954D01*
X122249954Y-89060858D01*
X122119432Y-89247265D01*
X122119431Y-89247267D01*
X122092382Y-89305275D01*
X122046209Y-89357714D01*
X121979016Y-89376866D01*
X121912135Y-89356650D01*
X121867618Y-89305275D01*
X121840568Y-89247267D01*
X121840567Y-89247265D01*
X121710045Y-89060858D01*
X121549141Y-88899954D01*
X121362734Y-88769432D01*
X121362732Y-88769431D01*
X121156497Y-88673261D01*
X121156488Y-88673258D01*
X120936697Y-88614366D01*
X120936693Y-88614365D01*
X120936692Y-88614365D01*
X120936691Y-88614364D01*
X120936686Y-88614364D01*
X120710002Y-88594532D01*
X120709998Y-88594532D01*
X120483313Y-88614364D01*
X120483302Y-88614366D01*
X120263511Y-88673258D01*
X120263502Y-88673261D01*
X120057267Y-88769431D01*
X120057265Y-88769432D01*
X119870858Y-88899954D01*
X119709954Y-89060858D01*
X119579432Y-89247265D01*
X119579431Y-89247267D01*
X119552382Y-89305275D01*
X119506209Y-89357714D01*
X119439016Y-89376866D01*
X119372135Y-89356650D01*
X119327618Y-89305275D01*
X119300568Y-89247267D01*
X119300567Y-89247265D01*
X119170045Y-89060858D01*
X119009141Y-88899954D01*
X118822734Y-88769432D01*
X118822732Y-88769431D01*
X118616497Y-88673261D01*
X118616488Y-88673258D01*
X118396697Y-88614366D01*
X118396693Y-88614365D01*
X118396692Y-88614365D01*
X118396691Y-88614364D01*
X118396686Y-88614364D01*
X118170002Y-88594532D01*
X118169998Y-88594532D01*
X117943313Y-88614364D01*
X117943302Y-88614366D01*
X117723511Y-88673258D01*
X117723502Y-88673261D01*
X117517267Y-88769431D01*
X117517265Y-88769432D01*
X117330858Y-88899954D01*
X117169954Y-89060858D01*
X117039432Y-89247265D01*
X117039431Y-89247267D01*
X117012382Y-89305275D01*
X116966209Y-89357714D01*
X116899016Y-89376866D01*
X116832135Y-89356650D01*
X116787618Y-89305275D01*
X116760568Y-89247267D01*
X116760567Y-89247265D01*
X116630045Y-89060858D01*
X116469141Y-88899954D01*
X116282734Y-88769432D01*
X116282732Y-88769431D01*
X116076497Y-88673261D01*
X116076488Y-88673258D01*
X115856697Y-88614366D01*
X115856693Y-88614365D01*
X115856692Y-88614365D01*
X115856691Y-88614364D01*
X115856686Y-88614364D01*
X115630002Y-88594532D01*
X115629998Y-88594532D01*
X115403313Y-88614364D01*
X115403302Y-88614366D01*
X115183511Y-88673258D01*
X115183502Y-88673261D01*
X114977267Y-88769431D01*
X114977265Y-88769432D01*
X114790858Y-88899954D01*
X114629954Y-89060858D01*
X114499432Y-89247265D01*
X114499431Y-89247267D01*
X114472382Y-89305275D01*
X114426209Y-89357714D01*
X114359016Y-89376866D01*
X114292135Y-89356650D01*
X114247618Y-89305275D01*
X114220568Y-89247267D01*
X114220567Y-89247265D01*
X114090045Y-89060858D01*
X113929141Y-88899954D01*
X113742734Y-88769432D01*
X113742732Y-88769431D01*
X113536497Y-88673261D01*
X113536488Y-88673258D01*
X113316697Y-88614366D01*
X113316693Y-88614365D01*
X113316692Y-88614365D01*
X113316691Y-88614364D01*
X113316686Y-88614364D01*
X113090002Y-88594532D01*
X113089998Y-88594532D01*
X112863313Y-88614364D01*
X112863302Y-88614366D01*
X112643511Y-88673258D01*
X112643502Y-88673261D01*
X112437267Y-88769431D01*
X112437265Y-88769432D01*
X112250858Y-88899954D01*
X112089954Y-89060858D01*
X111959432Y-89247265D01*
X111959431Y-89247267D01*
X111932382Y-89305275D01*
X111886209Y-89357714D01*
X111819016Y-89376866D01*
X111752135Y-89356650D01*
X111707618Y-89305275D01*
X111680568Y-89247267D01*
X111680567Y-89247265D01*
X111550045Y-89060858D01*
X111389141Y-88899954D01*
X111202734Y-88769432D01*
X111202732Y-88769431D01*
X110996497Y-88673261D01*
X110996488Y-88673258D01*
X110776697Y-88614366D01*
X110776693Y-88614365D01*
X110776692Y-88614365D01*
X110776691Y-88614364D01*
X110776686Y-88614364D01*
X110550002Y-88594532D01*
X110549998Y-88594532D01*
X110323313Y-88614364D01*
X110323302Y-88614366D01*
X110103511Y-88673258D01*
X110103502Y-88673261D01*
X109897267Y-88769431D01*
X109897265Y-88769432D01*
X109710858Y-88899954D01*
X109549954Y-89060858D01*
X109419432Y-89247265D01*
X109419431Y-89247267D01*
X109392382Y-89305275D01*
X109346209Y-89357714D01*
X109279016Y-89376866D01*
X109212135Y-89356650D01*
X109167618Y-89305275D01*
X109140568Y-89247267D01*
X109140567Y-89247265D01*
X109010045Y-89060858D01*
X108849141Y-88899954D01*
X108662734Y-88769432D01*
X108662732Y-88769431D01*
X108456497Y-88673261D01*
X108456488Y-88673258D01*
X108236697Y-88614366D01*
X108236693Y-88614365D01*
X108236692Y-88614365D01*
X108236691Y-88614364D01*
X108236686Y-88614364D01*
X108010002Y-88594532D01*
X108009998Y-88594532D01*
X107783313Y-88614364D01*
X107783302Y-88614366D01*
X107563511Y-88673258D01*
X107563502Y-88673261D01*
X107357267Y-88769431D01*
X107357265Y-88769432D01*
X107170858Y-88899954D01*
X107009951Y-89060861D01*
X106992287Y-89086088D01*
X106937710Y-89129712D01*
X106868211Y-89136904D01*
X106805857Y-89105380D01*
X106770445Y-89045150D01*
X106767425Y-89028218D01*
X106763598Y-88992627D01*
X106763596Y-88992620D01*
X106713354Y-88857913D01*
X106713350Y-88857906D01*
X106627190Y-88742812D01*
X106627187Y-88742809D01*
X106512093Y-88656649D01*
X106512086Y-88656645D01*
X106377379Y-88606403D01*
X106377372Y-88606401D01*
X106317844Y-88600000D01*
X105720000Y-88600000D01*
X105720000Y-89584314D01*
X105708045Y-89572359D01*
X105595148Y-89514835D01*
X105501481Y-89500000D01*
X105438519Y-89500000D01*
X105344852Y-89514835D01*
X105231955Y-89572359D01*
X105220000Y-89584314D01*
X105220000Y-88600000D01*
X104622155Y-88600000D01*
X104562627Y-88606401D01*
X104562620Y-88606403D01*
X104427913Y-88656645D01*
X104427906Y-88656649D01*
X104312812Y-88742809D01*
X104312809Y-88742812D01*
X104226649Y-88857906D01*
X104226645Y-88857913D01*
X104176403Y-88992620D01*
X104176401Y-88992627D01*
X104170000Y-89052155D01*
X104170000Y-89650000D01*
X105154314Y-89650000D01*
X105142359Y-89661955D01*
X105084835Y-89774852D01*
X105065014Y-89900000D01*
X105084835Y-90025148D01*
X105142359Y-90138045D01*
X105154314Y-90150000D01*
X104170000Y-90150000D01*
X104170000Y-90747844D01*
X77799118Y-90747844D01*
X77799118Y-80890001D01*
X106709666Y-80890001D01*
X106728964Y-81110585D01*
X106728965Y-81110592D01*
X106786275Y-81324475D01*
X106786279Y-81324486D01*
X106879740Y-81524915D01*
X106879858Y-81525167D01*
X107006868Y-81706555D01*
X107163445Y-81863132D01*
X107344833Y-81990142D01*
X107465572Y-82046443D01*
X107545513Y-82083720D01*
X107545515Y-82083720D01*
X107545520Y-82083723D01*
X107759409Y-82141035D01*
X107916974Y-82154820D01*
X107979998Y-82160334D01*
X107980000Y-82160334D01*
X107980002Y-82160334D01*
X108035147Y-82155509D01*
X108200591Y-82141035D01*
X108414480Y-82083723D01*
X108615167Y-81990142D01*
X108796555Y-81863132D01*
X108953132Y-81706555D01*
X109080142Y-81525167D01*
X109137618Y-81401907D01*
X109183790Y-81349468D01*
X109250983Y-81330316D01*
X109317864Y-81350531D01*
X109362381Y-81401907D01*
X109419858Y-81525167D01*
X109546868Y-81706555D01*
X109703445Y-81863132D01*
X109884833Y-81990142D01*
X110005572Y-82046443D01*
X110085513Y-82083720D01*
X110085515Y-82083720D01*
X110085520Y-82083723D01*
X110299409Y-82141035D01*
X110456974Y-82154820D01*
X110519998Y-82160334D01*
X110520000Y-82160334D01*
X110520002Y-82160334D01*
X110575147Y-82155509D01*
X110740591Y-82141035D01*
X110954480Y-82083723D01*
X111155167Y-81990142D01*
X111336555Y-81863132D01*
X111493132Y-81706555D01*
X111620142Y-81525167D01*
X111677618Y-81401907D01*
X111723790Y-81349468D01*
X111790983Y-81330316D01*
X111857864Y-81350531D01*
X111902381Y-81401907D01*
X111959858Y-81525167D01*
X112086868Y-81706555D01*
X112243445Y-81863132D01*
X112424833Y-81990142D01*
X112545572Y-82046443D01*
X112625513Y-82083720D01*
X112625515Y-82083720D01*
X112625520Y-82083723D01*
X112839409Y-82141035D01*
X112996974Y-82154820D01*
X113059998Y-82160334D01*
X113060000Y-82160334D01*
X113060002Y-82160334D01*
X113115147Y-82155509D01*
X113280591Y-82141035D01*
X113494480Y-82083723D01*
X113695167Y-81990142D01*
X113876555Y-81863132D01*
X114033132Y-81706555D01*
X114160142Y-81525167D01*
X114217618Y-81401907D01*
X114263790Y-81349468D01*
X114330983Y-81330316D01*
X114397864Y-81350531D01*
X114442381Y-81401907D01*
X114499858Y-81525167D01*
X114626868Y-81706555D01*
X114783445Y-81863132D01*
X114964833Y-81990142D01*
X115085572Y-82046443D01*
X115165513Y-82083720D01*
X115165515Y-82083720D01*
X115165520Y-82083723D01*
X115379409Y-82141035D01*
X115536974Y-82154820D01*
X115599998Y-82160334D01*
X115600000Y-82160334D01*
X115600002Y-82160334D01*
X115655147Y-82155509D01*
X115820591Y-82141035D01*
X116034480Y-82083723D01*
X116235167Y-81990142D01*
X116416555Y-81863132D01*
X116573132Y-81706555D01*
X116700142Y-81525167D01*
X116757618Y-81401907D01*
X116803790Y-81349468D01*
X116870983Y-81330316D01*
X116937864Y-81350531D01*
X116982381Y-81401907D01*
X117039858Y-81525167D01*
X117166868Y-81706555D01*
X117323445Y-81863132D01*
X117504833Y-81990142D01*
X117625572Y-82046443D01*
X117705513Y-82083720D01*
X117705515Y-82083720D01*
X117705520Y-82083723D01*
X117919409Y-82141035D01*
X118076974Y-82154820D01*
X118139998Y-82160334D01*
X118140000Y-82160334D01*
X118140002Y-82160334D01*
X118195147Y-82155509D01*
X118360591Y-82141035D01*
X118574480Y-82083723D01*
X118775167Y-81990142D01*
X118956555Y-81863132D01*
X119113132Y-81706555D01*
X119240142Y-81525167D01*
X119297618Y-81401907D01*
X119343790Y-81349468D01*
X119410983Y-81330316D01*
X119477864Y-81350531D01*
X119522381Y-81401907D01*
X119579858Y-81525167D01*
X119706868Y-81706555D01*
X119863445Y-81863132D01*
X120044833Y-81990142D01*
X120165572Y-82046443D01*
X120245513Y-82083720D01*
X120245515Y-82083720D01*
X120245520Y-82083723D01*
X120459409Y-82141035D01*
X120616974Y-82154820D01*
X120679998Y-82160334D01*
X120680000Y-82160334D01*
X120680002Y-82160334D01*
X120735147Y-82155509D01*
X120900591Y-82141035D01*
X121114480Y-82083723D01*
X121315167Y-81990142D01*
X121496555Y-81863132D01*
X121653132Y-81706555D01*
X121780142Y-81525167D01*
X121837618Y-81401907D01*
X121883790Y-81349468D01*
X121950983Y-81330316D01*
X122017864Y-81350531D01*
X122062381Y-81401907D01*
X122119858Y-81525167D01*
X122246868Y-81706555D01*
X122403445Y-81863132D01*
X122584833Y-81990142D01*
X122705572Y-82046443D01*
X122785513Y-82083720D01*
X122785515Y-82083720D01*
X122785520Y-82083723D01*
X122999409Y-82141035D01*
X123156974Y-82154820D01*
X123219998Y-82160334D01*
X123220000Y-82160334D01*
X123220002Y-82160334D01*
X123275147Y-82155509D01*
X123440591Y-82141035D01*
X123654480Y-82083723D01*
X123855167Y-81990142D01*
X124036555Y-81863132D01*
X124193132Y-81706555D01*
X124320142Y-81525167D01*
X124377618Y-81401907D01*
X124423790Y-81349468D01*
X124490983Y-81330316D01*
X124557864Y-81350531D01*
X124602381Y-81401907D01*
X124659858Y-81525167D01*
X124786868Y-81706555D01*
X124943445Y-81863132D01*
X125124833Y-81990142D01*
X125245572Y-82046443D01*
X125325513Y-82083720D01*
X125325515Y-82083720D01*
X125325520Y-82083723D01*
X125539409Y-82141035D01*
X125696974Y-82154820D01*
X125759998Y-82160334D01*
X125760000Y-82160334D01*
X125760002Y-82160334D01*
X125815147Y-82155509D01*
X125980591Y-82141035D01*
X126194480Y-82083723D01*
X126395167Y-81990142D01*
X126576555Y-81863132D01*
X126733132Y-81706555D01*
X126860142Y-81525167D01*
X126917618Y-81401907D01*
X126963790Y-81349468D01*
X127030983Y-81330316D01*
X127097864Y-81350531D01*
X127142381Y-81401907D01*
X127199858Y-81525167D01*
X127326868Y-81706555D01*
X127483445Y-81863132D01*
X127664833Y-81990142D01*
X127785572Y-82046443D01*
X127865513Y-82083720D01*
X127865515Y-82083720D01*
X127865520Y-82083723D01*
X128079409Y-82141035D01*
X128236974Y-82154820D01*
X128299998Y-82160334D01*
X128300000Y-82160334D01*
X128300002Y-82160334D01*
X128355147Y-82155509D01*
X128520591Y-82141035D01*
X128734480Y-82083723D01*
X128935167Y-81990142D01*
X129116555Y-81863132D01*
X129273132Y-81706555D01*
X129400142Y-81525167D01*
X129457618Y-81401907D01*
X129503790Y-81349468D01*
X129570983Y-81330316D01*
X129637864Y-81350531D01*
X129682381Y-81401907D01*
X129739858Y-81525167D01*
X129866868Y-81706555D01*
X130023445Y-81863132D01*
X130204833Y-81990142D01*
X130325572Y-82046443D01*
X130405513Y-82083720D01*
X130405515Y-82083720D01*
X130405520Y-82083723D01*
X130619409Y-82141035D01*
X130776974Y-82154820D01*
X130839998Y-82160334D01*
X130840000Y-82160334D01*
X130840002Y-82160334D01*
X130895147Y-82155509D01*
X131060591Y-82141035D01*
X131274480Y-82083723D01*
X131475167Y-81990142D01*
X131656555Y-81863132D01*
X131813132Y-81706555D01*
X131940142Y-81525167D01*
X131997618Y-81401907D01*
X132043790Y-81349468D01*
X132110983Y-81330316D01*
X132177864Y-81350531D01*
X132222381Y-81401907D01*
X132279858Y-81525167D01*
X132406868Y-81706555D01*
X132563445Y-81863132D01*
X132744833Y-81990142D01*
X132865572Y-82046443D01*
X132945513Y-82083720D01*
X132945515Y-82083720D01*
X132945520Y-82083723D01*
X133159409Y-82141035D01*
X133316974Y-82154820D01*
X133379998Y-82160334D01*
X133380000Y-82160334D01*
X133380002Y-82160334D01*
X133435147Y-82155509D01*
X133600591Y-82141035D01*
X133814480Y-82083723D01*
X134015167Y-81990142D01*
X134196555Y-81863132D01*
X134353132Y-81706555D01*
X134480142Y-81525167D01*
X134537895Y-81401312D01*
X134584064Y-81348878D01*
X134651258Y-81329725D01*
X134718139Y-81349940D01*
X134762657Y-81401316D01*
X134820295Y-81524919D01*
X134866103Y-81590341D01*
X134866105Y-81590342D01*
X135428866Y-81027580D01*
X135451318Y-81104040D01*
X135530605Y-81227413D01*
X135641438Y-81323451D01*
X135774839Y-81384373D01*
X135778633Y-81384918D01*
X135219656Y-81943894D01*
X135285083Y-81989706D01*
X135285085Y-81989707D01*
X135485690Y-82083250D01*
X135485699Y-82083254D01*
X135699490Y-82140538D01*
X135699500Y-82140540D01*
X135919999Y-82159832D01*
X135920001Y-82159832D01*
X136140499Y-82140540D01*
X136140509Y-82140538D01*
X136354300Y-82083254D01*
X136354309Y-82083250D01*
X136554915Y-81989706D01*
X136620342Y-81943894D01*
X136061366Y-81384918D01*
X136065161Y-81384373D01*
X136198562Y-81323451D01*
X136309395Y-81227413D01*
X136388682Y-81104040D01*
X136411133Y-81027580D01*
X136973894Y-81590342D01*
X137019706Y-81524915D01*
X137113250Y-81324309D01*
X137113254Y-81324300D01*
X137170538Y-81110509D01*
X137170540Y-81110499D01*
X137189832Y-80890000D01*
X137189832Y-80889999D01*
X137170540Y-80669500D01*
X137170538Y-80669490D01*
X137113254Y-80455699D01*
X137113250Y-80455690D01*
X137019707Y-80255085D01*
X137019706Y-80255083D01*
X136973894Y-80189657D01*
X136973894Y-80189656D01*
X136411132Y-80752418D01*
X136388682Y-80675960D01*
X136309395Y-80552587D01*
X136198562Y-80456549D01*
X136065161Y-80395627D01*
X136061366Y-80395081D01*
X136620342Y-79836105D01*
X136620341Y-79836103D01*
X136554919Y-79790295D01*
X136354309Y-79696749D01*
X136354300Y-79696745D01*
X136140509Y-79639461D01*
X136140499Y-79639459D01*
X135920001Y-79620168D01*
X135919999Y-79620168D01*
X135699500Y-79639459D01*
X135699490Y-79639461D01*
X135485699Y-79696745D01*
X135485690Y-79696749D01*
X135285084Y-79790293D01*
X135219657Y-79836104D01*
X135778634Y-80395081D01*
X135774839Y-80395627D01*
X135641438Y-80456549D01*
X135530605Y-80552587D01*
X135451318Y-80675960D01*
X135428866Y-80752419D01*
X134866104Y-80189657D01*
X134820293Y-80255084D01*
X134762657Y-80378683D01*
X134716484Y-80431122D01*
X134649290Y-80450274D01*
X134582409Y-80430058D01*
X134537893Y-80378682D01*
X134480142Y-80254833D01*
X134353132Y-80073445D01*
X134196555Y-79916868D01*
X134015167Y-79789858D01*
X133951490Y-79760165D01*
X133814486Y-79696279D01*
X133814475Y-79696275D01*
X133600592Y-79638965D01*
X133600585Y-79638964D01*
X133380002Y-79619666D01*
X133379998Y-79619666D01*
X133159414Y-79638964D01*
X133159407Y-79638965D01*
X132945524Y-79696275D01*
X132945513Y-79696279D01*
X132744836Y-79789856D01*
X132744834Y-79789857D01*
X132563444Y-79916868D01*
X132406868Y-80073444D01*
X132279857Y-80254834D01*
X132279856Y-80254836D01*
X132222382Y-80378091D01*
X132176210Y-80430531D01*
X132109017Y-80449683D01*
X132042135Y-80429467D01*
X131997618Y-80378091D01*
X131969050Y-80316828D01*
X131940142Y-80254833D01*
X131813132Y-80073445D01*
X131656555Y-79916868D01*
X131475167Y-79789858D01*
X131411490Y-79760165D01*
X131274486Y-79696279D01*
X131274475Y-79696275D01*
X131060592Y-79638965D01*
X131060585Y-79638964D01*
X130840002Y-79619666D01*
X130839998Y-79619666D01*
X130619414Y-79638964D01*
X130619407Y-79638965D01*
X130405524Y-79696275D01*
X130405513Y-79696279D01*
X130204836Y-79789856D01*
X130204834Y-79789857D01*
X130023444Y-79916868D01*
X129866868Y-80073444D01*
X129739857Y-80254834D01*
X129739856Y-80254836D01*
X129682382Y-80378091D01*
X129636210Y-80430531D01*
X129569017Y-80449683D01*
X129502135Y-80429467D01*
X129457618Y-80378091D01*
X129429050Y-80316828D01*
X129400142Y-80254833D01*
X129273132Y-80073445D01*
X129116555Y-79916868D01*
X128935167Y-79789858D01*
X128871490Y-79760165D01*
X128734486Y-79696279D01*
X128734475Y-79696275D01*
X128520592Y-79638965D01*
X128520585Y-79638964D01*
X128300002Y-79619666D01*
X128299998Y-79619666D01*
X128079414Y-79638964D01*
X128079407Y-79638965D01*
X127865524Y-79696275D01*
X127865513Y-79696279D01*
X127664836Y-79789856D01*
X127664834Y-79789857D01*
X127483444Y-79916868D01*
X127326868Y-80073444D01*
X127199857Y-80254834D01*
X127199856Y-80254836D01*
X127142382Y-80378091D01*
X127096210Y-80430531D01*
X127029017Y-80449683D01*
X126962135Y-80429467D01*
X126917618Y-80378091D01*
X126889050Y-80316828D01*
X126860142Y-80254833D01*
X126733132Y-80073445D01*
X126576555Y-79916868D01*
X126395167Y-79789858D01*
X126331490Y-79760165D01*
X126194486Y-79696279D01*
X126194475Y-79696275D01*
X125980592Y-79638965D01*
X125980585Y-79638964D01*
X125760002Y-79619666D01*
X125759998Y-79619666D01*
X125539414Y-79638964D01*
X125539407Y-79638965D01*
X125325524Y-79696275D01*
X125325513Y-79696279D01*
X125124836Y-79789856D01*
X125124834Y-79789857D01*
X124943444Y-79916868D01*
X124786868Y-80073444D01*
X124659857Y-80254834D01*
X124659856Y-80254836D01*
X124602382Y-80378091D01*
X124556210Y-80430531D01*
X124489017Y-80449683D01*
X124422135Y-80429467D01*
X124377618Y-80378091D01*
X124349050Y-80316828D01*
X124320142Y-80254833D01*
X124193132Y-80073445D01*
X124036555Y-79916868D01*
X123855167Y-79789858D01*
X123791490Y-79760165D01*
X123654486Y-79696279D01*
X123654475Y-79696275D01*
X123440592Y-79638965D01*
X123440585Y-79638964D01*
X123220002Y-79619666D01*
X123219998Y-79619666D01*
X122999414Y-79638964D01*
X122999407Y-79638965D01*
X122785524Y-79696275D01*
X122785513Y-79696279D01*
X122584836Y-79789856D01*
X122584834Y-79789857D01*
X122403444Y-79916868D01*
X122246868Y-80073444D01*
X122119857Y-80254834D01*
X122119856Y-80254836D01*
X122062382Y-80378091D01*
X122016210Y-80430531D01*
X121949017Y-80449683D01*
X121882135Y-80429467D01*
X121837618Y-80378091D01*
X121809050Y-80316828D01*
X121780142Y-80254833D01*
X121653132Y-80073445D01*
X121496555Y-79916868D01*
X121315167Y-79789858D01*
X121251490Y-79760165D01*
X121114486Y-79696279D01*
X121114475Y-79696275D01*
X120900592Y-79638965D01*
X120900585Y-79638964D01*
X120680002Y-79619666D01*
X120679998Y-79619666D01*
X120459414Y-79638964D01*
X120459407Y-79638965D01*
X120245524Y-79696275D01*
X120245513Y-79696279D01*
X120044836Y-79789856D01*
X120044834Y-79789857D01*
X119863444Y-79916868D01*
X119706868Y-80073444D01*
X119579857Y-80254834D01*
X119579856Y-80254836D01*
X119522382Y-80378091D01*
X119476210Y-80430531D01*
X119409017Y-80449683D01*
X119342135Y-80429467D01*
X119297618Y-80378091D01*
X119269050Y-80316828D01*
X119240142Y-80254833D01*
X119113132Y-80073445D01*
X118956555Y-79916868D01*
X118775167Y-79789858D01*
X118711490Y-79760165D01*
X118574486Y-79696279D01*
X118574475Y-79696275D01*
X118360592Y-79638965D01*
X118360585Y-79638964D01*
X118140002Y-79619666D01*
X118139998Y-79619666D01*
X117919414Y-79638964D01*
X117919407Y-79638965D01*
X117705524Y-79696275D01*
X117705513Y-79696279D01*
X117504836Y-79789856D01*
X117504834Y-79789857D01*
X117323444Y-79916868D01*
X117166868Y-80073444D01*
X117039857Y-80254834D01*
X117039856Y-80254836D01*
X116982382Y-80378091D01*
X116936210Y-80430531D01*
X116869017Y-80449683D01*
X116802135Y-80429467D01*
X116757618Y-80378091D01*
X116729050Y-80316828D01*
X116700142Y-80254833D01*
X116573132Y-80073445D01*
X116416555Y-79916868D01*
X116235167Y-79789858D01*
X116171490Y-79760165D01*
X116034486Y-79696279D01*
X116034475Y-79696275D01*
X115820592Y-79638965D01*
X115820585Y-79638964D01*
X115600002Y-79619666D01*
X115599998Y-79619666D01*
X115379414Y-79638964D01*
X115379407Y-79638965D01*
X115165524Y-79696275D01*
X115165513Y-79696279D01*
X114964836Y-79789856D01*
X114964834Y-79789857D01*
X114783444Y-79916868D01*
X114626868Y-80073444D01*
X114499857Y-80254834D01*
X114499856Y-80254836D01*
X114442382Y-80378091D01*
X114396210Y-80430531D01*
X114329017Y-80449683D01*
X114262135Y-80429467D01*
X114217618Y-80378091D01*
X114189050Y-80316828D01*
X114160142Y-80254833D01*
X114033132Y-80073445D01*
X113876555Y-79916868D01*
X113695167Y-79789858D01*
X113631490Y-79760165D01*
X113494486Y-79696279D01*
X113494475Y-79696275D01*
X113280592Y-79638965D01*
X113280585Y-79638964D01*
X113060002Y-79619666D01*
X113059998Y-79619666D01*
X112839414Y-79638964D01*
X112839407Y-79638965D01*
X112625524Y-79696275D01*
X112625513Y-79696279D01*
X112424836Y-79789856D01*
X112424834Y-79789857D01*
X112243444Y-79916868D01*
X112086868Y-80073444D01*
X111959857Y-80254834D01*
X111959856Y-80254836D01*
X111902382Y-80378091D01*
X111856210Y-80430531D01*
X111789017Y-80449683D01*
X111722135Y-80429467D01*
X111677618Y-80378091D01*
X111649050Y-80316828D01*
X111620142Y-80254833D01*
X111493132Y-80073445D01*
X111336555Y-79916868D01*
X111155167Y-79789858D01*
X111091490Y-79760165D01*
X110954486Y-79696279D01*
X110954475Y-79696275D01*
X110740592Y-79638965D01*
X110740585Y-79638964D01*
X110520002Y-79619666D01*
X110519998Y-79619666D01*
X110299414Y-79638964D01*
X110299407Y-79638965D01*
X110085524Y-79696275D01*
X110085513Y-79696279D01*
X109884836Y-79789856D01*
X109884834Y-79789857D01*
X109703444Y-79916868D01*
X109546868Y-80073444D01*
X109419857Y-80254834D01*
X109419856Y-80254836D01*
X109362382Y-80378091D01*
X109316210Y-80430531D01*
X109249017Y-80449683D01*
X109182135Y-80429467D01*
X109137618Y-80378091D01*
X109109050Y-80316828D01*
X109080142Y-80254833D01*
X108953132Y-80073445D01*
X108796555Y-79916868D01*
X108615167Y-79789858D01*
X108551490Y-79760165D01*
X108414486Y-79696279D01*
X108414475Y-79696275D01*
X108200592Y-79638965D01*
X108200585Y-79638964D01*
X107980002Y-79619666D01*
X107979998Y-79619666D01*
X107759414Y-79638964D01*
X107759407Y-79638965D01*
X107545524Y-79696275D01*
X107545513Y-79696279D01*
X107344836Y-79789856D01*
X107344834Y-79789857D01*
X107163444Y-79916868D01*
X107006868Y-80073444D01*
X106879857Y-80254834D01*
X106879856Y-80254836D01*
X106786279Y-80455513D01*
X106786275Y-80455524D01*
X106728965Y-80669407D01*
X106728964Y-80669414D01*
X106709666Y-80889998D01*
X106709666Y-80890001D01*
X77799118Y-80890001D01*
X77799118Y-62138805D01*
X82491157Y-62138805D01*
X82511690Y-62386612D01*
X82511692Y-62386624D01*
X82572736Y-62627681D01*
X82672626Y-62855406D01*
X82808633Y-63063582D01*
X82808636Y-63063585D01*
X82977056Y-63246538D01*
X83173291Y-63399274D01*
X83391990Y-63517628D01*
X83627186Y-63598371D01*
X83872465Y-63639300D01*
X84121135Y-63639300D01*
X84366414Y-63598371D01*
X84601610Y-63517628D01*
X84820309Y-63399274D01*
X85016544Y-63246538D01*
X85184964Y-63063585D01*
X85311126Y-62870478D01*
X85364272Y-62825122D01*
X85414935Y-62814300D01*
X89078665Y-62814300D01*
X89145704Y-62833985D01*
X89182474Y-62870479D01*
X89308633Y-63063582D01*
X89308636Y-63063585D01*
X89477056Y-63246538D01*
X89673291Y-63399274D01*
X89891990Y-63517628D01*
X90127186Y-63598371D01*
X90372465Y-63639300D01*
X90621135Y-63639300D01*
X90866414Y-63598371D01*
X91101610Y-63517628D01*
X91320309Y-63399274D01*
X91516544Y-63246538D01*
X91684964Y-63063585D01*
X91820973Y-62855407D01*
X91920863Y-62627681D01*
X91981908Y-62386621D01*
X91988840Y-62302963D01*
X92002443Y-62138805D01*
X92002443Y-62138794D01*
X91981909Y-61890987D01*
X91981907Y-61890975D01*
X91920863Y-61649918D01*
X91820973Y-61422193D01*
X91684966Y-61214017D01*
X91663357Y-61190544D01*
X91516544Y-61031062D01*
X91320309Y-60878326D01*
X91320307Y-60878325D01*
X91320306Y-60878324D01*
X91101611Y-60759972D01*
X91101602Y-60759969D01*
X90866416Y-60679229D01*
X90621135Y-60638300D01*
X90372465Y-60638300D01*
X90127183Y-60679229D01*
X89891997Y-60759969D01*
X89891988Y-60759972D01*
X89673293Y-60878324D01*
X89477057Y-61031061D01*
X89308633Y-61214017D01*
X89182474Y-61407121D01*
X89129328Y-61452478D01*
X89078665Y-61463300D01*
X85414935Y-61463300D01*
X85347896Y-61443615D01*
X85311126Y-61407121D01*
X85184966Y-61214017D01*
X85163357Y-61190544D01*
X85016544Y-61031062D01*
X84820309Y-60878326D01*
X84820307Y-60878325D01*
X84820306Y-60878324D01*
X84601611Y-60759972D01*
X84601602Y-60759969D01*
X84366416Y-60679229D01*
X84121135Y-60638300D01*
X83872465Y-60638300D01*
X83627183Y-60679229D01*
X83391997Y-60759969D01*
X83391988Y-60759972D01*
X83173293Y-60878324D01*
X82977057Y-61031061D01*
X82808633Y-61214017D01*
X82672626Y-61422193D01*
X82572736Y-61649918D01*
X82511692Y-61890975D01*
X82511690Y-61890987D01*
X82491157Y-62138794D01*
X82491157Y-62138805D01*
X77799118Y-62138805D01*
X77799118Y-57638805D01*
X82491659Y-57638805D01*
X82512185Y-57886529D01*
X82512187Y-57886538D01*
X82573212Y-58127517D01*
X82673066Y-58355164D01*
X82773364Y-58508682D01*
X83470870Y-57811176D01*
X83473684Y-57824715D01*
X83543242Y-57958956D01*
X83646438Y-58069452D01*
X83775619Y-58148009D01*
X83826802Y-58162349D01*
X83126742Y-58862409D01*
X83173568Y-58898855D01*
X83173570Y-58898856D01*
X83392185Y-59017164D01*
X83392196Y-59017169D01*
X83627306Y-59097883D01*
X83872507Y-59138800D01*
X84121093Y-59138800D01*
X84366293Y-59097883D01*
X84601403Y-59017169D01*
X84601414Y-59017164D01*
X84820028Y-58898857D01*
X84820031Y-58898855D01*
X84866856Y-58862409D01*
X84168368Y-58163921D01*
X84285258Y-58113149D01*
X84402539Y-58017734D01*
X84489728Y-57894215D01*
X84520154Y-57808602D01*
X85220234Y-58508682D01*
X85320531Y-58355169D01*
X85420387Y-58127517D01*
X85481412Y-57886538D01*
X85481414Y-57886529D01*
X85501941Y-57638805D01*
X88991659Y-57638805D01*
X89012185Y-57886529D01*
X89012187Y-57886538D01*
X89073212Y-58127517D01*
X89173066Y-58355164D01*
X89273364Y-58508682D01*
X89970870Y-57811176D01*
X89973684Y-57824715D01*
X90043242Y-57958956D01*
X90146438Y-58069452D01*
X90275619Y-58148009D01*
X90326802Y-58162349D01*
X89626742Y-58862409D01*
X89673568Y-58898855D01*
X89673570Y-58898856D01*
X89892185Y-59017164D01*
X89892196Y-59017169D01*
X90127306Y-59097883D01*
X90372507Y-59138800D01*
X90621093Y-59138800D01*
X90866293Y-59097883D01*
X91101403Y-59017169D01*
X91101414Y-59017164D01*
X91320028Y-58898857D01*
X91320031Y-58898855D01*
X91366856Y-58862409D01*
X90668368Y-58163921D01*
X90785258Y-58113149D01*
X90902539Y-58017734D01*
X90989728Y-57894215D01*
X91020154Y-57808602D01*
X91720234Y-58508682D01*
X91820531Y-58355169D01*
X91920387Y-58127517D01*
X91981412Y-57886538D01*
X91981414Y-57886529D01*
X92001941Y-57638805D01*
X92001941Y-57638794D01*
X91981414Y-57391070D01*
X91981412Y-57391061D01*
X91920387Y-57150082D01*
X91820531Y-56922430D01*
X91720234Y-56768916D01*
X91022729Y-57466422D01*
X91019916Y-57452885D01*
X90950358Y-57318644D01*
X90847162Y-57208148D01*
X90717981Y-57129591D01*
X90666797Y-57115250D01*
X91034203Y-56747844D01*
X106510000Y-56747844D01*
X106516401Y-56807372D01*
X106516403Y-56807379D01*
X106566645Y-56942086D01*
X106566649Y-56942093D01*
X106652809Y-57057187D01*
X106652812Y-57057190D01*
X106767906Y-57143350D01*
X106767913Y-57143354D01*
X106902620Y-57193596D01*
X106902627Y-57193598D01*
X106962155Y-57199999D01*
X106962172Y-57200000D01*
X107560000Y-57200000D01*
X107560000Y-56215686D01*
X107571955Y-56227641D01*
X107684852Y-56285165D01*
X107778519Y-56300000D01*
X107841481Y-56300000D01*
X107935148Y-56285165D01*
X108048045Y-56227641D01*
X108060000Y-56215686D01*
X108060000Y-57200000D01*
X108657828Y-57200000D01*
X108657844Y-57199999D01*
X108717372Y-57193598D01*
X108717379Y-57193596D01*
X108852086Y-57143354D01*
X108852093Y-57143350D01*
X108967187Y-57057190D01*
X108967190Y-57057187D01*
X109053350Y-56942093D01*
X109053354Y-56942086D01*
X109103596Y-56807380D01*
X109107424Y-56771781D01*
X109134162Y-56707230D01*
X109191555Y-56667382D01*
X109261380Y-56664888D01*
X109321469Y-56700540D01*
X109332289Y-56713912D01*
X109349956Y-56739143D01*
X109510858Y-56900045D01*
X109621621Y-56977601D01*
X109697266Y-57030568D01*
X109772907Y-57065839D01*
X109825343Y-57112009D01*
X109844500Y-57178220D01*
X109844500Y-64513549D01*
X109824815Y-64580588D01*
X109791624Y-64615123D01*
X109703452Y-64676862D01*
X109703441Y-64676871D01*
X109546868Y-64833444D01*
X109419857Y-65014834D01*
X109419856Y-65014836D01*
X109362382Y-65138091D01*
X109316210Y-65190531D01*
X109249017Y-65209683D01*
X109182135Y-65189467D01*
X109137618Y-65138091D01*
X109080143Y-65014836D01*
X109080142Y-65014834D01*
X109080142Y-65014833D01*
X108953132Y-64833445D01*
X108796555Y-64676868D01*
X108615167Y-64549858D01*
X108615163Y-64549856D01*
X108414486Y-64456279D01*
X108414475Y-64456275D01*
X108200592Y-64398965D01*
X108200585Y-64398964D01*
X107980002Y-64379666D01*
X107979998Y-64379666D01*
X107759414Y-64398964D01*
X107759407Y-64398965D01*
X107545524Y-64456275D01*
X107545513Y-64456279D01*
X107344836Y-64549856D01*
X107344834Y-64549857D01*
X107163444Y-64676868D01*
X107006868Y-64833444D01*
X106879857Y-65014834D01*
X106879856Y-65014836D01*
X106786279Y-65215513D01*
X106786275Y-65215524D01*
X106728965Y-65429407D01*
X106728964Y-65429414D01*
X106709666Y-65649998D01*
X106709666Y-65650001D01*
X106728964Y-65870585D01*
X106728965Y-65870592D01*
X106786275Y-66084475D01*
X106786279Y-66084486D01*
X106879856Y-66285163D01*
X106879858Y-66285167D01*
X107006868Y-66466555D01*
X107163445Y-66623132D01*
X107344833Y-66750142D01*
X107465572Y-66806443D01*
X107545513Y-66843720D01*
X107545515Y-66843720D01*
X107545520Y-66843723D01*
X107759409Y-66901035D01*
X107916974Y-66914820D01*
X107979998Y-66920334D01*
X107980000Y-66920334D01*
X107980002Y-66920334D01*
X108035147Y-66915509D01*
X108200591Y-66901035D01*
X108414480Y-66843723D01*
X108615167Y-66750142D01*
X108796555Y-66623132D01*
X108953132Y-66466555D01*
X109080142Y-66285167D01*
X109137618Y-66161907D01*
X109183790Y-66109468D01*
X109250983Y-66090316D01*
X109317864Y-66110531D01*
X109362381Y-66161907D01*
X109419858Y-66285167D01*
X109546868Y-66466555D01*
X109703445Y-66623132D01*
X109884833Y-66750142D01*
X110005572Y-66806443D01*
X110085513Y-66843720D01*
X110085515Y-66843720D01*
X110085520Y-66843723D01*
X110299409Y-66901035D01*
X110456974Y-66914820D01*
X110519998Y-66920334D01*
X110520000Y-66920334D01*
X110520002Y-66920334D01*
X110575147Y-66915509D01*
X110740591Y-66901035D01*
X110954480Y-66843723D01*
X111155167Y-66750142D01*
X111336555Y-66623132D01*
X111493132Y-66466555D01*
X111620142Y-66285167D01*
X111677618Y-66161907D01*
X111723790Y-66109468D01*
X111790983Y-66090316D01*
X111857864Y-66110531D01*
X111902381Y-66161907D01*
X111959858Y-66285167D01*
X112086868Y-66466555D01*
X112243445Y-66623132D01*
X112424833Y-66750142D01*
X112545572Y-66806443D01*
X112625513Y-66843720D01*
X112625515Y-66843720D01*
X112625520Y-66843723D01*
X112839409Y-66901035D01*
X112996974Y-66914820D01*
X113059998Y-66920334D01*
X113060000Y-66920334D01*
X113060002Y-66920334D01*
X113115147Y-66915509D01*
X113280591Y-66901035D01*
X113494480Y-66843723D01*
X113695167Y-66750142D01*
X113876555Y-66623132D01*
X114033132Y-66466555D01*
X114160142Y-66285167D01*
X114217618Y-66161907D01*
X114263790Y-66109468D01*
X114330983Y-66090316D01*
X114397864Y-66110531D01*
X114442381Y-66161907D01*
X114499858Y-66285167D01*
X114626868Y-66466555D01*
X114783445Y-66623132D01*
X114964833Y-66750142D01*
X115085572Y-66806443D01*
X115165513Y-66843720D01*
X115165515Y-66843720D01*
X115165520Y-66843723D01*
X115379409Y-66901035D01*
X115536974Y-66914820D01*
X115599998Y-66920334D01*
X115600000Y-66920334D01*
X115600002Y-66920334D01*
X115655147Y-66915509D01*
X115820591Y-66901035D01*
X116034480Y-66843723D01*
X116235167Y-66750142D01*
X116416555Y-66623132D01*
X116573132Y-66466555D01*
X116700142Y-66285167D01*
X116757618Y-66161907D01*
X116803790Y-66109468D01*
X116870983Y-66090316D01*
X116937864Y-66110531D01*
X116982381Y-66161907D01*
X117039858Y-66285167D01*
X117166868Y-66466555D01*
X117323445Y-66623132D01*
X117504833Y-66750142D01*
X117625572Y-66806443D01*
X117705513Y-66843720D01*
X117705515Y-66843720D01*
X117705520Y-66843723D01*
X117919409Y-66901035D01*
X118076974Y-66914820D01*
X118139998Y-66920334D01*
X118140000Y-66920334D01*
X118140002Y-66920334D01*
X118195147Y-66915509D01*
X118360591Y-66901035D01*
X118574480Y-66843723D01*
X118775167Y-66750142D01*
X118956555Y-66623132D01*
X119113132Y-66466555D01*
X119240142Y-66285167D01*
X119297618Y-66161907D01*
X119343790Y-66109468D01*
X119410983Y-66090316D01*
X119477864Y-66110531D01*
X119522381Y-66161907D01*
X119579858Y-66285167D01*
X119706868Y-66466555D01*
X119863445Y-66623132D01*
X120044833Y-66750142D01*
X120165572Y-66806443D01*
X120245513Y-66843720D01*
X120245515Y-66843720D01*
X120245520Y-66843723D01*
X120459409Y-66901035D01*
X120616974Y-66914820D01*
X120679998Y-66920334D01*
X120680000Y-66920334D01*
X120680002Y-66920334D01*
X120735147Y-66915509D01*
X120900591Y-66901035D01*
X121114480Y-66843723D01*
X121315167Y-66750142D01*
X121496555Y-66623132D01*
X121653132Y-66466555D01*
X121780142Y-66285167D01*
X121837618Y-66161907D01*
X121883790Y-66109468D01*
X121950983Y-66090316D01*
X122017864Y-66110531D01*
X122062381Y-66161907D01*
X122119858Y-66285167D01*
X122246868Y-66466555D01*
X122403445Y-66623132D01*
X122584833Y-66750142D01*
X122705572Y-66806443D01*
X122785513Y-66843720D01*
X122785515Y-66843720D01*
X122785520Y-66843723D01*
X122999409Y-66901035D01*
X123156974Y-66914820D01*
X123219998Y-66920334D01*
X123220000Y-66920334D01*
X123220002Y-66920334D01*
X123275147Y-66915509D01*
X123440591Y-66901035D01*
X123654480Y-66843723D01*
X123855167Y-66750142D01*
X124036555Y-66623132D01*
X124193132Y-66466555D01*
X124320142Y-66285167D01*
X124377618Y-66161907D01*
X124423790Y-66109468D01*
X124490983Y-66090316D01*
X124557864Y-66110531D01*
X124602381Y-66161907D01*
X124659858Y-66285167D01*
X124786868Y-66466555D01*
X124943445Y-66623132D01*
X125124833Y-66750142D01*
X125245572Y-66806443D01*
X125325513Y-66843720D01*
X125325515Y-66843720D01*
X125325520Y-66843723D01*
X125539409Y-66901035D01*
X125696974Y-66914820D01*
X125759998Y-66920334D01*
X125760000Y-66920334D01*
X125760002Y-66920334D01*
X125815147Y-66915509D01*
X125980591Y-66901035D01*
X126194480Y-66843723D01*
X126395167Y-66750142D01*
X126576555Y-66623132D01*
X126733132Y-66466555D01*
X126860142Y-66285167D01*
X126917618Y-66161907D01*
X126963790Y-66109468D01*
X127030983Y-66090316D01*
X127097864Y-66110531D01*
X127142381Y-66161907D01*
X127199858Y-66285167D01*
X127326868Y-66466555D01*
X127483445Y-66623132D01*
X127664833Y-66750142D01*
X127785572Y-66806443D01*
X127865513Y-66843720D01*
X127865515Y-66843720D01*
X127865520Y-66843723D01*
X128079409Y-66901035D01*
X128236974Y-66914820D01*
X128299998Y-66920334D01*
X128300000Y-66920334D01*
X128300002Y-66920334D01*
X128355147Y-66915509D01*
X128520591Y-66901035D01*
X128734480Y-66843723D01*
X128935167Y-66750142D01*
X129116555Y-66623132D01*
X129273132Y-66466555D01*
X129400142Y-66285167D01*
X129457618Y-66161907D01*
X129503790Y-66109468D01*
X129570983Y-66090316D01*
X129637864Y-66110531D01*
X129682381Y-66161907D01*
X129739858Y-66285167D01*
X129866868Y-66466555D01*
X130023445Y-66623132D01*
X130204833Y-66750142D01*
X130325572Y-66806443D01*
X130405513Y-66843720D01*
X130405515Y-66843720D01*
X130405520Y-66843723D01*
X130619409Y-66901035D01*
X130776974Y-66914820D01*
X130839998Y-66920334D01*
X130840000Y-66920334D01*
X130840002Y-66920334D01*
X130895147Y-66915509D01*
X131060591Y-66901035D01*
X131274480Y-66843723D01*
X131475167Y-66750142D01*
X131656555Y-66623132D01*
X131813132Y-66466555D01*
X131940142Y-66285167D01*
X131997618Y-66161907D01*
X132043790Y-66109468D01*
X132110983Y-66090316D01*
X132177864Y-66110531D01*
X132222381Y-66161907D01*
X132279858Y-66285167D01*
X132406868Y-66466555D01*
X132563445Y-66623132D01*
X132744833Y-66750142D01*
X132865572Y-66806443D01*
X132945513Y-66843720D01*
X132945515Y-66843720D01*
X132945520Y-66843723D01*
X133159409Y-66901035D01*
X133316974Y-66914820D01*
X133379998Y-66920334D01*
X133380000Y-66920334D01*
X133380002Y-66920334D01*
X133435147Y-66915509D01*
X133600591Y-66901035D01*
X133814480Y-66843723D01*
X134015167Y-66750142D01*
X134196555Y-66623132D01*
X134353132Y-66466555D01*
X134480142Y-66285167D01*
X134537618Y-66161907D01*
X134583790Y-66109468D01*
X134650983Y-66090316D01*
X134717864Y-66110531D01*
X134762381Y-66161907D01*
X134819858Y-66285167D01*
X134946868Y-66466555D01*
X135103445Y-66623132D01*
X135284833Y-66750142D01*
X135405572Y-66806443D01*
X135485513Y-66843720D01*
X135485515Y-66843720D01*
X135485520Y-66843723D01*
X135699409Y-66901035D01*
X135856974Y-66914820D01*
X135919998Y-66920334D01*
X135920000Y-66920334D01*
X135920002Y-66920334D01*
X135975147Y-66915509D01*
X136140591Y-66901035D01*
X136354480Y-66843723D01*
X136555167Y-66750142D01*
X136736555Y-66623132D01*
X136893132Y-66466555D01*
X137020142Y-66285167D01*
X137113723Y-66084480D01*
X137171035Y-65870591D01*
X137190334Y-65650000D01*
X137188121Y-65624710D01*
X137171035Y-65429414D01*
X137171035Y-65429409D01*
X137113723Y-65215520D01*
X137101574Y-65189467D01*
X137020143Y-65014836D01*
X137020142Y-65014834D01*
X137020142Y-65014833D01*
X136893132Y-64833445D01*
X136736555Y-64676868D01*
X136555167Y-64549858D01*
X136555163Y-64549856D01*
X136354486Y-64456279D01*
X136354475Y-64456275D01*
X136140592Y-64398965D01*
X136140585Y-64398964D01*
X135920002Y-64379666D01*
X135919998Y-64379666D01*
X135699414Y-64398964D01*
X135699407Y-64398965D01*
X135485524Y-64456275D01*
X135485513Y-64456279D01*
X135284836Y-64549856D01*
X135284834Y-64549857D01*
X135103444Y-64676868D01*
X134946868Y-64833444D01*
X134819857Y-65014834D01*
X134819856Y-65014836D01*
X134762382Y-65138091D01*
X134716210Y-65190531D01*
X134649017Y-65209683D01*
X134582135Y-65189467D01*
X134537618Y-65138091D01*
X134480143Y-65014836D01*
X134480142Y-65014834D01*
X134480142Y-65014833D01*
X134353132Y-64833445D01*
X134196555Y-64676868D01*
X134015167Y-64549858D01*
X134015163Y-64549856D01*
X133814486Y-64456279D01*
X133814475Y-64456275D01*
X133600592Y-64398965D01*
X133600585Y-64398964D01*
X133380002Y-64379666D01*
X133379998Y-64379666D01*
X133159414Y-64398964D01*
X133159407Y-64398965D01*
X132945524Y-64456275D01*
X132945513Y-64456279D01*
X132744836Y-64549856D01*
X132744834Y-64549857D01*
X132563444Y-64676868D01*
X132406868Y-64833444D01*
X132279857Y-65014834D01*
X132279856Y-65014836D01*
X132222382Y-65138091D01*
X132176210Y-65190531D01*
X132109017Y-65209683D01*
X132042135Y-65189467D01*
X131997618Y-65138091D01*
X131940143Y-65014836D01*
X131940142Y-65014834D01*
X131940142Y-65014833D01*
X131813132Y-64833445D01*
X131656555Y-64676868D01*
X131475167Y-64549858D01*
X131475163Y-64549856D01*
X131274486Y-64456279D01*
X131274475Y-64456275D01*
X131060592Y-64398965D01*
X131060585Y-64398964D01*
X130840002Y-64379666D01*
X130839998Y-64379666D01*
X130619414Y-64398964D01*
X130619407Y-64398965D01*
X130405524Y-64456275D01*
X130405513Y-64456279D01*
X130204836Y-64549856D01*
X130204834Y-64549857D01*
X130023444Y-64676868D01*
X129866868Y-64833444D01*
X129739857Y-65014834D01*
X129739856Y-65014836D01*
X129682382Y-65138091D01*
X129636210Y-65190531D01*
X129569017Y-65209683D01*
X129502135Y-65189467D01*
X129457618Y-65138091D01*
X129400143Y-65014836D01*
X129400142Y-65014834D01*
X129400142Y-65014833D01*
X129273132Y-64833445D01*
X129116555Y-64676868D01*
X128935167Y-64549858D01*
X128935163Y-64549856D01*
X128734486Y-64456279D01*
X128734475Y-64456275D01*
X128520592Y-64398965D01*
X128520585Y-64398964D01*
X128300002Y-64379666D01*
X128299998Y-64379666D01*
X128079414Y-64398964D01*
X128079407Y-64398965D01*
X127865524Y-64456275D01*
X127865513Y-64456279D01*
X127664836Y-64549856D01*
X127664834Y-64549857D01*
X127483444Y-64676868D01*
X127326868Y-64833444D01*
X127199857Y-65014834D01*
X127199856Y-65014836D01*
X127142382Y-65138091D01*
X127096210Y-65190531D01*
X127029017Y-65209683D01*
X126962135Y-65189467D01*
X126917618Y-65138091D01*
X126860143Y-65014836D01*
X126860142Y-65014834D01*
X126860142Y-65014833D01*
X126733132Y-64833445D01*
X126576555Y-64676868D01*
X126395167Y-64549858D01*
X126395163Y-64549856D01*
X126194486Y-64456279D01*
X126194475Y-64456275D01*
X125980592Y-64398965D01*
X125980585Y-64398964D01*
X125760002Y-64379666D01*
X125759998Y-64379666D01*
X125539414Y-64398964D01*
X125539407Y-64398965D01*
X125325524Y-64456275D01*
X125325513Y-64456279D01*
X125124836Y-64549856D01*
X125124834Y-64549857D01*
X124943444Y-64676868D01*
X124786868Y-64833444D01*
X124659857Y-65014834D01*
X124659856Y-65014836D01*
X124602382Y-65138091D01*
X124556210Y-65190531D01*
X124489017Y-65209683D01*
X124422135Y-65189467D01*
X124377618Y-65138091D01*
X124320143Y-65014836D01*
X124320142Y-65014834D01*
X124320142Y-65014833D01*
X124193132Y-64833445D01*
X124036555Y-64676868D01*
X123855167Y-64549858D01*
X123855166Y-64549857D01*
X123855164Y-64549856D01*
X123797095Y-64522778D01*
X123744656Y-64476605D01*
X123725500Y-64410396D01*
X123725500Y-57079177D01*
X123745185Y-57012138D01*
X123778375Y-56977603D01*
X123889139Y-56900047D01*
X124050047Y-56739139D01*
X124180568Y-56552734D01*
X124207618Y-56494724D01*
X124253790Y-56442285D01*
X124320983Y-56423133D01*
X124387865Y-56443348D01*
X124432382Y-56494725D01*
X124459429Y-56552728D01*
X124459432Y-56552734D01*
X124589954Y-56739141D01*
X124750858Y-56900045D01*
X124782830Y-56922432D01*
X124937266Y-57030568D01*
X125143504Y-57126739D01*
X125143509Y-57126740D01*
X125143511Y-57126741D01*
X125196415Y-57140916D01*
X125363308Y-57185635D01*
X125525230Y-57199801D01*
X125589998Y-57205468D01*
X125590000Y-57205468D01*
X125590002Y-57205468D01*
X125652511Y-57199999D01*
X125816692Y-57185635D01*
X126036496Y-57126739D01*
X126242734Y-57030568D01*
X126429139Y-56900047D01*
X126590047Y-56739139D01*
X126720568Y-56552734D01*
X126747618Y-56494724D01*
X126793790Y-56442285D01*
X126860983Y-56423133D01*
X126927865Y-56443348D01*
X126972382Y-56494725D01*
X126999429Y-56552728D01*
X126999432Y-56552734D01*
X127129954Y-56739141D01*
X127290858Y-56900045D01*
X127322830Y-56922432D01*
X127477266Y-57030568D01*
X127683504Y-57126739D01*
X127683509Y-57126740D01*
X127683511Y-57126741D01*
X127736415Y-57140916D01*
X127903308Y-57185635D01*
X128065230Y-57199801D01*
X128129998Y-57205468D01*
X128130000Y-57205468D01*
X128130002Y-57205468D01*
X128192511Y-57199999D01*
X128356692Y-57185635D01*
X128576496Y-57126739D01*
X128782734Y-57030568D01*
X128969139Y-56900047D01*
X129130047Y-56739139D01*
X129260568Y-56552734D01*
X129356739Y-56346496D01*
X129415635Y-56126692D01*
X129435468Y-55900000D01*
X129415635Y-55673308D01*
X129356739Y-55453504D01*
X129260568Y-55247266D01*
X129130047Y-55060861D01*
X129130045Y-55060858D01*
X128969141Y-54899954D01*
X128782734Y-54769432D01*
X128782732Y-54769431D01*
X128576497Y-54673261D01*
X128576488Y-54673258D01*
X128356697Y-54614366D01*
X128356693Y-54614365D01*
X128356692Y-54614365D01*
X128356691Y-54614364D01*
X128356686Y-54614364D01*
X128130002Y-54594532D01*
X128129998Y-54594532D01*
X127903313Y-54614364D01*
X127903302Y-54614366D01*
X127683511Y-54673258D01*
X127683502Y-54673261D01*
X127477267Y-54769431D01*
X127477265Y-54769432D01*
X127290858Y-54899954D01*
X127129954Y-55060858D01*
X126999432Y-55247265D01*
X126999431Y-55247267D01*
X126972382Y-55305275D01*
X126926209Y-55357714D01*
X126859016Y-55376866D01*
X126792135Y-55356650D01*
X126747618Y-55305275D01*
X126720568Y-55247267D01*
X126720567Y-55247265D01*
X126719372Y-55245559D01*
X126590047Y-55060861D01*
X126590045Y-55060858D01*
X126429141Y-54899954D01*
X126242734Y-54769432D01*
X126242732Y-54769431D01*
X126036497Y-54673261D01*
X126036488Y-54673258D01*
X125816697Y-54614366D01*
X125816693Y-54614365D01*
X125816692Y-54614365D01*
X125816691Y-54614364D01*
X125816686Y-54614364D01*
X125590002Y-54594532D01*
X125589998Y-54594532D01*
X125363313Y-54614364D01*
X125363302Y-54614366D01*
X125143511Y-54673258D01*
X125143502Y-54673261D01*
X124937267Y-54769431D01*
X124937265Y-54769432D01*
X124750858Y-54899954D01*
X124589954Y-55060858D01*
X124459432Y-55247265D01*
X124459431Y-55247267D01*
X124432382Y-55305275D01*
X124386209Y-55357714D01*
X124319016Y-55376866D01*
X124252135Y-55356650D01*
X124207618Y-55305275D01*
X124180568Y-55247267D01*
X124180567Y-55247265D01*
X124179372Y-55245559D01*
X124050047Y-55060861D01*
X124050045Y-55060858D01*
X123889141Y-54899954D01*
X123702734Y-54769432D01*
X123702732Y-54769431D01*
X123496497Y-54673261D01*
X123496488Y-54673258D01*
X123276697Y-54614366D01*
X123276693Y-54614365D01*
X123276692Y-54614365D01*
X123276691Y-54614364D01*
X123276686Y-54614364D01*
X123050002Y-54594532D01*
X123049998Y-54594532D01*
X122823313Y-54614364D01*
X122823302Y-54614366D01*
X122603511Y-54673258D01*
X122603502Y-54673261D01*
X122397267Y-54769431D01*
X122397265Y-54769432D01*
X122210858Y-54899954D01*
X122049954Y-55060858D01*
X121919432Y-55247265D01*
X121919431Y-55247267D01*
X121892382Y-55305275D01*
X121846209Y-55357714D01*
X121779016Y-55376866D01*
X121712135Y-55356650D01*
X121667618Y-55305275D01*
X121640568Y-55247267D01*
X121640567Y-55247265D01*
X121639372Y-55245559D01*
X121510047Y-55060861D01*
X121510045Y-55060858D01*
X121349141Y-54899954D01*
X121162734Y-54769432D01*
X121162732Y-54769431D01*
X120956497Y-54673261D01*
X120956488Y-54673258D01*
X120736697Y-54614366D01*
X120736693Y-54614365D01*
X120736692Y-54614365D01*
X120736691Y-54614364D01*
X120736686Y-54614364D01*
X120510002Y-54594532D01*
X120509998Y-54594532D01*
X120283313Y-54614364D01*
X120283302Y-54614366D01*
X120063511Y-54673258D01*
X120063502Y-54673261D01*
X119857267Y-54769431D01*
X119857265Y-54769432D01*
X119670858Y-54899954D01*
X119509954Y-55060858D01*
X119379432Y-55247265D01*
X119379431Y-55247267D01*
X119352382Y-55305275D01*
X119306209Y-55357714D01*
X119239016Y-55376866D01*
X119172135Y-55356650D01*
X119127618Y-55305275D01*
X119100568Y-55247267D01*
X119100567Y-55247265D01*
X119099372Y-55245559D01*
X118970047Y-55060861D01*
X118970045Y-55060858D01*
X118809141Y-54899954D01*
X118622734Y-54769432D01*
X118622732Y-54769431D01*
X118416497Y-54673261D01*
X118416488Y-54673258D01*
X118196697Y-54614366D01*
X118196693Y-54614365D01*
X118196692Y-54614365D01*
X118196691Y-54614364D01*
X118196686Y-54614364D01*
X117970002Y-54594532D01*
X117969998Y-54594532D01*
X117743313Y-54614364D01*
X117743302Y-54614366D01*
X117523511Y-54673258D01*
X117523502Y-54673261D01*
X117317267Y-54769431D01*
X117317265Y-54769432D01*
X117130858Y-54899954D01*
X116969954Y-55060858D01*
X116839432Y-55247265D01*
X116839431Y-55247267D01*
X116812382Y-55305275D01*
X116766209Y-55357714D01*
X116699016Y-55376866D01*
X116632135Y-55356650D01*
X116587618Y-55305275D01*
X116560568Y-55247267D01*
X116560567Y-55247265D01*
X116559372Y-55245559D01*
X116430047Y-55060861D01*
X116430045Y-55060858D01*
X116269141Y-54899954D01*
X116082734Y-54769432D01*
X116082732Y-54769431D01*
X115876497Y-54673261D01*
X115876488Y-54673258D01*
X115656697Y-54614366D01*
X115656693Y-54614365D01*
X115656692Y-54614365D01*
X115656691Y-54614364D01*
X115656686Y-54614364D01*
X115430002Y-54594532D01*
X115429998Y-54594532D01*
X115203313Y-54614364D01*
X115203302Y-54614366D01*
X114983511Y-54673258D01*
X114983502Y-54673261D01*
X114777267Y-54769431D01*
X114777265Y-54769432D01*
X114590858Y-54899954D01*
X114429954Y-55060858D01*
X114299432Y-55247265D01*
X114299431Y-55247267D01*
X114272382Y-55305275D01*
X114226209Y-55357714D01*
X114159016Y-55376866D01*
X114092135Y-55356650D01*
X114047618Y-55305275D01*
X114020568Y-55247267D01*
X114020567Y-55247265D01*
X114019372Y-55245559D01*
X113890047Y-55060861D01*
X113890045Y-55060858D01*
X113729141Y-54899954D01*
X113542734Y-54769432D01*
X113542732Y-54769431D01*
X113336497Y-54673261D01*
X113336488Y-54673258D01*
X113116697Y-54614366D01*
X113116687Y-54614364D01*
X112898138Y-54595243D01*
X112833069Y-54569790D01*
X112792091Y-54513199D01*
X112788213Y-54443437D01*
X112821263Y-54384036D01*
X113343482Y-53861819D01*
X113404805Y-53828334D01*
X113431163Y-53825500D01*
X154704795Y-53825500D01*
X154771834Y-53845185D01*
X154808603Y-53881678D01*
X154879842Y-53990716D01*
X154879850Y-53990727D01*
X155032950Y-54157036D01*
X155032954Y-54157040D01*
X155211351Y-54295893D01*
X155239165Y-54310945D01*
X155288755Y-54360165D01*
X155303863Y-54428382D01*
X155279692Y-54493937D01*
X155239165Y-54529055D01*
X155211352Y-54544106D01*
X155032955Y-54682959D01*
X155032950Y-54682963D01*
X154879850Y-54849272D01*
X154879842Y-54849283D01*
X154756198Y-55038533D01*
X154665388Y-55245560D01*
X154609892Y-55464710D01*
X154591225Y-55689993D01*
X154591225Y-55690006D01*
X154609892Y-55915289D01*
X154665388Y-56134439D01*
X154756198Y-56341466D01*
X154879842Y-56530716D01*
X154879850Y-56530727D01*
X155032950Y-56697036D01*
X155032954Y-56697040D01*
X155211351Y-56835893D01*
X155239165Y-56850945D01*
X155288755Y-56900165D01*
X155303863Y-56968382D01*
X155279692Y-57033937D01*
X155239165Y-57069055D01*
X155211352Y-57084106D01*
X155032955Y-57222959D01*
X155032950Y-57222963D01*
X154879850Y-57389272D01*
X154879842Y-57389283D01*
X154756198Y-57578533D01*
X154665388Y-57785560D01*
X154609892Y-58004710D01*
X154591225Y-58229993D01*
X154591225Y-58230006D01*
X154609892Y-58455289D01*
X154665388Y-58674439D01*
X154756198Y-58881466D01*
X154879842Y-59070716D01*
X154879850Y-59070727D01*
X155032950Y-59237036D01*
X155032954Y-59237040D01*
X155211351Y-59375893D01*
X155239165Y-59390945D01*
X155288755Y-59440165D01*
X155303863Y-59508382D01*
X155279692Y-59573937D01*
X155239165Y-59609055D01*
X155211352Y-59624106D01*
X155032955Y-59762959D01*
X155032950Y-59762963D01*
X154879850Y-59929272D01*
X154879842Y-59929283D01*
X154756198Y-60118533D01*
X154665388Y-60325560D01*
X154609892Y-60544710D01*
X154591225Y-60769993D01*
X154591225Y-60770006D01*
X154609892Y-60995289D01*
X154665388Y-61214439D01*
X154756198Y-61421466D01*
X154879842Y-61610716D01*
X154879850Y-61610727D01*
X155032950Y-61777036D01*
X155032954Y-61777040D01*
X155211351Y-61915893D01*
X155239165Y-61930945D01*
X155288755Y-61980165D01*
X155303863Y-62048382D01*
X155279692Y-62113937D01*
X155239165Y-62149055D01*
X155211352Y-62164106D01*
X155032955Y-62302959D01*
X155032950Y-62302963D01*
X154879850Y-62469272D01*
X154879842Y-62469283D01*
X154756198Y-62658533D01*
X154665388Y-62865560D01*
X154609892Y-63084710D01*
X154591225Y-63309993D01*
X154591225Y-63310006D01*
X154609892Y-63535289D01*
X154665388Y-63754439D01*
X154756198Y-63961466D01*
X154879842Y-64150716D01*
X154879850Y-64150727D01*
X155032950Y-64317036D01*
X155032954Y-64317040D01*
X155211351Y-64455893D01*
X155239165Y-64470945D01*
X155288755Y-64520165D01*
X155303863Y-64588382D01*
X155279692Y-64653937D01*
X155239165Y-64689055D01*
X155211352Y-64704106D01*
X155032955Y-64842959D01*
X155032950Y-64842963D01*
X154879850Y-65009272D01*
X154879842Y-65009283D01*
X154756198Y-65198533D01*
X154665388Y-65405560D01*
X154609892Y-65624710D01*
X154591225Y-65849993D01*
X154591225Y-65850006D01*
X154609892Y-66075289D01*
X154665388Y-66294439D01*
X154756198Y-66501466D01*
X154879842Y-66690716D01*
X154879850Y-66690727D01*
X155032950Y-66857036D01*
X155032954Y-66857040D01*
X155211351Y-66995893D01*
X155239165Y-67010945D01*
X155288755Y-67060165D01*
X155303863Y-67128382D01*
X155279692Y-67193937D01*
X155239165Y-67229055D01*
X155211352Y-67244106D01*
X155032955Y-67382959D01*
X155032950Y-67382963D01*
X154879850Y-67549272D01*
X154879842Y-67549283D01*
X154756198Y-67738533D01*
X154665388Y-67945560D01*
X154609892Y-68164710D01*
X154591225Y-68389993D01*
X154591225Y-68390006D01*
X154609892Y-68615289D01*
X154665388Y-68834439D01*
X154756198Y-69041466D01*
X154879842Y-69230716D01*
X154879850Y-69230727D01*
X155032950Y-69397036D01*
X155032954Y-69397040D01*
X155211351Y-69535893D01*
X155239165Y-69550945D01*
X155288755Y-69600165D01*
X155303863Y-69668382D01*
X155279692Y-69733937D01*
X155239165Y-69769055D01*
X155211352Y-69784106D01*
X155032955Y-69922959D01*
X155032950Y-69922963D01*
X154879850Y-70089272D01*
X154879842Y-70089283D01*
X154756198Y-70278533D01*
X154665388Y-70485560D01*
X154609892Y-70704710D01*
X154591225Y-70929993D01*
X154591225Y-70930006D01*
X154609892Y-71155289D01*
X154665388Y-71374439D01*
X154756198Y-71581466D01*
X154879842Y-71770716D01*
X154879850Y-71770727D01*
X155032950Y-71937036D01*
X155032954Y-71937040D01*
X155211351Y-72075893D01*
X155239165Y-72090945D01*
X155288755Y-72140165D01*
X155303863Y-72208382D01*
X155279692Y-72273937D01*
X155239165Y-72309055D01*
X155211352Y-72324106D01*
X155032955Y-72462959D01*
X155032950Y-72462963D01*
X154879850Y-72629272D01*
X154879842Y-72629283D01*
X154756198Y-72818533D01*
X154665388Y-73025560D01*
X154609892Y-73244710D01*
X154591225Y-73469993D01*
X154591225Y-73470006D01*
X154609892Y-73695289D01*
X154665388Y-73914439D01*
X154756198Y-74121466D01*
X154879842Y-74310716D01*
X154879850Y-74310727D01*
X155032950Y-74477036D01*
X155032954Y-74477040D01*
X155211351Y-74615893D01*
X155239165Y-74630945D01*
X155288755Y-74680165D01*
X155303863Y-74748382D01*
X155279692Y-74813937D01*
X155239165Y-74849055D01*
X155211352Y-74864106D01*
X155032955Y-75002959D01*
X155032950Y-75002963D01*
X154879850Y-75169272D01*
X154879842Y-75169283D01*
X154756198Y-75358533D01*
X154665388Y-75565560D01*
X154609892Y-75784710D01*
X154591225Y-76009993D01*
X154591225Y-76010006D01*
X154609892Y-76235289D01*
X154665388Y-76454439D01*
X154756198Y-76661466D01*
X154879842Y-76850716D01*
X154879850Y-76850727D01*
X155032950Y-77017036D01*
X155032954Y-77017040D01*
X155211351Y-77155893D01*
X155239165Y-77170945D01*
X155288755Y-77220165D01*
X155303863Y-77288382D01*
X155279692Y-77353937D01*
X155239165Y-77389055D01*
X155211352Y-77404106D01*
X155032955Y-77542959D01*
X155032950Y-77542963D01*
X154879850Y-77709272D01*
X154879842Y-77709283D01*
X154756198Y-77898533D01*
X154665388Y-78105560D01*
X154609892Y-78324710D01*
X154591225Y-78549993D01*
X154591225Y-78550006D01*
X154609892Y-78775289D01*
X154665388Y-78994439D01*
X154756198Y-79201466D01*
X154879842Y-79390716D01*
X154879850Y-79390727D01*
X155032950Y-79557036D01*
X155032954Y-79557040D01*
X155211351Y-79695893D01*
X155239165Y-79710945D01*
X155288755Y-79760165D01*
X155303863Y-79828382D01*
X155279692Y-79893937D01*
X155239165Y-79929055D01*
X155211352Y-79944106D01*
X155032955Y-80082959D01*
X155032950Y-80082963D01*
X154879850Y-80249272D01*
X154879842Y-80249283D01*
X154756198Y-80438533D01*
X154665388Y-80645560D01*
X154609892Y-80864710D01*
X154591225Y-81089993D01*
X154591225Y-81090006D01*
X154609892Y-81315289D01*
X154665388Y-81534439D01*
X154756198Y-81741466D01*
X154879842Y-81930716D01*
X154879850Y-81930727D01*
X155032950Y-82097036D01*
X155032954Y-82097040D01*
X155211351Y-82235893D01*
X155239165Y-82250945D01*
X155288755Y-82300165D01*
X155303863Y-82368382D01*
X155279692Y-82433937D01*
X155239165Y-82469055D01*
X155211352Y-82484106D01*
X155032955Y-82622959D01*
X155032950Y-82622963D01*
X154879850Y-82789272D01*
X154879842Y-82789283D01*
X154756198Y-82978533D01*
X154665388Y-83185560D01*
X154609892Y-83404710D01*
X154591225Y-83629993D01*
X154591225Y-83630006D01*
X154609892Y-83855289D01*
X154665388Y-84074439D01*
X154756198Y-84281466D01*
X154879842Y-84470716D01*
X154879850Y-84470727D01*
X155032950Y-84637036D01*
X155032954Y-84637040D01*
X155211351Y-84775893D01*
X155239165Y-84790945D01*
X155288755Y-84840165D01*
X155303863Y-84908382D01*
X155279692Y-84973937D01*
X155239165Y-85009055D01*
X155211352Y-85024106D01*
X155032955Y-85162959D01*
X155032950Y-85162963D01*
X154879850Y-85329272D01*
X154879842Y-85329283D01*
X154756198Y-85518533D01*
X154665388Y-85725560D01*
X154609892Y-85944710D01*
X154591225Y-86169993D01*
X154591225Y-86170006D01*
X154609892Y-86395289D01*
X154665388Y-86614439D01*
X154756198Y-86821466D01*
X154879842Y-87010716D01*
X154879850Y-87010727D01*
X155032950Y-87177036D01*
X155032954Y-87177040D01*
X155211351Y-87315893D01*
X155239165Y-87330945D01*
X155288755Y-87380165D01*
X155303863Y-87448382D01*
X155279692Y-87513937D01*
X155239165Y-87549055D01*
X155211352Y-87564106D01*
X155032955Y-87702959D01*
X155032950Y-87702963D01*
X154879850Y-87869272D01*
X154879842Y-87869283D01*
X154756198Y-88058533D01*
X154665388Y-88265560D01*
X154609892Y-88484710D01*
X154591225Y-88709993D01*
X154591225Y-88710006D01*
X154609892Y-88935289D01*
X154665388Y-89154439D01*
X154756198Y-89361466D01*
X154879842Y-89550716D01*
X154879850Y-89550727D01*
X154992700Y-89673313D01*
X155032954Y-89717040D01*
X155211351Y-89855893D01*
X155211353Y-89855894D01*
X155211360Y-89855899D01*
X155239689Y-89871229D01*
X155289280Y-89920447D01*
X155304390Y-89988664D01*
X155280220Y-90054220D01*
X155239694Y-90089337D01*
X155211628Y-90104526D01*
X155211617Y-90104533D01*
X155187140Y-90123584D01*
X155187140Y-90123586D01*
X155820401Y-90756847D01*
X155815408Y-90757565D01*
X155682530Y-90818248D01*
X155572131Y-90913910D01*
X155493155Y-91036799D01*
X155470477Y-91114031D01*
X154835110Y-90478664D01*
X154756638Y-90598777D01*
X154756637Y-90598779D01*
X154665863Y-90805721D01*
X154610388Y-91024786D01*
X154610386Y-91024797D01*
X154591727Y-91249993D01*
X154591727Y-91250006D01*
X154610386Y-91475202D01*
X154610388Y-91475213D01*
X154665863Y-91694278D01*
X154756639Y-91901225D01*
X154835109Y-92021334D01*
X155470477Y-91385967D01*
X155493155Y-91463201D01*
X155572131Y-91586090D01*
X155682530Y-91681752D01*
X155815408Y-91742435D01*
X155820399Y-91743152D01*
X155187139Y-92376412D01*
X155187140Y-92376413D01*
X155211622Y-92395468D01*
X155211632Y-92395475D01*
X155410360Y-92503022D01*
X155410375Y-92503029D01*
X155624106Y-92576403D01*
X155847010Y-92613600D01*
X156072990Y-92613600D01*
X156295893Y-92576403D01*
X156509624Y-92503029D01*
X156509639Y-92503022D01*
X156708366Y-92395476D01*
X156708378Y-92395468D01*
X156732859Y-92376413D01*
X156732859Y-92376412D01*
X156099600Y-91743152D01*
X156104592Y-91742435D01*
X156237470Y-91681752D01*
X156347869Y-91586090D01*
X156426845Y-91463201D01*
X156449522Y-91385969D01*
X157084888Y-92021334D01*
X157126191Y-91958117D01*
X157179337Y-91912760D01*
X157248569Y-91903336D01*
X157311904Y-91932838D01*
X157333809Y-91958117D01*
X157375110Y-92021334D01*
X158010477Y-91385968D01*
X158033155Y-91463201D01*
X158112131Y-91586090D01*
X158222530Y-91681752D01*
X158355408Y-91742435D01*
X158360399Y-91743152D01*
X157727139Y-92376412D01*
X157727140Y-92376413D01*
X157751622Y-92395468D01*
X157751632Y-92395475D01*
X157950360Y-92503022D01*
X157950375Y-92503029D01*
X158164106Y-92576403D01*
X158387010Y-92613600D01*
X158612990Y-92613600D01*
X158835893Y-92576403D01*
X159049624Y-92503029D01*
X159049639Y-92503022D01*
X159248366Y-92395476D01*
X159248378Y-92395468D01*
X159272859Y-92376413D01*
X159272859Y-92376412D01*
X158639600Y-91743152D01*
X158644592Y-91742435D01*
X158777470Y-91681752D01*
X158887869Y-91586090D01*
X158966845Y-91463201D01*
X158989522Y-91385969D01*
X159624888Y-92021334D01*
X159703361Y-91901222D01*
X159794136Y-91694278D01*
X159849611Y-91475213D01*
X159849613Y-91475202D01*
X159868273Y-91250006D01*
X159868273Y-91249993D01*
X159849613Y-91024797D01*
X159849611Y-91024786D01*
X159794136Y-90805721D01*
X159703360Y-90598774D01*
X159624888Y-90478663D01*
X158989521Y-91114029D01*
X158966845Y-91036799D01*
X158887869Y-90913910D01*
X158777470Y-90818248D01*
X158644592Y-90757565D01*
X158639599Y-90756847D01*
X159272859Y-90123587D01*
X159272858Y-90123585D01*
X159248378Y-90104531D01*
X159248373Y-90104527D01*
X159220308Y-90089340D01*
X159170717Y-90040121D01*
X159155609Y-89971905D01*
X159179779Y-89906349D01*
X159220306Y-89871231D01*
X159248649Y-89855893D01*
X159427046Y-89717040D01*
X159580156Y-89550719D01*
X159703802Y-89361465D01*
X159794611Y-89154441D01*
X159850107Y-88935293D01*
X159857574Y-88845175D01*
X159868775Y-88710006D01*
X159868775Y-88709993D01*
X159850107Y-88484710D01*
X159850107Y-88484707D01*
X159794611Y-88265559D01*
X159703802Y-88058535D01*
X159580156Y-87869281D01*
X159580153Y-87869278D01*
X159580149Y-87869272D01*
X159427049Y-87702963D01*
X159427048Y-87702962D01*
X159427046Y-87702960D01*
X159248649Y-87564107D01*
X159248647Y-87564106D01*
X159248646Y-87564105D01*
X159248639Y-87564100D01*
X159220836Y-87549055D01*
X159171244Y-87499837D01*
X159156135Y-87431620D01*
X159180306Y-87366064D01*
X159220836Y-87330945D01*
X159248639Y-87315899D01*
X159248642Y-87315896D01*
X159248649Y-87315893D01*
X159427046Y-87177040D01*
X159580156Y-87010719D01*
X159703802Y-86821465D01*
X159794611Y-86614441D01*
X159850107Y-86395293D01*
X159868775Y-86170000D01*
X159868775Y-86169993D01*
X159850107Y-85944710D01*
X159850107Y-85944707D01*
X159794611Y-85725559D01*
X159703802Y-85518535D01*
X159580156Y-85329281D01*
X159580153Y-85329278D01*
X159580149Y-85329272D01*
X159427049Y-85162963D01*
X159427048Y-85162962D01*
X159427046Y-85162960D01*
X159248649Y-85024107D01*
X159248647Y-85024106D01*
X159248646Y-85024105D01*
X159248639Y-85024100D01*
X159220836Y-85009055D01*
X159171244Y-84959837D01*
X159156135Y-84891620D01*
X159180306Y-84826064D01*
X159220836Y-84790945D01*
X159248639Y-84775899D01*
X159248642Y-84775896D01*
X159248649Y-84775893D01*
X159427046Y-84637040D01*
X159580156Y-84470719D01*
X159703802Y-84281465D01*
X159794611Y-84074441D01*
X159850107Y-83855293D01*
X159868775Y-83630000D01*
X159868775Y-83629993D01*
X159850107Y-83404710D01*
X159850107Y-83404707D01*
X159794611Y-83185559D01*
X159703802Y-82978535D01*
X159580156Y-82789281D01*
X159580153Y-82789278D01*
X159580149Y-82789272D01*
X159427049Y-82622963D01*
X159427048Y-82622962D01*
X159427046Y-82622960D01*
X159248649Y-82484107D01*
X159248647Y-82484106D01*
X159248646Y-82484105D01*
X159248639Y-82484100D01*
X159220836Y-82469055D01*
X159171244Y-82419837D01*
X159156135Y-82351620D01*
X159180306Y-82286064D01*
X159220836Y-82250945D01*
X159248639Y-82235899D01*
X159248642Y-82235896D01*
X159248649Y-82235893D01*
X159427046Y-82097040D01*
X159526832Y-81988643D01*
X159580149Y-81930727D01*
X159580151Y-81930724D01*
X159580156Y-81930719D01*
X159703802Y-81741465D01*
X159794611Y-81534441D01*
X159850107Y-81315293D01*
X159867069Y-81110591D01*
X159868775Y-81090006D01*
X159868775Y-81089993D01*
X159852203Y-80889999D01*
X159850107Y-80864707D01*
X159794611Y-80645559D01*
X159703802Y-80438535D01*
X159580156Y-80249281D01*
X159580153Y-80249278D01*
X159580149Y-80249272D01*
X159427049Y-80082963D01*
X159427048Y-80082962D01*
X159427046Y-80082960D01*
X159248649Y-79944107D01*
X159248647Y-79944106D01*
X159248646Y-79944105D01*
X159248639Y-79944100D01*
X159220836Y-79929055D01*
X159171244Y-79879837D01*
X159156135Y-79811620D01*
X159180306Y-79746064D01*
X159220836Y-79710945D01*
X159248639Y-79695899D01*
X159248642Y-79695896D01*
X159248649Y-79695893D01*
X159427046Y-79557040D01*
X159580156Y-79390719D01*
X159703802Y-79201465D01*
X159794611Y-78994441D01*
X159850107Y-78775293D01*
X159868775Y-78550000D01*
X159868775Y-78549993D01*
X159850107Y-78324710D01*
X159850107Y-78324707D01*
X159794611Y-78105559D01*
X159703802Y-77898535D01*
X159580156Y-77709281D01*
X159580153Y-77709278D01*
X159580149Y-77709272D01*
X159427049Y-77542963D01*
X159427048Y-77542962D01*
X159427046Y-77542960D01*
X159248649Y-77404107D01*
X159248647Y-77404106D01*
X159248646Y-77404105D01*
X159248639Y-77404100D01*
X159220836Y-77389055D01*
X159171244Y-77339837D01*
X159156135Y-77271620D01*
X159180306Y-77206064D01*
X159220836Y-77170945D01*
X159248639Y-77155899D01*
X159248642Y-77155896D01*
X159248649Y-77155893D01*
X159427046Y-77017040D01*
X159580156Y-76850719D01*
X159703802Y-76661465D01*
X159794611Y-76454441D01*
X159850107Y-76235293D01*
X159868775Y-76010000D01*
X159868775Y-76009993D01*
X159850107Y-75784710D01*
X159850107Y-75784707D01*
X159794611Y-75565559D01*
X159703802Y-75358535D01*
X159580156Y-75169281D01*
X159580153Y-75169278D01*
X159580149Y-75169272D01*
X159427049Y-75002963D01*
X159427048Y-75002962D01*
X159427046Y-75002960D01*
X159248649Y-74864107D01*
X159248647Y-74864106D01*
X159248646Y-74864105D01*
X159248639Y-74864100D01*
X159220836Y-74849055D01*
X159171244Y-74799837D01*
X159156135Y-74731620D01*
X159180306Y-74666064D01*
X159220836Y-74630945D01*
X159248639Y-74615899D01*
X159248642Y-74615896D01*
X159248649Y-74615893D01*
X159427046Y-74477040D01*
X159580156Y-74310719D01*
X159703802Y-74121465D01*
X159794611Y-73914441D01*
X159850107Y-73695293D01*
X159868775Y-73470000D01*
X159868775Y-73469993D01*
X159850107Y-73244710D01*
X159850107Y-73244707D01*
X159794611Y-73025559D01*
X159703802Y-72818535D01*
X159580156Y-72629281D01*
X159580153Y-72629278D01*
X159580149Y-72629272D01*
X159427049Y-72462963D01*
X159427048Y-72462962D01*
X159427046Y-72462960D01*
X159248649Y-72324107D01*
X159248647Y-72324106D01*
X159248646Y-72324105D01*
X159248639Y-72324100D01*
X159220836Y-72309055D01*
X159171244Y-72259837D01*
X159156135Y-72191620D01*
X159180306Y-72126064D01*
X159220836Y-72090945D01*
X159248639Y-72075899D01*
X159248642Y-72075896D01*
X159248649Y-72075893D01*
X159427046Y-71937040D01*
X159580156Y-71770719D01*
X159703802Y-71581465D01*
X159794611Y-71374441D01*
X159850107Y-71155293D01*
X159868775Y-70930000D01*
X159868775Y-70929993D01*
X159850107Y-70704710D01*
X159850107Y-70704707D01*
X159794611Y-70485559D01*
X159703802Y-70278535D01*
X159580156Y-70089281D01*
X159580153Y-70089278D01*
X159580149Y-70089272D01*
X159427049Y-69922963D01*
X159427048Y-69922962D01*
X159427046Y-69922960D01*
X159248649Y-69784107D01*
X159248647Y-69784106D01*
X159248646Y-69784105D01*
X159248639Y-69784100D01*
X159220836Y-69769055D01*
X159171244Y-69719837D01*
X159156135Y-69651620D01*
X159180306Y-69586064D01*
X159220836Y-69550945D01*
X159248639Y-69535899D01*
X159248642Y-69535896D01*
X159248649Y-69535893D01*
X159427046Y-69397040D01*
X159580156Y-69230719D01*
X159703802Y-69041465D01*
X159794611Y-68834441D01*
X159850107Y-68615293D01*
X159868775Y-68390000D01*
X159868775Y-68389993D01*
X159850107Y-68164710D01*
X159850107Y-68164707D01*
X159794611Y-67945559D01*
X159703802Y-67738535D01*
X159580156Y-67549281D01*
X159580153Y-67549278D01*
X159580149Y-67549272D01*
X159427049Y-67382963D01*
X159427048Y-67382962D01*
X159427046Y-67382960D01*
X159248649Y-67244107D01*
X159248647Y-67244106D01*
X159248646Y-67244105D01*
X159248639Y-67244100D01*
X159220836Y-67229055D01*
X159171244Y-67179837D01*
X159156135Y-67111620D01*
X159180306Y-67046064D01*
X159220836Y-67010945D01*
X159248639Y-66995899D01*
X159248642Y-66995896D01*
X159248649Y-66995893D01*
X159427046Y-66857040D01*
X159580156Y-66690719D01*
X159703802Y-66501465D01*
X159794611Y-66294441D01*
X159850107Y-66075293D01*
X159867069Y-65870591D01*
X159868775Y-65850006D01*
X159868775Y-65849993D01*
X159852203Y-65650000D01*
X159850107Y-65624707D01*
X159794611Y-65405559D01*
X159703802Y-65198535D01*
X159580156Y-65009281D01*
X159580153Y-65009278D01*
X159580149Y-65009272D01*
X159427049Y-64842963D01*
X159427048Y-64842962D01*
X159427046Y-64842960D01*
X159248649Y-64704107D01*
X159248647Y-64704106D01*
X159248646Y-64704105D01*
X159248639Y-64704100D01*
X159220836Y-64689055D01*
X159171244Y-64639837D01*
X159156135Y-64571620D01*
X159180306Y-64506064D01*
X159220836Y-64470945D01*
X159248639Y-64455899D01*
X159248642Y-64455896D01*
X159248649Y-64455893D01*
X159427046Y-64317040D01*
X159580156Y-64150719D01*
X159703802Y-63961465D01*
X159794611Y-63754441D01*
X159850107Y-63535293D01*
X159868775Y-63310000D01*
X159868775Y-63309993D01*
X159850107Y-63084710D01*
X159850107Y-63084707D01*
X159794611Y-62865559D01*
X159703802Y-62658535D01*
X159580156Y-62469281D01*
X159580153Y-62469278D01*
X159580149Y-62469272D01*
X159427049Y-62302963D01*
X159427048Y-62302962D01*
X159427046Y-62302960D01*
X159248649Y-62164107D01*
X159248647Y-62164106D01*
X159248646Y-62164105D01*
X159248639Y-62164100D01*
X159220836Y-62149055D01*
X159171244Y-62099837D01*
X159156135Y-62031620D01*
X159180306Y-61966064D01*
X159220836Y-61930945D01*
X159248639Y-61915899D01*
X159248642Y-61915896D01*
X159248649Y-61915893D01*
X159427046Y-61777040D01*
X159580156Y-61610719D01*
X159703802Y-61421465D01*
X159794611Y-61214441D01*
X159850107Y-60995293D01*
X159868775Y-60770000D01*
X159868775Y-60769993D01*
X159850107Y-60544710D01*
X159850107Y-60544707D01*
X159794611Y-60325559D01*
X159703802Y-60118535D01*
X159580156Y-59929281D01*
X159580153Y-59929278D01*
X159580149Y-59929272D01*
X159427049Y-59762963D01*
X159427048Y-59762962D01*
X159427046Y-59762960D01*
X159248649Y-59624107D01*
X159248647Y-59624106D01*
X159248646Y-59624105D01*
X159248639Y-59624100D01*
X159220836Y-59609055D01*
X159171244Y-59559837D01*
X159156135Y-59491620D01*
X159180306Y-59426064D01*
X159220836Y-59390945D01*
X159248639Y-59375899D01*
X159248642Y-59375896D01*
X159248649Y-59375893D01*
X159427046Y-59237040D01*
X159580156Y-59070719D01*
X159703802Y-58881465D01*
X159794611Y-58674441D01*
X159850107Y-58455293D01*
X159868775Y-58230000D01*
X159868775Y-58229993D01*
X159850107Y-58004710D01*
X159850107Y-58004707D01*
X159794611Y-57785559D01*
X159703802Y-57578535D01*
X159580156Y-57389281D01*
X159580153Y-57389278D01*
X159580149Y-57389272D01*
X159427049Y-57222963D01*
X159427048Y-57222962D01*
X159427046Y-57222960D01*
X159248649Y-57084107D01*
X159248647Y-57084106D01*
X159248646Y-57084105D01*
X159248639Y-57084100D01*
X159220836Y-57069055D01*
X159171244Y-57019837D01*
X159156135Y-56951620D01*
X159180306Y-56886064D01*
X159220836Y-56850945D01*
X159248639Y-56835899D01*
X159248642Y-56835896D01*
X159248649Y-56835893D01*
X159427046Y-56697040D01*
X159580156Y-56530719D01*
X159703802Y-56341465D01*
X159794611Y-56134441D01*
X159850107Y-55915293D01*
X159868775Y-55690000D01*
X159868775Y-55689993D01*
X159850107Y-55464710D01*
X159850107Y-55464707D01*
X159794611Y-55245559D01*
X159703802Y-55038535D01*
X159580156Y-54849281D01*
X159580153Y-54849278D01*
X159580149Y-54849272D01*
X159427049Y-54682963D01*
X159427048Y-54682962D01*
X159427046Y-54682960D01*
X159248649Y-54544107D01*
X159248647Y-54544106D01*
X159248646Y-54544105D01*
X159248639Y-54544100D01*
X159220836Y-54529055D01*
X159171244Y-54479837D01*
X159156135Y-54411620D01*
X159180306Y-54346064D01*
X159220836Y-54310945D01*
X159248639Y-54295899D01*
X159248642Y-54295896D01*
X159248649Y-54295893D01*
X159427046Y-54157040D01*
X159580156Y-53990719D01*
X159703802Y-53801465D01*
X159794611Y-53594441D01*
X159850107Y-53375293D01*
X159868775Y-53150000D01*
X159868775Y-53149993D01*
X159850107Y-52924710D01*
X159850107Y-52924707D01*
X159794611Y-52705559D01*
X159703802Y-52498535D01*
X159702557Y-52496630D01*
X159580157Y-52309283D01*
X159580149Y-52309272D01*
X159427049Y-52142963D01*
X159427048Y-52142962D01*
X159427046Y-52142960D01*
X159248649Y-52004107D01*
X159248647Y-52004106D01*
X159248646Y-52004105D01*
X159248639Y-52004100D01*
X159220836Y-51989055D01*
X159171244Y-51939837D01*
X159156135Y-51871620D01*
X159180306Y-51806064D01*
X159220836Y-51770945D01*
X159248639Y-51755899D01*
X159248642Y-51755896D01*
X159248649Y-51755893D01*
X159427046Y-51617040D01*
X159580156Y-51450719D01*
X159703802Y-51261465D01*
X159794611Y-51054441D01*
X159850107Y-50835293D01*
X159868775Y-50610000D01*
X159868775Y-50609993D01*
X159850107Y-50384710D01*
X159850107Y-50384707D01*
X159794611Y-50165559D01*
X159703802Y-49958535D01*
X159580156Y-49769281D01*
X159580153Y-49769278D01*
X159580149Y-49769272D01*
X159427049Y-49602963D01*
X159427048Y-49602962D01*
X159427046Y-49602960D01*
X159248649Y-49464107D01*
X159248647Y-49464106D01*
X159248646Y-49464105D01*
X159248639Y-49464100D01*
X159220836Y-49449055D01*
X159171244Y-49399837D01*
X159156135Y-49331620D01*
X159180306Y-49266064D01*
X159220836Y-49230945D01*
X159248639Y-49215899D01*
X159248642Y-49215896D01*
X159248649Y-49215893D01*
X159427046Y-49077040D01*
X159580156Y-48910719D01*
X159703802Y-48721465D01*
X159794611Y-48514441D01*
X159850107Y-48295293D01*
X159868775Y-48070000D01*
X159868775Y-48069993D01*
X159850107Y-47844710D01*
X159850107Y-47844707D01*
X159794611Y-47625559D01*
X159703802Y-47418535D01*
X159696123Y-47406782D01*
X159580157Y-47229283D01*
X159580149Y-47229272D01*
X159427049Y-47062963D01*
X159427048Y-47062962D01*
X159427046Y-47062960D01*
X159248649Y-46924107D01*
X159222390Y-46909896D01*
X159049832Y-46816512D01*
X159049827Y-46816510D01*
X158836017Y-46743109D01*
X158668778Y-46715202D01*
X158613033Y-46705900D01*
X158386967Y-46705900D01*
X158342370Y-46713341D01*
X158163982Y-46743109D01*
X157950172Y-46816510D01*
X157950167Y-46816512D01*
X157751352Y-46924106D01*
X157572955Y-47062959D01*
X157572950Y-47062963D01*
X157419850Y-47229272D01*
X157419842Y-47229283D01*
X157333808Y-47360968D01*
X157280662Y-47406325D01*
X157211430Y-47415748D01*
X157148095Y-47386246D01*
X157126192Y-47360968D01*
X157040157Y-47229283D01*
X157040149Y-47229272D01*
X156887049Y-47062963D01*
X156887048Y-47062962D01*
X156887046Y-47062960D01*
X156708649Y-46924107D01*
X156682390Y-46909896D01*
X156509832Y-46816512D01*
X156509827Y-46816510D01*
X156296017Y-46743109D01*
X156128778Y-46715202D01*
X156073033Y-46705900D01*
X155846967Y-46705900D01*
X155802370Y-46713341D01*
X155623982Y-46743109D01*
X155410172Y-46816510D01*
X155410167Y-46816512D01*
X155211352Y-46924106D01*
X155032955Y-47062959D01*
X155032950Y-47062963D01*
X154879850Y-47229272D01*
X154879842Y-47229283D01*
X154756198Y-47418533D01*
X154665388Y-47625560D01*
X154609892Y-47844710D01*
X154591225Y-48069993D01*
X154591225Y-48070006D01*
X154609892Y-48295289D01*
X154665388Y-48514439D01*
X154756198Y-48721466D01*
X154879842Y-48910716D01*
X154879850Y-48910727D01*
X155032950Y-49077036D01*
X155032954Y-49077040D01*
X155211351Y-49215893D01*
X155239165Y-49230945D01*
X155288755Y-49280165D01*
X155303863Y-49348382D01*
X155279692Y-49413937D01*
X155239165Y-49449055D01*
X155211352Y-49464106D01*
X155032955Y-49602959D01*
X155032950Y-49602963D01*
X154879850Y-49769272D01*
X154879842Y-49769283D01*
X154756198Y-49958533D01*
X154665388Y-50165560D01*
X154609892Y-50384710D01*
X154591225Y-50609993D01*
X154591225Y-50610006D01*
X154609892Y-50835289D01*
X154665388Y-51054439D01*
X154756198Y-51261466D01*
X154879842Y-51450716D01*
X154879850Y-51450727D01*
X155032950Y-51617036D01*
X155032954Y-51617040D01*
X155211351Y-51755893D01*
X155239165Y-51770945D01*
X155288755Y-51820165D01*
X155303863Y-51888382D01*
X155279692Y-51953937D01*
X155239165Y-51989055D01*
X155211352Y-52004106D01*
X155032955Y-52142959D01*
X155032950Y-52142963D01*
X154879850Y-52309272D01*
X154879842Y-52309283D01*
X154808603Y-52418322D01*
X154755456Y-52463679D01*
X154704795Y-52474500D01*
X113122278Y-52474500D01*
X113118534Y-52474387D01*
X113058918Y-52470781D01*
X113058909Y-52470781D01*
X113000171Y-52481545D01*
X112996470Y-52482108D01*
X112937156Y-52489311D01*
X112928381Y-52492639D01*
X112906778Y-52498660D01*
X112902259Y-52499488D01*
X112897560Y-52500350D01*
X112843075Y-52524869D01*
X112839618Y-52526301D01*
X112783774Y-52547481D01*
X112783770Y-52547484D01*
X112776056Y-52552808D01*
X112756525Y-52563824D01*
X112747970Y-52567674D01*
X112700943Y-52604517D01*
X112697928Y-52606736D01*
X112648772Y-52640667D01*
X112648769Y-52640669D01*
X112609172Y-52685365D01*
X112606605Y-52688091D01*
X112521241Y-52773458D01*
X110709054Y-54585644D01*
X110647731Y-54619129D01*
X110589280Y-54617738D01*
X110576697Y-54614366D01*
X110576693Y-54614365D01*
X110576692Y-54614365D01*
X110576691Y-54614364D01*
X110576686Y-54614364D01*
X110350002Y-54594532D01*
X110349998Y-54594532D01*
X110123313Y-54614364D01*
X110123302Y-54614366D01*
X109903511Y-54673258D01*
X109903502Y-54673261D01*
X109697267Y-54769431D01*
X109697265Y-54769432D01*
X109510858Y-54899954D01*
X109349951Y-55060861D01*
X109332287Y-55086088D01*
X109277710Y-55129712D01*
X109208211Y-55136904D01*
X109145857Y-55105380D01*
X109110445Y-55045150D01*
X109107425Y-55028218D01*
X109103598Y-54992627D01*
X109103596Y-54992620D01*
X109053354Y-54857913D01*
X109053350Y-54857906D01*
X108967190Y-54742812D01*
X108967187Y-54742809D01*
X108852093Y-54656649D01*
X108852086Y-54656645D01*
X108717379Y-54606403D01*
X108717372Y-54606401D01*
X108657844Y-54600000D01*
X108060000Y-54600000D01*
X108060000Y-55584314D01*
X108048045Y-55572359D01*
X107935148Y-55514835D01*
X107841481Y-55500000D01*
X107778519Y-55500000D01*
X107684852Y-55514835D01*
X107571955Y-55572359D01*
X107560000Y-55584314D01*
X107560000Y-54600000D01*
X106962155Y-54600000D01*
X106902627Y-54606401D01*
X106902620Y-54606403D01*
X106767913Y-54656645D01*
X106767906Y-54656649D01*
X106652812Y-54742809D01*
X106652809Y-54742812D01*
X106566649Y-54857906D01*
X106566645Y-54857913D01*
X106516403Y-54992620D01*
X106516401Y-54992627D01*
X106510000Y-55052155D01*
X106510000Y-55650000D01*
X107494314Y-55650000D01*
X107482359Y-55661955D01*
X107424835Y-55774852D01*
X107405014Y-55900000D01*
X107424835Y-56025148D01*
X107482359Y-56138045D01*
X107494314Y-56150000D01*
X106510000Y-56150000D01*
X106510000Y-56747844D01*
X91034203Y-56747844D01*
X91366857Y-56415190D01*
X91366856Y-56415189D01*
X91320029Y-56378743D01*
X91101414Y-56260435D01*
X91101403Y-56260430D01*
X90866293Y-56179716D01*
X90621093Y-56138800D01*
X90372507Y-56138800D01*
X90127306Y-56179716D01*
X89892196Y-56260430D01*
X89892190Y-56260432D01*
X89673561Y-56378749D01*
X89626742Y-56415188D01*
X89626742Y-56415190D01*
X90325231Y-57113678D01*
X90208342Y-57164451D01*
X90091061Y-57259866D01*
X90003872Y-57383385D01*
X89973445Y-57468997D01*
X89273364Y-56768916D01*
X89173067Y-56922432D01*
X89073212Y-57150082D01*
X89012187Y-57391061D01*
X89012185Y-57391070D01*
X88991659Y-57638794D01*
X88991659Y-57638805D01*
X85501941Y-57638805D01*
X85501941Y-57638794D01*
X85481414Y-57391070D01*
X85481412Y-57391061D01*
X85420387Y-57150082D01*
X85320531Y-56922430D01*
X85220234Y-56768916D01*
X84522729Y-57466422D01*
X84519916Y-57452885D01*
X84450358Y-57318644D01*
X84347162Y-57208148D01*
X84217981Y-57129591D01*
X84166797Y-57115250D01*
X84866857Y-56415190D01*
X84866856Y-56415189D01*
X84820029Y-56378743D01*
X84601414Y-56260435D01*
X84601403Y-56260430D01*
X84366293Y-56179716D01*
X84121093Y-56138800D01*
X83872507Y-56138800D01*
X83627306Y-56179716D01*
X83392196Y-56260430D01*
X83392190Y-56260432D01*
X83173561Y-56378749D01*
X83126742Y-56415188D01*
X83126742Y-56415190D01*
X83825231Y-57113678D01*
X83708342Y-57164451D01*
X83591061Y-57259866D01*
X83503872Y-57383385D01*
X83473445Y-57468997D01*
X82773364Y-56768916D01*
X82673067Y-56922432D01*
X82573212Y-57150082D01*
X82512187Y-57391061D01*
X82512185Y-57391070D01*
X82491659Y-57638794D01*
X82491659Y-57638805D01*
X77799118Y-57638805D01*
X77799118Y-48070006D01*
X79407225Y-48070006D01*
X79425892Y-48295289D01*
X79481388Y-48514439D01*
X79572198Y-48721466D01*
X79695842Y-48910716D01*
X79695850Y-48910727D01*
X79848950Y-49077036D01*
X79848954Y-49077040D01*
X80027351Y-49215893D01*
X80226169Y-49323488D01*
X80226172Y-49323489D01*
X80439982Y-49396890D01*
X80439984Y-49396890D01*
X80439986Y-49396891D01*
X80662967Y-49434100D01*
X80662968Y-49434100D01*
X80889032Y-49434100D01*
X80889033Y-49434100D01*
X81112014Y-49396891D01*
X81325831Y-49323488D01*
X81524649Y-49215893D01*
X81703046Y-49077040D01*
X81856156Y-48910719D01*
X81942193Y-48779028D01*
X81995338Y-48733675D01*
X82064569Y-48724251D01*
X82127905Y-48753753D01*
X82149804Y-48779025D01*
X82235844Y-48910719D01*
X82235849Y-48910724D01*
X82235850Y-48910727D01*
X82388950Y-49077036D01*
X82388954Y-49077040D01*
X82567351Y-49215893D01*
X82766169Y-49323488D01*
X82766172Y-49323489D01*
X82979982Y-49396890D01*
X82979984Y-49396890D01*
X82979986Y-49396891D01*
X83202967Y-49434100D01*
X83202968Y-49434100D01*
X83429032Y-49434100D01*
X83429033Y-49434100D01*
X83652014Y-49396891D01*
X83865831Y-49323488D01*
X84064649Y-49215893D01*
X84243046Y-49077040D01*
X84396156Y-48910719D01*
X84482193Y-48779028D01*
X84535338Y-48733675D01*
X84604569Y-48724251D01*
X84667905Y-48753753D01*
X84689804Y-48779025D01*
X84775844Y-48910719D01*
X84775849Y-48910724D01*
X84775850Y-48910727D01*
X84928950Y-49077036D01*
X84928954Y-49077040D01*
X85107351Y-49215893D01*
X85306169Y-49323488D01*
X85306172Y-49323489D01*
X85519982Y-49396890D01*
X85519984Y-49396890D01*
X85519986Y-49396891D01*
X85742967Y-49434100D01*
X85742968Y-49434100D01*
X85969032Y-49434100D01*
X85969033Y-49434100D01*
X86192014Y-49396891D01*
X86405831Y-49323488D01*
X86604649Y-49215893D01*
X86783046Y-49077040D01*
X86936156Y-48910719D01*
X87022491Y-48778572D01*
X87075635Y-48733218D01*
X87144867Y-48723794D01*
X87208203Y-48753296D01*
X87230107Y-48778575D01*
X87271109Y-48841334D01*
X87906477Y-48205967D01*
X87929155Y-48283201D01*
X88008131Y-48406090D01*
X88118530Y-48501752D01*
X88251408Y-48562435D01*
X88256399Y-48563152D01*
X87623139Y-49196412D01*
X87623140Y-49196413D01*
X87647622Y-49215468D01*
X87647632Y-49215475D01*
X87846360Y-49323022D01*
X87846375Y-49323029D01*
X88060106Y-49396403D01*
X88283010Y-49433600D01*
X88508990Y-49433600D01*
X88731893Y-49396403D01*
X88945624Y-49323029D01*
X88945639Y-49323022D01*
X89144366Y-49215476D01*
X89144378Y-49215468D01*
X89168859Y-49196413D01*
X89168859Y-49196412D01*
X88535600Y-48563152D01*
X88540592Y-48562435D01*
X88673470Y-48501752D01*
X88783869Y-48406090D01*
X88862845Y-48283201D01*
X88885522Y-48205969D01*
X89520889Y-48841335D01*
X89561892Y-48778575D01*
X89615038Y-48733218D01*
X89684270Y-48723794D01*
X89747606Y-48753296D01*
X89769509Y-48778574D01*
X89855842Y-48910716D01*
X89855850Y-48910727D01*
X90008950Y-49077036D01*
X90008954Y-49077040D01*
X90187351Y-49215893D01*
X90386169Y-49323488D01*
X90386172Y-49323489D01*
X90599982Y-49396890D01*
X90599984Y-49396890D01*
X90599986Y-49396891D01*
X90822967Y-49434100D01*
X90822968Y-49434100D01*
X91049032Y-49434100D01*
X91049033Y-49434100D01*
X91272014Y-49396891D01*
X91485831Y-49323488D01*
X91684649Y-49215893D01*
X91863046Y-49077040D01*
X92016156Y-48910719D01*
X92102193Y-48779028D01*
X92155338Y-48733675D01*
X92224569Y-48724251D01*
X92287905Y-48753753D01*
X92309804Y-48779025D01*
X92395844Y-48910719D01*
X92395849Y-48910724D01*
X92395850Y-48910727D01*
X92548950Y-49077036D01*
X92548954Y-49077040D01*
X92727351Y-49215893D01*
X92926169Y-49323488D01*
X92926172Y-49323489D01*
X93139982Y-49396890D01*
X93139984Y-49396890D01*
X93139986Y-49396891D01*
X93362967Y-49434100D01*
X93362968Y-49434100D01*
X93589032Y-49434100D01*
X93589033Y-49434100D01*
X93812014Y-49396891D01*
X94025831Y-49323488D01*
X94224649Y-49215893D01*
X94403046Y-49077040D01*
X94556156Y-48910719D01*
X94642193Y-48779028D01*
X94695338Y-48733675D01*
X94764569Y-48724251D01*
X94827905Y-48753753D01*
X94849804Y-48779025D01*
X94935844Y-48910719D01*
X94935849Y-48910724D01*
X94935850Y-48910727D01*
X95088950Y-49077036D01*
X95088954Y-49077040D01*
X95267351Y-49215893D01*
X95466169Y-49323488D01*
X95466172Y-49323489D01*
X95679982Y-49396890D01*
X95679984Y-49396890D01*
X95679986Y-49396891D01*
X95902967Y-49434100D01*
X95902968Y-49434100D01*
X96129032Y-49434100D01*
X96129033Y-49434100D01*
X96352014Y-49396891D01*
X96565831Y-49323488D01*
X96764649Y-49215893D01*
X96943046Y-49077040D01*
X97096156Y-48910719D01*
X97182193Y-48779028D01*
X97235338Y-48733675D01*
X97304569Y-48724251D01*
X97367905Y-48753753D01*
X97389804Y-48779025D01*
X97475844Y-48910719D01*
X97475849Y-48910724D01*
X97475850Y-48910727D01*
X97628950Y-49077036D01*
X97628954Y-49077040D01*
X97807351Y-49215893D01*
X98006169Y-49323488D01*
X98006172Y-49323489D01*
X98219982Y-49396890D01*
X98219984Y-49396890D01*
X98219986Y-49396891D01*
X98442967Y-49434100D01*
X98442968Y-49434100D01*
X98669032Y-49434100D01*
X98669033Y-49434100D01*
X98892014Y-49396891D01*
X99105831Y-49323488D01*
X99304649Y-49215893D01*
X99483046Y-49077040D01*
X99636156Y-48910719D01*
X99722193Y-48779028D01*
X99775338Y-48733675D01*
X99844569Y-48724251D01*
X99907905Y-48753753D01*
X99929804Y-48779025D01*
X100015844Y-48910719D01*
X100015849Y-48910724D01*
X100015850Y-48910727D01*
X100168950Y-49077036D01*
X100168954Y-49077040D01*
X100347351Y-49215893D01*
X100546169Y-49323488D01*
X100546172Y-49323489D01*
X100759982Y-49396890D01*
X100759984Y-49396890D01*
X100759986Y-49396891D01*
X100982967Y-49434100D01*
X100982968Y-49434100D01*
X101209032Y-49434100D01*
X101209033Y-49434100D01*
X101432014Y-49396891D01*
X101645831Y-49323488D01*
X101844649Y-49215893D01*
X102023046Y-49077040D01*
X102176156Y-48910719D01*
X102262193Y-48779028D01*
X102315338Y-48733675D01*
X102384569Y-48724251D01*
X102447905Y-48753753D01*
X102469804Y-48779025D01*
X102555844Y-48910719D01*
X102555849Y-48910724D01*
X102555850Y-48910727D01*
X102708950Y-49077036D01*
X102708954Y-49077040D01*
X102887351Y-49215893D01*
X103086169Y-49323488D01*
X103086172Y-49323489D01*
X103299982Y-49396890D01*
X103299984Y-49396890D01*
X103299986Y-49396891D01*
X103522967Y-49434100D01*
X103522968Y-49434100D01*
X103749032Y-49434100D01*
X103749033Y-49434100D01*
X103972014Y-49396891D01*
X104185831Y-49323488D01*
X104384649Y-49215893D01*
X104563046Y-49077040D01*
X104716156Y-48910719D01*
X104839802Y-48721465D01*
X104930611Y-48514441D01*
X104986107Y-48295293D01*
X105004775Y-48070006D01*
X106331225Y-48070006D01*
X106349892Y-48295289D01*
X106405388Y-48514439D01*
X106496198Y-48721466D01*
X106619842Y-48910716D01*
X106619850Y-48910727D01*
X106772950Y-49077036D01*
X106772954Y-49077040D01*
X106951351Y-49215893D01*
X107150169Y-49323488D01*
X107150172Y-49323489D01*
X107363982Y-49396890D01*
X107363984Y-49396890D01*
X107363986Y-49396891D01*
X107586967Y-49434100D01*
X107586968Y-49434100D01*
X107813032Y-49434100D01*
X107813033Y-49434100D01*
X108036014Y-49396891D01*
X108249831Y-49323488D01*
X108448649Y-49215893D01*
X108627046Y-49077040D01*
X108780156Y-48910719D01*
X108866193Y-48779028D01*
X108919338Y-48733675D01*
X108988569Y-48724251D01*
X109051905Y-48753753D01*
X109073804Y-48779025D01*
X109159844Y-48910719D01*
X109159849Y-48910724D01*
X109159850Y-48910727D01*
X109312950Y-49077036D01*
X109312954Y-49077040D01*
X109491351Y-49215893D01*
X109690169Y-49323488D01*
X109690172Y-49323489D01*
X109903982Y-49396890D01*
X109903984Y-49396890D01*
X109903986Y-49396891D01*
X110126967Y-49434100D01*
X110126968Y-49434100D01*
X110353032Y-49434100D01*
X110353033Y-49434100D01*
X110576014Y-49396891D01*
X110789831Y-49323488D01*
X110988649Y-49215893D01*
X111167046Y-49077040D01*
X111320156Y-48910719D01*
X111406193Y-48779028D01*
X111459338Y-48733675D01*
X111528569Y-48724251D01*
X111591905Y-48753753D01*
X111613804Y-48779025D01*
X111699844Y-48910719D01*
X111699849Y-48910724D01*
X111699850Y-48910727D01*
X111852950Y-49077036D01*
X111852954Y-49077040D01*
X112031351Y-49215893D01*
X112230169Y-49323488D01*
X112230172Y-49323489D01*
X112443982Y-49396890D01*
X112443984Y-49396890D01*
X112443986Y-49396891D01*
X112666967Y-49434100D01*
X112666968Y-49434100D01*
X112893032Y-49434100D01*
X112893033Y-49434100D01*
X113116014Y-49396891D01*
X113329831Y-49323488D01*
X113528649Y-49215893D01*
X113707046Y-49077040D01*
X113860156Y-48910719D01*
X113946193Y-48779028D01*
X113999338Y-48733675D01*
X114068569Y-48724251D01*
X114131905Y-48753753D01*
X114153804Y-48779025D01*
X114239844Y-48910719D01*
X114239849Y-48910724D01*
X114239850Y-48910727D01*
X114392950Y-49077036D01*
X114392954Y-49077040D01*
X114571351Y-49215893D01*
X114770169Y-49323488D01*
X114770172Y-49323489D01*
X114983982Y-49396890D01*
X114983984Y-49396890D01*
X114983986Y-49396891D01*
X115206967Y-49434100D01*
X115206968Y-49434100D01*
X115433032Y-49434100D01*
X115433033Y-49434100D01*
X115656014Y-49396891D01*
X115869831Y-49323488D01*
X116068649Y-49215893D01*
X116247046Y-49077040D01*
X116400156Y-48910719D01*
X116486193Y-48779028D01*
X116539338Y-48733675D01*
X116608569Y-48724251D01*
X116671905Y-48753753D01*
X116693804Y-48779025D01*
X116779844Y-48910719D01*
X116779849Y-48910724D01*
X116779850Y-48910727D01*
X116932950Y-49077036D01*
X116932954Y-49077040D01*
X117111351Y-49215893D01*
X117310169Y-49323488D01*
X117310172Y-49323489D01*
X117523982Y-49396890D01*
X117523984Y-49396890D01*
X117523986Y-49396891D01*
X117746967Y-49434100D01*
X117746968Y-49434100D01*
X117973032Y-49434100D01*
X117973033Y-49434100D01*
X118196014Y-49396891D01*
X118409831Y-49323488D01*
X118608649Y-49215893D01*
X118787046Y-49077040D01*
X118940156Y-48910719D01*
X119026193Y-48779028D01*
X119079338Y-48733675D01*
X119148569Y-48724251D01*
X119211905Y-48753753D01*
X119233804Y-48779025D01*
X119319844Y-48910719D01*
X119319849Y-48910724D01*
X119319850Y-48910727D01*
X119472950Y-49077036D01*
X119472954Y-49077040D01*
X119651351Y-49215893D01*
X119850169Y-49323488D01*
X119850172Y-49323489D01*
X120063982Y-49396890D01*
X120063984Y-49396890D01*
X120063986Y-49396891D01*
X120286967Y-49434100D01*
X120286968Y-49434100D01*
X120513032Y-49434100D01*
X120513033Y-49434100D01*
X120736014Y-49396891D01*
X120949831Y-49323488D01*
X121148649Y-49215893D01*
X121327046Y-49077040D01*
X121480156Y-48910719D01*
X121566193Y-48779028D01*
X121619338Y-48733675D01*
X121688569Y-48724251D01*
X121751905Y-48753753D01*
X121773804Y-48779025D01*
X121859844Y-48910719D01*
X121859849Y-48910724D01*
X121859850Y-48910727D01*
X122012950Y-49077036D01*
X122012954Y-49077040D01*
X122191351Y-49215893D01*
X122390169Y-49323488D01*
X122390172Y-49323489D01*
X122603982Y-49396890D01*
X122603984Y-49396890D01*
X122603986Y-49396891D01*
X122826967Y-49434100D01*
X122826968Y-49434100D01*
X123053032Y-49434100D01*
X123053033Y-49434100D01*
X123276014Y-49396891D01*
X123489831Y-49323488D01*
X123688649Y-49215893D01*
X123867046Y-49077040D01*
X124020156Y-48910719D01*
X124106193Y-48779028D01*
X124159338Y-48733675D01*
X124228569Y-48724251D01*
X124291905Y-48753753D01*
X124313804Y-48779025D01*
X124399844Y-48910719D01*
X124399849Y-48910724D01*
X124399850Y-48910727D01*
X124552950Y-49077036D01*
X124552954Y-49077040D01*
X124731351Y-49215893D01*
X124930169Y-49323488D01*
X124930172Y-49323489D01*
X125143982Y-49396890D01*
X125143984Y-49396890D01*
X125143986Y-49396891D01*
X125366967Y-49434100D01*
X125366968Y-49434100D01*
X125593032Y-49434100D01*
X125593033Y-49434100D01*
X125816014Y-49396891D01*
X126029831Y-49323488D01*
X126228649Y-49215893D01*
X126407046Y-49077040D01*
X126560156Y-48910719D01*
X126683802Y-48721465D01*
X126774611Y-48514441D01*
X126830107Y-48295293D01*
X126848775Y-48070006D01*
X129191225Y-48070006D01*
X129209892Y-48295289D01*
X129265388Y-48514439D01*
X129356198Y-48721466D01*
X129479842Y-48910716D01*
X129479850Y-48910727D01*
X129632950Y-49077036D01*
X129632954Y-49077040D01*
X129811351Y-49215893D01*
X130010169Y-49323488D01*
X130010172Y-49323489D01*
X130223982Y-49396890D01*
X130223984Y-49396890D01*
X130223986Y-49396891D01*
X130446967Y-49434100D01*
X130446968Y-49434100D01*
X130673032Y-49434100D01*
X130673033Y-49434100D01*
X130896014Y-49396891D01*
X131109831Y-49323488D01*
X131308649Y-49215893D01*
X131487046Y-49077040D01*
X131640156Y-48910719D01*
X131726193Y-48779028D01*
X131779338Y-48733675D01*
X131848569Y-48724251D01*
X131911905Y-48753753D01*
X131933804Y-48779025D01*
X132019844Y-48910719D01*
X132019849Y-48910724D01*
X132019850Y-48910727D01*
X132172950Y-49077036D01*
X132172954Y-49077040D01*
X132351351Y-49215893D01*
X132550169Y-49323488D01*
X132550172Y-49323489D01*
X132763982Y-49396890D01*
X132763984Y-49396890D01*
X132763986Y-49396891D01*
X132986967Y-49434100D01*
X132986968Y-49434100D01*
X133213032Y-49434100D01*
X133213033Y-49434100D01*
X133436014Y-49396891D01*
X133649831Y-49323488D01*
X133848649Y-49215893D01*
X134027046Y-49077040D01*
X134180156Y-48910719D01*
X134266193Y-48779028D01*
X134319338Y-48733675D01*
X134388569Y-48724251D01*
X134451905Y-48753753D01*
X134473804Y-48779025D01*
X134559844Y-48910719D01*
X134559849Y-48910724D01*
X134559850Y-48910727D01*
X134712950Y-49077036D01*
X134712954Y-49077040D01*
X134891351Y-49215893D01*
X135090169Y-49323488D01*
X135090172Y-49323489D01*
X135303982Y-49396890D01*
X135303984Y-49396890D01*
X135303986Y-49396891D01*
X135526967Y-49434100D01*
X135526968Y-49434100D01*
X135753032Y-49434100D01*
X135753033Y-49434100D01*
X135976014Y-49396891D01*
X136189831Y-49323488D01*
X136388649Y-49215893D01*
X136567046Y-49077040D01*
X136720156Y-48910719D01*
X136806193Y-48779028D01*
X136859338Y-48733675D01*
X136928569Y-48724251D01*
X136991905Y-48753753D01*
X137013804Y-48779025D01*
X137099844Y-48910719D01*
X137099849Y-48910724D01*
X137099850Y-48910727D01*
X137252950Y-49077036D01*
X137252954Y-49077040D01*
X137431351Y-49215893D01*
X137630169Y-49323488D01*
X137630172Y-49323489D01*
X137843982Y-49396890D01*
X137843984Y-49396890D01*
X137843986Y-49396891D01*
X138066967Y-49434100D01*
X138066968Y-49434100D01*
X138293032Y-49434100D01*
X138293033Y-49434100D01*
X138516014Y-49396891D01*
X138729831Y-49323488D01*
X138928649Y-49215893D01*
X139107046Y-49077040D01*
X139260156Y-48910719D01*
X139346193Y-48779028D01*
X139399338Y-48733675D01*
X139468569Y-48724251D01*
X139531905Y-48753753D01*
X139553804Y-48779025D01*
X139639844Y-48910719D01*
X139639849Y-48910724D01*
X139639850Y-48910727D01*
X139792950Y-49077036D01*
X139792954Y-49077040D01*
X139971351Y-49215893D01*
X140170169Y-49323488D01*
X140170172Y-49323489D01*
X140383982Y-49396890D01*
X140383984Y-49396890D01*
X140383986Y-49396891D01*
X140606967Y-49434100D01*
X140606968Y-49434100D01*
X140833032Y-49434100D01*
X140833033Y-49434100D01*
X141056014Y-49396891D01*
X141269831Y-49323488D01*
X141468649Y-49215893D01*
X141647046Y-49077040D01*
X141800156Y-48910719D01*
X141886193Y-48779028D01*
X141939338Y-48733675D01*
X142008569Y-48724251D01*
X142071905Y-48753753D01*
X142093804Y-48779025D01*
X142179844Y-48910719D01*
X142179849Y-48910724D01*
X142179850Y-48910727D01*
X142332950Y-49077036D01*
X142332954Y-49077040D01*
X142511351Y-49215893D01*
X142710169Y-49323488D01*
X142710172Y-49323489D01*
X142923982Y-49396890D01*
X142923984Y-49396890D01*
X142923986Y-49396891D01*
X143146967Y-49434100D01*
X143146968Y-49434100D01*
X143373032Y-49434100D01*
X143373033Y-49434100D01*
X143596014Y-49396891D01*
X143809831Y-49323488D01*
X144008649Y-49215893D01*
X144187046Y-49077040D01*
X144340156Y-48910719D01*
X144426193Y-48779028D01*
X144479338Y-48733675D01*
X144548569Y-48724251D01*
X144611905Y-48753753D01*
X144633804Y-48779025D01*
X144719844Y-48910719D01*
X144719849Y-48910724D01*
X144719850Y-48910727D01*
X144872950Y-49077036D01*
X144872954Y-49077040D01*
X145051351Y-49215893D01*
X145250169Y-49323488D01*
X145250172Y-49323489D01*
X145463982Y-49396890D01*
X145463984Y-49396890D01*
X145463986Y-49396891D01*
X145686967Y-49434100D01*
X145686968Y-49434100D01*
X145913032Y-49434100D01*
X145913033Y-49434100D01*
X146136014Y-49396891D01*
X146349831Y-49323488D01*
X146548649Y-49215893D01*
X146727046Y-49077040D01*
X146880156Y-48910719D01*
X146966193Y-48779028D01*
X147019338Y-48733675D01*
X147088569Y-48724251D01*
X147151905Y-48753753D01*
X147173804Y-48779025D01*
X147259844Y-48910719D01*
X147259849Y-48910724D01*
X147259850Y-48910727D01*
X147412950Y-49077036D01*
X147412954Y-49077040D01*
X147591351Y-49215893D01*
X147790169Y-49323488D01*
X147790172Y-49323489D01*
X148003982Y-49396890D01*
X148003984Y-49396890D01*
X148003986Y-49396891D01*
X148226967Y-49434100D01*
X148226968Y-49434100D01*
X148453032Y-49434100D01*
X148453033Y-49434100D01*
X148676014Y-49396891D01*
X148889831Y-49323488D01*
X149088649Y-49215893D01*
X149267046Y-49077040D01*
X149420156Y-48910719D01*
X149543802Y-48721465D01*
X149634611Y-48514441D01*
X149690107Y-48295293D01*
X149708775Y-48070000D01*
X149708775Y-48069993D01*
X149690107Y-47844710D01*
X149690107Y-47844707D01*
X149634611Y-47625559D01*
X149543802Y-47418535D01*
X149536123Y-47406782D01*
X149420157Y-47229283D01*
X149420149Y-47229272D01*
X149267049Y-47062963D01*
X149267048Y-47062962D01*
X149267046Y-47062960D01*
X149088649Y-46924107D01*
X149062390Y-46909896D01*
X148889832Y-46816512D01*
X148889827Y-46816510D01*
X148676017Y-46743109D01*
X148508778Y-46715202D01*
X148453033Y-46705900D01*
X148226967Y-46705900D01*
X148182370Y-46713341D01*
X148003982Y-46743109D01*
X147790172Y-46816510D01*
X147790167Y-46816512D01*
X147591352Y-46924106D01*
X147412955Y-47062959D01*
X147412950Y-47062963D01*
X147259850Y-47229272D01*
X147259842Y-47229283D01*
X147173808Y-47360968D01*
X147120662Y-47406325D01*
X147051430Y-47415748D01*
X146988095Y-47386246D01*
X146966192Y-47360968D01*
X146880157Y-47229283D01*
X146880149Y-47229272D01*
X146727049Y-47062963D01*
X146727048Y-47062962D01*
X146727046Y-47062960D01*
X146548649Y-46924107D01*
X146522390Y-46909896D01*
X146349832Y-46816512D01*
X146349827Y-46816510D01*
X146136017Y-46743109D01*
X145968778Y-46715202D01*
X145913033Y-46705900D01*
X145686967Y-46705900D01*
X145642370Y-46713341D01*
X145463982Y-46743109D01*
X145250172Y-46816510D01*
X145250167Y-46816512D01*
X145051352Y-46924106D01*
X144872955Y-47062959D01*
X144872950Y-47062963D01*
X144719850Y-47229272D01*
X144719842Y-47229283D01*
X144633808Y-47360968D01*
X144580662Y-47406325D01*
X144511430Y-47415748D01*
X144448095Y-47386246D01*
X144426192Y-47360968D01*
X144340157Y-47229283D01*
X144340149Y-47229272D01*
X144187049Y-47062963D01*
X144187048Y-47062962D01*
X144187046Y-47062960D01*
X144008649Y-46924107D01*
X143982390Y-46909896D01*
X143809832Y-46816512D01*
X143809827Y-46816510D01*
X143596017Y-46743109D01*
X143428778Y-46715202D01*
X143373033Y-46705900D01*
X143146967Y-46705900D01*
X143102370Y-46713341D01*
X142923982Y-46743109D01*
X142710172Y-46816510D01*
X142710167Y-46816512D01*
X142511352Y-46924106D01*
X142332955Y-47062959D01*
X142332950Y-47062963D01*
X142179850Y-47229272D01*
X142179842Y-47229283D01*
X142093808Y-47360968D01*
X142040662Y-47406325D01*
X141971430Y-47415748D01*
X141908095Y-47386246D01*
X141886192Y-47360968D01*
X141800157Y-47229283D01*
X141800149Y-47229272D01*
X141647049Y-47062963D01*
X141647048Y-47062962D01*
X141647046Y-47062960D01*
X141468649Y-46924107D01*
X141442390Y-46909896D01*
X141269832Y-46816512D01*
X141269827Y-46816510D01*
X141056017Y-46743109D01*
X140888778Y-46715202D01*
X140833033Y-46705900D01*
X140606967Y-46705900D01*
X140562370Y-46713341D01*
X140383982Y-46743109D01*
X140170172Y-46816510D01*
X140170167Y-46816512D01*
X139971352Y-46924106D01*
X139792955Y-47062959D01*
X139792950Y-47062963D01*
X139639850Y-47229272D01*
X139639842Y-47229283D01*
X139553808Y-47360968D01*
X139500662Y-47406325D01*
X139431430Y-47415748D01*
X139368095Y-47386246D01*
X139346192Y-47360968D01*
X139260157Y-47229283D01*
X139260149Y-47229272D01*
X139107049Y-47062963D01*
X139107048Y-47062962D01*
X139107046Y-47062960D01*
X138928649Y-46924107D01*
X138902390Y-46909896D01*
X138729832Y-46816512D01*
X138729827Y-46816510D01*
X138516017Y-46743109D01*
X138348778Y-46715202D01*
X138293033Y-46705900D01*
X138066967Y-46705900D01*
X138022370Y-46713341D01*
X137843982Y-46743109D01*
X137630172Y-46816510D01*
X137630167Y-46816512D01*
X137431352Y-46924106D01*
X137252955Y-47062959D01*
X137252950Y-47062963D01*
X137099850Y-47229272D01*
X137099842Y-47229283D01*
X137013808Y-47360968D01*
X136960662Y-47406325D01*
X136891430Y-47415748D01*
X136828095Y-47386246D01*
X136806192Y-47360968D01*
X136720157Y-47229283D01*
X136720149Y-47229272D01*
X136567049Y-47062963D01*
X136567048Y-47062962D01*
X136567046Y-47062960D01*
X136388649Y-46924107D01*
X136362390Y-46909896D01*
X136189832Y-46816512D01*
X136189827Y-46816510D01*
X135976017Y-46743109D01*
X135808778Y-46715202D01*
X135753033Y-46705900D01*
X135526967Y-46705900D01*
X135482370Y-46713341D01*
X135303982Y-46743109D01*
X135090172Y-46816510D01*
X135090167Y-46816512D01*
X134891352Y-46924106D01*
X134712955Y-47062959D01*
X134712950Y-47062963D01*
X134559850Y-47229272D01*
X134559842Y-47229283D01*
X134473808Y-47360968D01*
X134420662Y-47406325D01*
X134351430Y-47415748D01*
X134288095Y-47386246D01*
X134266192Y-47360968D01*
X134180157Y-47229283D01*
X134180149Y-47229272D01*
X134027049Y-47062963D01*
X134027048Y-47062962D01*
X134027046Y-47062960D01*
X133848649Y-46924107D01*
X133822390Y-46909896D01*
X133649832Y-46816512D01*
X133649827Y-46816510D01*
X133436017Y-46743109D01*
X133268778Y-46715202D01*
X133213033Y-46705900D01*
X132986967Y-46705900D01*
X132942370Y-46713341D01*
X132763982Y-46743109D01*
X132550172Y-46816510D01*
X132550167Y-46816512D01*
X132351352Y-46924106D01*
X132172955Y-47062959D01*
X132172950Y-47062963D01*
X132019850Y-47229272D01*
X132019842Y-47229283D01*
X131933808Y-47360968D01*
X131880662Y-47406325D01*
X131811430Y-47415748D01*
X131748095Y-47386246D01*
X131726192Y-47360968D01*
X131640157Y-47229283D01*
X131640149Y-47229272D01*
X131487049Y-47062963D01*
X131487048Y-47062962D01*
X131487046Y-47062960D01*
X131308649Y-46924107D01*
X131282390Y-46909896D01*
X131109832Y-46816512D01*
X131109827Y-46816510D01*
X130896017Y-46743109D01*
X130728778Y-46715202D01*
X130673033Y-46705900D01*
X130446967Y-46705900D01*
X130402370Y-46713341D01*
X130223982Y-46743109D01*
X130010172Y-46816510D01*
X130010167Y-46816512D01*
X129811352Y-46924106D01*
X129632955Y-47062959D01*
X129632950Y-47062963D01*
X129479850Y-47229272D01*
X129479842Y-47229283D01*
X129356198Y-47418533D01*
X129265388Y-47625560D01*
X129209892Y-47844710D01*
X129191225Y-48069993D01*
X129191225Y-48070006D01*
X126848775Y-48070006D01*
X126848775Y-48070000D01*
X126848775Y-48069993D01*
X126830107Y-47844710D01*
X126830107Y-47844707D01*
X126774611Y-47625559D01*
X126683802Y-47418535D01*
X126676123Y-47406782D01*
X126560157Y-47229283D01*
X126560149Y-47229272D01*
X126407049Y-47062963D01*
X126407048Y-47062962D01*
X126407046Y-47062960D01*
X126228649Y-46924107D01*
X126202390Y-46909896D01*
X126029832Y-46816512D01*
X126029827Y-46816510D01*
X125816017Y-46743109D01*
X125648778Y-46715202D01*
X125593033Y-46705900D01*
X125366967Y-46705900D01*
X125322370Y-46713341D01*
X125143982Y-46743109D01*
X124930172Y-46816510D01*
X124930167Y-46816512D01*
X124731352Y-46924106D01*
X124552955Y-47062959D01*
X124552950Y-47062963D01*
X124399850Y-47229272D01*
X124399842Y-47229283D01*
X124313808Y-47360968D01*
X124260662Y-47406325D01*
X124191430Y-47415748D01*
X124128095Y-47386246D01*
X124106192Y-47360968D01*
X124020157Y-47229283D01*
X124020149Y-47229272D01*
X123867049Y-47062963D01*
X123867048Y-47062962D01*
X123867046Y-47062960D01*
X123688649Y-46924107D01*
X123662390Y-46909896D01*
X123489832Y-46816512D01*
X123489827Y-46816510D01*
X123276017Y-46743109D01*
X123108778Y-46715202D01*
X123053033Y-46705900D01*
X122826967Y-46705900D01*
X122782370Y-46713341D01*
X122603982Y-46743109D01*
X122390172Y-46816510D01*
X122390167Y-46816512D01*
X122191352Y-46924106D01*
X122012955Y-47062959D01*
X122012950Y-47062963D01*
X121859850Y-47229272D01*
X121859842Y-47229283D01*
X121773808Y-47360968D01*
X121720662Y-47406325D01*
X121651430Y-47415748D01*
X121588095Y-47386246D01*
X121566192Y-47360968D01*
X121480157Y-47229283D01*
X121480149Y-47229272D01*
X121327049Y-47062963D01*
X121327048Y-47062962D01*
X121327046Y-47062960D01*
X121148649Y-46924107D01*
X121122390Y-46909896D01*
X120949832Y-46816512D01*
X120949827Y-46816510D01*
X120736017Y-46743109D01*
X120568778Y-46715202D01*
X120513033Y-46705900D01*
X120286967Y-46705900D01*
X120242370Y-46713341D01*
X120063982Y-46743109D01*
X119850172Y-46816510D01*
X119850167Y-46816512D01*
X119651352Y-46924106D01*
X119472955Y-47062959D01*
X119472950Y-47062963D01*
X119319850Y-47229272D01*
X119319842Y-47229283D01*
X119233808Y-47360968D01*
X119180662Y-47406325D01*
X119111430Y-47415748D01*
X119048095Y-47386246D01*
X119026192Y-47360968D01*
X118940157Y-47229283D01*
X118940149Y-47229272D01*
X118787049Y-47062963D01*
X118787048Y-47062962D01*
X118787046Y-47062960D01*
X118608649Y-46924107D01*
X118582390Y-46909896D01*
X118409832Y-46816512D01*
X118409827Y-46816510D01*
X118196017Y-46743109D01*
X118028778Y-46715202D01*
X117973033Y-46705900D01*
X117746967Y-46705900D01*
X117702370Y-46713341D01*
X117523982Y-46743109D01*
X117310172Y-46816510D01*
X117310167Y-46816512D01*
X117111352Y-46924106D01*
X116932955Y-47062959D01*
X116932950Y-47062963D01*
X116779850Y-47229272D01*
X116779842Y-47229283D01*
X116693808Y-47360968D01*
X116640662Y-47406325D01*
X116571430Y-47415748D01*
X116508095Y-47386246D01*
X116486192Y-47360968D01*
X116400157Y-47229283D01*
X116400149Y-47229272D01*
X116247049Y-47062963D01*
X116247048Y-47062962D01*
X116247046Y-47062960D01*
X116068649Y-46924107D01*
X116042390Y-46909896D01*
X115869832Y-46816512D01*
X115869827Y-46816510D01*
X115656017Y-46743109D01*
X115488778Y-46715202D01*
X115433033Y-46705900D01*
X115206967Y-46705900D01*
X115162370Y-46713341D01*
X114983982Y-46743109D01*
X114770172Y-46816510D01*
X114770167Y-46816512D01*
X114571352Y-46924106D01*
X114392955Y-47062959D01*
X114392950Y-47062963D01*
X114239850Y-47229272D01*
X114239842Y-47229283D01*
X114153808Y-47360968D01*
X114100662Y-47406325D01*
X114031430Y-47415748D01*
X113968095Y-47386246D01*
X113946192Y-47360968D01*
X113860157Y-47229283D01*
X113860149Y-47229272D01*
X113707049Y-47062963D01*
X113707048Y-47062962D01*
X113707046Y-47062960D01*
X113528649Y-46924107D01*
X113502390Y-46909896D01*
X113329832Y-46816512D01*
X113329827Y-46816510D01*
X113116017Y-46743109D01*
X112948778Y-46715202D01*
X112893033Y-46705900D01*
X112666967Y-46705900D01*
X112622370Y-46713341D01*
X112443982Y-46743109D01*
X112230172Y-46816510D01*
X112230167Y-46816512D01*
X112031352Y-46924106D01*
X111852955Y-47062959D01*
X111852950Y-47062963D01*
X111699850Y-47229272D01*
X111699842Y-47229283D01*
X111613808Y-47360968D01*
X111560662Y-47406325D01*
X111491430Y-47415748D01*
X111428095Y-47386246D01*
X111406192Y-47360968D01*
X111320157Y-47229283D01*
X111320149Y-47229272D01*
X111167049Y-47062963D01*
X111167048Y-47062962D01*
X111167046Y-47062960D01*
X110988649Y-46924107D01*
X110962390Y-46909896D01*
X110789832Y-46816512D01*
X110789827Y-46816510D01*
X110576017Y-46743109D01*
X110408778Y-46715202D01*
X110353033Y-46705900D01*
X110126967Y-46705900D01*
X110082370Y-46713341D01*
X109903982Y-46743109D01*
X109690172Y-46816510D01*
X109690167Y-46816512D01*
X109491352Y-46924106D01*
X109312955Y-47062959D01*
X109312950Y-47062963D01*
X109159850Y-47229272D01*
X109159842Y-47229283D01*
X109073808Y-47360968D01*
X109020662Y-47406325D01*
X108951430Y-47415748D01*
X108888095Y-47386246D01*
X108866192Y-47360968D01*
X108780157Y-47229283D01*
X108780149Y-47229272D01*
X108627049Y-47062963D01*
X108627048Y-47062962D01*
X108627046Y-47062960D01*
X108448649Y-46924107D01*
X108422390Y-46909896D01*
X108249832Y-46816512D01*
X108249827Y-46816510D01*
X108036017Y-46743109D01*
X107868778Y-46715202D01*
X107813033Y-46705900D01*
X107586967Y-46705900D01*
X107542370Y-46713341D01*
X107363982Y-46743109D01*
X107150172Y-46816510D01*
X107150167Y-46816512D01*
X106951352Y-46924106D01*
X106772955Y-47062959D01*
X106772950Y-47062963D01*
X106619850Y-47229272D01*
X106619842Y-47229283D01*
X106496198Y-47418533D01*
X106405388Y-47625560D01*
X106349892Y-47844710D01*
X106331225Y-48069993D01*
X106331225Y-48070006D01*
X105004775Y-48070006D01*
X105004775Y-48070000D01*
X105004775Y-48069993D01*
X104986107Y-47844710D01*
X104986107Y-47844707D01*
X104930611Y-47625559D01*
X104839802Y-47418535D01*
X104832123Y-47406782D01*
X104716157Y-47229283D01*
X104716149Y-47229272D01*
X104563049Y-47062963D01*
X104563048Y-47062962D01*
X104563046Y-47062960D01*
X104384649Y-46924107D01*
X104358390Y-46909896D01*
X104185832Y-46816512D01*
X104185827Y-46816510D01*
X103972017Y-46743109D01*
X103804778Y-46715202D01*
X103749033Y-46705900D01*
X103522967Y-46705900D01*
X103478370Y-46713341D01*
X103299982Y-46743109D01*
X103086172Y-46816510D01*
X103086167Y-46816512D01*
X102887352Y-46924106D01*
X102708955Y-47062959D01*
X102708950Y-47062963D01*
X102555850Y-47229272D01*
X102555842Y-47229283D01*
X102469808Y-47360968D01*
X102416662Y-47406325D01*
X102347430Y-47415748D01*
X102284095Y-47386246D01*
X102262192Y-47360968D01*
X102176157Y-47229283D01*
X102176149Y-47229272D01*
X102023049Y-47062963D01*
X102023048Y-47062962D01*
X102023046Y-47062960D01*
X101844649Y-46924107D01*
X101818390Y-46909896D01*
X101645832Y-46816512D01*
X101645827Y-46816510D01*
X101432017Y-46743109D01*
X101264778Y-46715202D01*
X101209033Y-46705900D01*
X100982967Y-46705900D01*
X100938370Y-46713341D01*
X100759982Y-46743109D01*
X100546172Y-46816510D01*
X100546167Y-46816512D01*
X100347352Y-46924106D01*
X100168955Y-47062959D01*
X100168950Y-47062963D01*
X100015850Y-47229272D01*
X100015842Y-47229283D01*
X99929808Y-47360968D01*
X99876662Y-47406325D01*
X99807430Y-47415748D01*
X99744095Y-47386246D01*
X99722192Y-47360968D01*
X99636157Y-47229283D01*
X99636149Y-47229272D01*
X99483049Y-47062963D01*
X99483048Y-47062962D01*
X99483046Y-47062960D01*
X99304649Y-46924107D01*
X99278390Y-46909896D01*
X99105832Y-46816512D01*
X99105827Y-46816510D01*
X98892017Y-46743109D01*
X98724778Y-46715202D01*
X98669033Y-46705900D01*
X98442967Y-46705900D01*
X98398370Y-46713341D01*
X98219982Y-46743109D01*
X98006172Y-46816510D01*
X98006167Y-46816512D01*
X97807352Y-46924106D01*
X97628955Y-47062959D01*
X97628950Y-47062963D01*
X97475850Y-47229272D01*
X97475842Y-47229283D01*
X97389808Y-47360968D01*
X97336662Y-47406325D01*
X97267430Y-47415748D01*
X97204095Y-47386246D01*
X97182192Y-47360968D01*
X97096157Y-47229283D01*
X97096149Y-47229272D01*
X96943049Y-47062963D01*
X96943048Y-47062962D01*
X96943046Y-47062960D01*
X96764649Y-46924107D01*
X96738390Y-46909896D01*
X96565832Y-46816512D01*
X96565827Y-46816510D01*
X96352017Y-46743109D01*
X96184778Y-46715202D01*
X96129033Y-46705900D01*
X95902967Y-46705900D01*
X95858370Y-46713341D01*
X95679982Y-46743109D01*
X95466172Y-46816510D01*
X95466167Y-46816512D01*
X95267352Y-46924106D01*
X95088955Y-47062959D01*
X95088950Y-47062963D01*
X94935850Y-47229272D01*
X94935842Y-47229283D01*
X94849808Y-47360968D01*
X94796662Y-47406325D01*
X94727430Y-47415748D01*
X94664095Y-47386246D01*
X94642192Y-47360968D01*
X94556157Y-47229283D01*
X94556149Y-47229272D01*
X94403049Y-47062963D01*
X94403048Y-47062962D01*
X94403046Y-47062960D01*
X94224649Y-46924107D01*
X94198390Y-46909896D01*
X94025832Y-46816512D01*
X94025827Y-46816510D01*
X93812017Y-46743109D01*
X93644778Y-46715202D01*
X93589033Y-46705900D01*
X93362967Y-46705900D01*
X93318370Y-46713341D01*
X93139982Y-46743109D01*
X92926172Y-46816510D01*
X92926167Y-46816512D01*
X92727352Y-46924106D01*
X92548955Y-47062959D01*
X92548950Y-47062963D01*
X92395850Y-47229272D01*
X92395842Y-47229283D01*
X92309808Y-47360968D01*
X92256662Y-47406325D01*
X92187430Y-47415748D01*
X92124095Y-47386246D01*
X92102192Y-47360968D01*
X92016157Y-47229283D01*
X92016149Y-47229272D01*
X91863049Y-47062963D01*
X91863048Y-47062962D01*
X91863046Y-47062960D01*
X91684649Y-46924107D01*
X91658390Y-46909896D01*
X91485832Y-46816512D01*
X91485827Y-46816510D01*
X91272017Y-46743109D01*
X91104778Y-46715202D01*
X91049033Y-46705900D01*
X90822967Y-46705900D01*
X90778370Y-46713341D01*
X90599982Y-46743109D01*
X90386172Y-46816510D01*
X90386167Y-46816512D01*
X90187352Y-46924106D01*
X90008955Y-47062959D01*
X90008950Y-47062963D01*
X89855850Y-47229272D01*
X89855842Y-47229283D01*
X89769509Y-47361425D01*
X89716363Y-47406782D01*
X89647131Y-47416205D01*
X89583796Y-47386702D01*
X89561892Y-47361424D01*
X89520888Y-47298663D01*
X88885521Y-47934029D01*
X88862845Y-47856799D01*
X88783869Y-47733910D01*
X88673470Y-47638248D01*
X88540592Y-47577565D01*
X88535599Y-47576847D01*
X89168859Y-46943587D01*
X89168858Y-46943585D01*
X89144378Y-46924531D01*
X89144368Y-46924524D01*
X88945639Y-46816977D01*
X88945624Y-46816970D01*
X88731893Y-46743596D01*
X88508990Y-46706400D01*
X88283010Y-46706400D01*
X88060106Y-46743596D01*
X87846375Y-46816970D01*
X87846369Y-46816972D01*
X87647623Y-46924529D01*
X87647617Y-46924533D01*
X87623140Y-46943584D01*
X87623140Y-46943586D01*
X88256401Y-47576847D01*
X88251408Y-47577565D01*
X88118530Y-47638248D01*
X88008131Y-47733910D01*
X87929155Y-47856799D01*
X87906477Y-47934031D01*
X87271109Y-47298663D01*
X87230107Y-47361424D01*
X87176961Y-47406781D01*
X87107730Y-47416205D01*
X87044394Y-47386704D01*
X87022493Y-47361430D01*
X86936156Y-47229281D01*
X86936149Y-47229274D01*
X86936149Y-47229272D01*
X86783049Y-47062963D01*
X86783048Y-47062962D01*
X86783046Y-47062960D01*
X86604649Y-46924107D01*
X86578390Y-46909896D01*
X86405832Y-46816512D01*
X86405827Y-46816510D01*
X86192017Y-46743109D01*
X86024778Y-46715202D01*
X85969033Y-46705900D01*
X85742967Y-46705900D01*
X85698370Y-46713341D01*
X85519982Y-46743109D01*
X85306172Y-46816510D01*
X85306167Y-46816512D01*
X85107352Y-46924106D01*
X84928955Y-47062959D01*
X84928950Y-47062963D01*
X84775850Y-47229272D01*
X84775842Y-47229283D01*
X84689808Y-47360968D01*
X84636662Y-47406325D01*
X84567430Y-47415748D01*
X84504095Y-47386246D01*
X84482192Y-47360968D01*
X84396157Y-47229283D01*
X84396149Y-47229272D01*
X84243049Y-47062963D01*
X84243048Y-47062962D01*
X84243046Y-47062960D01*
X84064649Y-46924107D01*
X84038390Y-46909896D01*
X83865832Y-46816512D01*
X83865827Y-46816510D01*
X83652017Y-46743109D01*
X83484778Y-46715202D01*
X83429033Y-46705900D01*
X83202967Y-46705900D01*
X83158370Y-46713341D01*
X82979982Y-46743109D01*
X82766172Y-46816510D01*
X82766167Y-46816512D01*
X82567352Y-46924106D01*
X82388955Y-47062959D01*
X82388950Y-47062963D01*
X82235850Y-47229272D01*
X82235842Y-47229283D01*
X82149808Y-47360968D01*
X82096662Y-47406325D01*
X82027430Y-47415748D01*
X81964095Y-47386246D01*
X81942192Y-47360968D01*
X81856157Y-47229283D01*
X81856149Y-47229272D01*
X81703049Y-47062963D01*
X81703048Y-47062962D01*
X81703046Y-47062960D01*
X81524649Y-46924107D01*
X81498390Y-46909896D01*
X81325832Y-46816512D01*
X81325827Y-46816510D01*
X81112017Y-46743109D01*
X80944778Y-46715202D01*
X80889033Y-46705900D01*
X80662967Y-46705900D01*
X80618370Y-46713341D01*
X80439982Y-46743109D01*
X80226172Y-46816510D01*
X80226167Y-46816512D01*
X80027352Y-46924106D01*
X79848955Y-47062959D01*
X79848950Y-47062963D01*
X79695850Y-47229272D01*
X79695842Y-47229283D01*
X79572198Y-47418533D01*
X79481388Y-47625560D01*
X79425892Y-47844710D01*
X79407225Y-48069993D01*
X79407225Y-48070006D01*
X77799118Y-48070006D01*
X77799118Y-46374253D01*
X77799251Y-46370199D01*
X77801847Y-46330578D01*
X77804603Y-46288514D01*
X77817602Y-46106749D01*
X77818630Y-46099122D01*
X77835986Y-46011866D01*
X77841767Y-45982806D01*
X77865477Y-45873808D01*
X77873142Y-45838567D01*
X77875017Y-45831815D01*
X77901163Y-45754789D01*
X77915414Y-45712804D01*
X77964787Y-45580430D01*
X77967243Y-45574742D01*
X78024182Y-45459279D01*
X78090819Y-45337244D01*
X78093633Y-45332595D01*
X78165162Y-45225544D01*
X78167008Y-45222935D01*
X78248917Y-45113519D01*
X78251879Y-45109865D01*
X78337099Y-45012691D01*
X78339795Y-45009812D01*
X78436212Y-44913395D01*
X78439091Y-44910699D01*
X78536265Y-44825479D01*
X78539919Y-44822517D01*
X78649335Y-44740608D01*
X78651944Y-44738762D01*
X78758995Y-44667233D01*
X78763644Y-44664419D01*
X78885679Y-44597782D01*
X79001142Y-44540843D01*
X79006830Y-44538387D01*
X79139204Y-44489014D01*
X79258215Y-44448617D01*
X79264967Y-44446742D01*
X79302336Y-44438614D01*
X79409206Y-44415367D01*
X79441000Y-44409042D01*
X79525519Y-44392230D01*
X79533151Y-44391202D01*
X79714827Y-44378209D01*
X79783061Y-44373737D01*
X79796580Y-44372852D01*
X79800664Y-44372719D01*
X160033961Y-44414686D01*
G37*
G04 #@! TD.AperFunction*
G04 #@! TD*
M02*
