M48
; DRILL file {KiCad 7.0.8-7.0.8~ubuntu23.04.1} date Sun 29 Oct 2023 22:49:30 GMT
; FORMAT={-:-/ absolute / inch / decimal}
; #@! TF.CreationDate,2023-10-29T22:49:30+00:00
; #@! TF.GenerationSoftware,Kicad,Pcbnew,7.0.8-7.0.8~ubuntu23.04.1
; #@! TF.FileFunction,Plated,1,2,PTH
FMAT,2
INCH
; #@! TA.AperFunction,Plated,PTH,ComponentDrill
T1C0.0315
; #@! TA.AperFunction,Plated,PTH,ComponentDrill
T2C0.0400
; #@! TA.AperFunction,Plated,PTH,ComponentDrill
T3C0.0402
; #@! TA.AperFunction,Plated,PTH,ComponentDrill
T4C0.0433
%
G90
G05
T1
X4.1524Y-3.5394
X4.2445Y-2.2008
X4.2524Y-3.5394
X4.3445Y-2.2008
X4.3524Y-3.5394
X4.4445Y-2.2008
X4.4524Y-3.5394
X4.5445Y-2.2008
X4.5524Y-3.5394
X4.6445Y-2.2008
X4.6524Y-3.5394
X4.7445Y-2.2008
X4.7524Y-3.5394
X4.8445Y-2.2008
X4.8524Y-3.5394
X4.9445Y-2.2008
X4.9524Y-3.5394
X5.0445Y-2.2008
T2
X3.1802Y-1.8925
X3.2802Y-1.8925
X3.3802Y-1.8925
X3.4802Y-1.8925
X3.5402Y-3.7925
X3.5802Y-1.8925
X3.6402Y-3.7925
X3.6802Y-1.8925
X3.7402Y-3.7925
X3.7802Y-1.8925
X3.8402Y-3.7925
X3.8802Y-1.8925
X3.9402Y-3.7925
X3.9802Y-1.8925
X4.0402Y-3.7925
X4.0802Y-1.8925
X4.1402Y-3.7925
X4.2402Y-1.8925
X4.2402Y-3.7925
X4.3402Y-1.8925
X4.4402Y-1.8925
X4.4402Y-3.7925
X4.5402Y-1.8925
X4.5402Y-3.7925
X4.6402Y-1.8925
X4.6402Y-3.7925
X4.7402Y-1.8925
X4.7402Y-3.7925
X4.8402Y-1.8925
X4.8402Y-3.7925
X4.9402Y-1.8925
X4.9402Y-3.7925
X5.0402Y-3.7925
X5.1402Y-1.8925
X5.1402Y-3.7925
X5.2402Y-1.8925
X5.3402Y-1.8925
X5.3402Y-3.7925
X5.4402Y-1.8925
X5.4402Y-3.7925
X5.5402Y-1.8925
X5.5402Y-3.7925
X5.6402Y-1.8925
X5.6402Y-3.7925
X5.7402Y-1.8925
X5.7402Y-3.7925
X5.8402Y-1.8925
X5.8402Y-3.7925
X5.9402Y-3.7925
X6.0402Y-3.7925
X6.1402Y-1.8925
X6.1402Y-1.9925
X6.1402Y-2.0925
X6.1402Y-2.1925
X6.1402Y-2.2925
X6.1402Y-2.3925
X6.1402Y-2.4925
X6.1402Y-2.5925
X6.1402Y-2.6925
X6.1402Y-2.7925
X6.1402Y-2.8925
X6.1402Y-2.9925
X6.1402Y-3.0925
X6.1402Y-3.1925
X6.1402Y-3.2925
X6.1402Y-3.3925
X6.1402Y-3.4925
X6.1402Y-3.5925
X6.2402Y-1.8925
X6.2402Y-1.9925
X6.2402Y-2.0925
X6.2402Y-2.1925
X6.2402Y-2.2925
X6.2402Y-2.3925
X6.2402Y-2.4925
X6.2402Y-2.5925
X6.2402Y-2.6925
X6.2402Y-2.7925
X6.2402Y-2.8925
X6.2402Y-2.9925
X6.2402Y-3.0925
X6.2402Y-3.1925
X6.2402Y-3.2925
X6.2402Y-3.3925
X6.2402Y-3.4925
X6.2402Y-3.5925
T3
X4.2512Y-2.5846
X4.2512Y-3.1846
X4.3512Y-2.5846
X4.3512Y-3.1846
X4.4512Y-2.5846
X4.4512Y-3.1846
X4.5512Y-2.5846
X4.5512Y-3.1846
X4.6512Y-2.5846
X4.6512Y-3.1846
X4.7512Y-2.5846
X4.7512Y-3.1846
X4.8512Y-2.5846
X4.8512Y-3.1846
X4.9512Y-2.5846
X4.9512Y-3.1846
X5.0512Y-2.5846
X5.0512Y-3.1846
X5.1512Y-2.5846
X5.1512Y-3.1846
X5.2512Y-2.5846
X5.2512Y-3.1846
X5.3512Y-2.5846
X5.3512Y-3.1846
T4
X3.307Y-2.2692
X3.307Y-2.4464
X3.5629Y-2.2692
X3.5629Y-2.4464
T0
M30
